<?xml version="1.0" standalone="no"?>
<!DOCTYPE svg PUBLIC "-//W3C//DTD SVG 20010904//EN"
 "http://www.w3.org/TR/2001/REC-SVG-20010904/DTD/svg10.dtd">
<svg version="1.0" xmlns="http://www.w3.org/2000/svg"
 width="714.000000pt" height="1080.000000pt" viewBox="0 0 714.000000 1080.000000"
 preserveAspectRatio="xMidYMid meet">

<g transform="translate(0.000000,1080.000000) scale(0.100000,-0.100000)"
fill="#000000" stroke="none">
<path d="M0 5500 l0 -5300 103 -1 c86 -1 96 -2 67 -11 l-35 -10 39 -13 c21 -7
44 -11 51 -9 7 3 16 1 20 -5 9 -15 92 -14 97 1 3 7 12 9 24 4 30 -12 0 -22
-86 -30 -41 -4 -100 -13 -130 -21 -30 -8 -76 -15 -102 -15 l-48 0 0 -45 0 -45
224 0 c124 0 227 4 230 9 6 9 -97 21 -194 21 -36 0 -72 5 -80 10 -13 8 -12 10
3 10 26 0 11 20 -16 21 -13 1 -4 6 20 11 57 14 154 2 146 -18 -5 -12 7 -14 68
-13 41 1 115 -1 164 -6 91 -7 175 5 175 25 0 6 -21 11 -47 11 -43 1 -45 2 -18
9 75 19 373 7 541 -21 34 -6 98 -10 143 -10 65 0 81 -2 81 -14 0 -13 -28 -15
-172 -16 -179 -1 -257 -4 -343 -13 -34 -3 -42 -2 -25 4 14 4 45 9 70 10 25 1
54 5 65 9 16 7 14 9 -14 14 -55 11 -168 6 -296 -12 l-120 -17 70 -10 c53 -7
631 -11 815 -6 14 1 171 -1 350 -3 179 -2 317 -1 307 2 -29 8 -8 23 33 23 22
0 40 -5 42 -12 4 -10 342 -13 1644 -14 901 0 1608 1 1569 3 -38 2 -81 6 -95 9
l-25 7 25 8 c20 7 17 8 -13 4 -22 -2 -35 0 -32 6 4 5 91 9 204 9 150 0 205 -3
227 -14 38 -18 235 -32 260 -18 17 10 17 11 -6 15 -14 3 -49 10 -78 16 -30 6
-84 11 -120 12 -37 0 -61 3 -55 6 7 2 13 12 13 20 0 15 26 16 248 10 211 -5
241 -4 207 7 -111 37 -125 39 -217 32 -51 -3 -146 -9 -210 -13 -109 -5 -150
-16 -95 -25 12 -2 -9 -7 -48 -11 -38 -3 -86 -3 -105 2 -29 7 -31 9 -10 10 14
1 34 7 45 15 11 7 29 16 40 19 24 6 -26 9 -140 9 -44 0 -61 2 -37 5 48 5 56
19 15 26 -27 5 -4 4 223 -10 116 -6 164 0 133 17 -9 5 -54 12 -100 15 -104 7
-208 25 -214 36 -5 7 16 13 85 22 14 2 0 7 -33 11 -41 6 -71 5 -98 -4 -41 -14
-56 -10 -43 11 5 9 62 11 238 6 127 -3 227 -4 221 -2 -5 2 -50 9 -100 16 -182
23 -187 26 -43 28 82 0 139 -3 143 -9 3 -5 21 -10 40 -10 19 0 38 -6 42 -13
13 -22 134 -36 356 -43 114 -4 207 -11 207 -15 0 -5 -27 -9 -60 -9 -33 0 -60
-4 -60 -8 0 -5 13 -7 29 -4 43 6 287 -15 361 -32 36 -8 136 -16 222 -19 l157
-5 1 279 0 279 -57 1 c-68 1 -116 13 -93 23 8 3 47 10 85 15 l70 8 -72 2 c-84
1 -104 16 -35 25 131 18 128 29 -13 42 -83 7 -86 8 -43 14 84 10 80 29 -5 31
-94 2 -67 29 29 29 30 0 54 5 54 10 0 6 -35 10 -82 11 -68 1 -77 2 -51 10 76
22 30 27 -172 18 -16 -1 -50 0 -75 1 l-45 2 40 9 c22 4 68 8 103 8 83 1 79 19
-5 24 -38 2 -13 3 54 1 67 -1 131 -8 142 -13 30 -17 171 -27 171 -12 0 6 -15
11 -32 12 l-33 1 33 9 c19 6 30 14 26 20 -9 15 -659 5 -694 -9 l-25 -11 27 0
c47 -1 40 -19 -10 -25 -26 -4 -139 -9 -251 -11 -192 -4 -203 -3 -208 15 -4 17
-15 19 -82 18 -94 -1 -118 9 -70 29 40 17 353 28 343 12 -3 -6 72 -7 203 -3
114 3 278 6 363 6 107 0 139 2 105 7 -45 7 -41 8 45 11 52 2 112 2 132 1 20
-1 39 3 43 9 4 7 -60 11 -192 12 -171 1 -182 2 -86 7 61 3 114 9 117 12 7 7
-121 19 -200 19 -29 0 -54 -4 -56 -9 -1 -5 -47 -11 -100 -13 -54 -3 -95 -1
-92 3 3 5 26 9 52 9 31 0 42 3 33 9 -9 6 11 12 60 19 70 9 66 9 -91 12 -91 1
-178 6 -195 11 -51 14 383 2 490 -14 126 -19 316 -30 295 -17 -8 5 -40 12 -70
15 -30 4 -82 13 -116 21 -33 8 -87 14 -120 14 -32 0 -104 7 -158 15 -55 8
-112 15 -128 15 -17 0 -27 4 -23 10 3 6 -4 10 -16 10 -12 0 -20 3 -16 6 3 3
38 1 79 -6 40 -6 114 -10 163 -8 l90 3 -105 9 c-77 7 -97 12 -75 17 17 4 -22
6 -85 5 -63 0 -137 0 -165 1 -27 2 -79 3 -115 2 l-65 -1 50 -8 c28 -4 64 -15
82 -24 18 -10 69 -20 117 -23 47 -3 83 -10 80 -14 -7 -12 -234 -11 -234 0 0 5
6 12 13 14 6 3 -65 6 -160 6 -111 1 -174 5 -178 12 -9 14 -105 2 -124 -16 -11
-11 8 -14 105 -19 160 -9 169 -11 96 -21 -35 -4 -58 -11 -52 -15 19 -12 -50
-21 -71 -10 -11 6 -25 10 -32 9 -6 -1 -32 0 -57 1 -42 2 -43 3 -15 10 29 7 29
8 -10 9 -22 1 -58 6 -80 10 -37 8 -38 9 -9 10 37 1 47 10 33 28 -9 11 0 13 52
13 72 0 69 9 -13 34 -32 9 -58 20 -58 23 0 3 71 4 158 1 132 -5 152 -4 122 7
-19 6 -75 15 -125 19 -144 10 -168 25 -31 19 89 -5 117 -3 112 5 -8 13 11 14
149 12 44 -1 82 -6 85 -11 4 -5 48 -12 100 -16 52 -3 106 -12 120 -20 14 -7
54 -13 90 -13 49 -1 171 -19 197 -30 40 -16 137 -32 243 -39 123 -9 201 -31
105 -30 -37 0 -45 3 -30 9 16 7 17 9 3 9 -21 1 -72 -18 -66 -25 3 -2 51 -8
107 -12 l101 -8 0 33 c0 25 -5 33 -22 36 l-23 4 23 2 c16 1 22 7 22 25 0 13
-6 27 -12 29 -10 4 -10 6 0 6 8 1 12 21 12 66 0 59 -2 65 -21 65 -11 0 -18 -4
-15 -8 3 -5 -68 -7 -157 -6 -123 2 -140 1 -70 -5 50 -3 95 -10 99 -14 4 -4
-53 -8 -127 -9 -118 -1 -126 -2 -64 -8 39 -4 109 -8 158 -9 50 0 87 -5 87 -11
0 -5 21 -10 48 -11 l47 -1 -45 -10 -45 -11 30 -13 c29 -13 27 -13 -35 -13 -45
0 -59 3 -45 9 14 6 -5 9 -60 10 -53 1 -73 4 -60 10 11 4 47 6 80 3 33 -3 57
-2 53 2 -4 4 -94 9 -200 10 -106 2 -278 8 -383 14 -104 6 -273 14 -375 17
-176 7 -183 8 -145 21 29 10 66 13 135 9 188 -12 358 -15 300 -6 -126 19 -231
32 -335 43 -60 7 -116 16 -123 20 -19 13 -4 27 26 26 24 0 25 -1 7 -8 -12 -5
38 -11 128 -16 111 -5 151 -4 162 5 10 9 32 10 72 5 32 -4 172 -8 311 -10 171
-2 257 -6 265 -14 6 -6 31 -10 57 -10 41 1 42 2 15 9 -16 4 -23 9 -15 10 25 4
-85 19 -234 31 -103 8 -141 8 -146 -1 -5 -8 -24 -8 -70 -1 -77 13 -342 3 -333
-12 4 -7 -6 -7 -28 -2 -19 4 -50 8 -69 9 -19 1 -38 6 -42 11 -4 6 -33 9 -65 8
-61 -3 -167 22 -159 36 6 10 -41 21 -86 21 -26 0 -28 2 -18 20 8 16 22 20 63
21 51 2 51 2 12 8 l-40 6 34 13 c19 6 50 12 70 12 63 0 141 12 135 21 -3 5
-33 8 -67 8 -53 -1 -57 -3 -27 -9 25 -5 10 -8 -57 -9 -56 0 -93 3 -93 9 0 6 6
11 13 11 6 1 59 5 117 9 98 6 100 7 33 8 -41 1 -73 6 -73 12 0 6 54 11 138 12
l137 1 -115 7 c-63 4 -145 8 -182 9 -38 0 -68 5 -68 10 0 16 140 27 217 17 39
-6 70 -13 67 -18 -3 -4 14 -8 38 -9 24 0 81 -2 128 -4 78 -4 82 -3 51 9 -52
19 -26 24 68 15 89 -9 117 -18 60 -20 -19 -1 -25 -3 -14 -5 62 -13 105 -28
105 -35 0 -5 14 -9 31 -9 16 0 28 -4 24 -9 -3 -6 10 -8 32 -4 27 4 35 2 28 -5
-6 -6 -46 -13 -90 -15 -44 -2 -21 -2 50 0 72 2 135 4 140 3 6 0 36 -3 68 -6
31 -3 55 -10 52 -14 -3 -4 17 -11 45 -15 77 -11 76 -29 0 -22 -40 3 -58 2 -49
-4 8 -5 46 -9 84 -9 49 0 66 3 55 10 -10 7 6 8 50 3 36 -3 67 -10 68 -15 2 -4
12 -8 22 -8 10 0 22 -4 25 -10 3 -6 -38 -11 -107 -13 l-113 -3 140 -2 c77 -1
150 -5 163 -8 l22 -6 0 4641 0 4641 -3570 0 -3570 0 0 -5300z m3730 4586 c0
-3 -4 -8 -10 -11 -5 -3 -10 -1 -10 4 0 6 5 11 10 11 6 0 10 -2 10 -4z m-183
-122 c-3 -3 -12 -4 -19 -1 -8 3 -5 6 6 6 11 1 17 -2 13 -5z m-548 -343 c-15
-5 -22 6 -14 19 6 9 10 9 16 -1 5 -8 4 -15 -2 -18z m51 -51 c-8 -5 -26 -9 -40
-9 -23 0 -23 1 -5 9 11 5 29 9 40 9 17 1 17 -1 5 -9z m40 -39 c0 -27 -15 -34
-31 -15 -10 13 -10 17 2 25 22 13 29 11 29 -10z m39 -112 c-17 -10 -24 4 -14
29 6 16 7 16 17 -2 8 -14 7 -21 -3 -27z m448 -4 c2 -6 -3 -20 -12 -30 -13 -17
-16 -18 -25 -5 -18 27 -12 52 12 48 12 -2 23 -8 25 -13z m-359 -38 c2 -12 -3
-17 -17 -17 -15 0 -21 6 -21 21 0 25 33 22 38 -4z m121 -61 c-9 -8 -10 -8 -4
3 6 10 4 13 -7 9 -8 -4 -15 -1 -15 7 0 7 6 11 14 8 8 -3 14 3 14 18 2 20 3 19
6 -5 3 -16 -1 -34 -8 -40z m-32 -43 c-3 -10 -5 -4 -5 12 0 17 2 24 5 18 2 -7
2 -21 0 -30z m83 28 c0 -5 -10 -11 -22 -13 -14 -2 -24 -12 -28 -27 -3 -14 -11
-26 -17 -28 -15 -5 -5 37 15 60 16 18 52 24 52 8z m-380 -21 c0 -5 -5 -10 -11
-10 -5 0 -7 5 -4 10 3 6 8 10 11 10 2 0 4 -4 4 -10z m-30 -128 c0 -45 -19 -76
-44 -71 -17 4 -17 6 3 29 20 23 21 23 11 3 -6 -13 -7 -23 -1 -23 13 0 21 26
21 66 0 19 2 34 5 34 3 0 5 -17 5 -38z m20 -74 c0 -19 -2 -20 -10 -8 -13 19
-13 30 0 30 6 0 10 -10 10 -22z m-55 -18 c-3 -5 -14 -10 -23 -10 -15 0 -15 2
-2 10 20 13 33 13 25 0z m-31 -52 c-3 -4 2 -5 10 -2 9 3 16 12 16 19 0 15 18
30 26 22 8 -8 -38 -57 -53 -57 -12 0 -18 13 -14 34 1 5 -6 6 -15 2 -14 -5 -15
-4 -4 9 11 14 14 13 25 -2 7 -10 11 -21 9 -25z m-45 -29 c-22 -13 -31 -11 -17
5 7 8 17 12 22 9 4 -3 2 -9 -5 -14z m957 -37 c-15 -29 -51 -48 -61 -32 -2 4 4
15 15 25 11 10 20 14 20 9 0 -5 7 2 16 14 22 32 29 21 10 -16z m118 29 c3 -5
-1 -11 -9 -15 -15 -6 -29 7 -18 18 9 9 21 8 27 -3z m163 -42 c1 -10 -4 -19
-11 -19 -18 0 -39 27 -32 39 10 15 42 1 43 -20z m-62 -17 c-3 -3 5 -12 17 -19
22 -11 22 -12 3 -13 l-20 -1 20 -10 c15 -7 11 -7 -15 -3 -19 3 -39 11 -45 17
-7 7 -5 8 7 4 20 -7 31 25 14 44 -8 9 -6 9 7 0 9 -8 15 -16 12 -19z m-1118
-28 c-3 -3 -12 -4 -19 -1 -8 3 -5 6 6 6 11 1 17 -2 13 -5z m98 -22 c-8 -8 -25
10 -19 20 4 6 9 5 15 -3 4 -7 6 -15 4 -17z m-198 -34 c-3 -7 -5 -2 -5 12 0 14
2 19 5 13 2 -7 2 -19 0 -25z m890 -10 c-3 -7 -5 -2 -5 12 0 14 2 19 5 13 2 -7
2 -19 0 -25z m233 13 c0 -12 -9 -20 -27 -24 -37 -7 -42 0 -9 12 14 6 26 15 26
21 0 5 2 10 5 10 3 0 5 -8 5 -19z m85 9 c3 -5 1 -10 -4 -10 -6 0 -11 5 -11 10
0 6 2 10 4 10 3 0 8 -4 11 -10z m440 -40 c-3 -5 0 -10 7 -10 9 0 9 -3 -2 -10
-9 -6 -18 -6 -25 1 -6 6 -5 13 5 19 19 12 23 12 15 0z m-615 -35 c-7 -8 -17
-15 -23 -15 -5 0 -2 9 8 20 21 23 35 19 15 -5z m587 -1 c-3 -3 -12 -4 -19 -1
-8 3 -5 6 6 6 11 1 17 -2 13 -5z m-647 -39 c0 -10 -10 -15 -29 -15 -32 0 -50
15 -29 23 27 11 58 7 58 -8z m128 -21 c53 -11 55 -13 42 -29 -6 -7 -11 -22
-10 -32 4 -33 -12 -63 -31 -63 -11 0 -22 -7 -25 -15 -4 -8 -10 -12 -15 -9 -16
9 -10 54 11 76 l20 22 1 -35 c1 -27 3 -29 6 -9 3 14 9 30 15 37 5 7 7 16 4 22
-3 5 0 12 6 15 7 3 1 4 -14 1 -15 -3 -29 -1 -33 5 -3 5 -11 8 -18 6 -7 -1 -8
-1 -3 2 4 2 2 9 -5 14 -11 7 -9 8 4 4 11 -3 31 -9 45 -12z m345 -11 c-7 -2
-21 -2 -30 0 -10 3 -4 5 12 5 17 0 24 -2 18 -5z m52 -3 c-3 -5 -13 -10 -21
-10 -8 0 -14 5 -14 10 0 6 9 10 21 10 11 0 17 -4 14 -10z m-551 -9 c3 -5 -3
-11 -14 -14 -20 -5 -26 3 -13 16 9 10 21 9 27 -2z m567 -10 c-17 -11 -92 -23
-99 -17 -2 3 9 8 24 11 16 3 40 9 54 14 29 9 41 4 21 -8z m32 -18 c-5 -12 -3
-14 7 -8 8 5 11 4 6 -3 -3 -6 -15 -9 -25 -7 -14 3 -18 -2 -17 -21 0 -13 5 -24
9 -24 4 0 3 -9 -3 -20 -7 -14 -7 -20 0 -20 11 0 11 1 15 38 3 33 12 37 20 10
13 -41 26 -50 42 -31 14 17 14 17 8 -2 -4 -11 -11 -35 -17 -52 -11 -39 -22
-44 -16 -8 4 20 3 23 -8 14 -7 -6 -12 -16 -11 -22 1 -6 -4 -12 -10 -13 -7 -1
-16 -2 -20 -3 -4 0 2 -7 12 -15 16 -12 23 -12 45 1 l25 15 -22 -20 c-25 -22
-31 -52 -10 -52 8 0 8 -3 -2 -9 -11 -7 -20 -3 -33 11 -13 15 -18 17 -18 7 0
-8 5 -20 12 -27 9 -9 7 -12 -10 -12 -13 0 -25 -7 -28 -15 -4 -8 -18 -15 -33
-15 l-26 1 23 18 c21 18 31 61 14 61 -12 0 -43 -35 -37 -42 3 -2 -1 -5 -9 -5
-9 0 0 22 25 60 22 33 39 66 39 73 0 19 -38 28 -58 13 -14 -11 -15 -11 -5 1 8
9 9 19 3 31 -7 12 -5 19 6 23 8 3 12 2 9 -4 -3 -6 1 -7 9 -4 15 6 20 20 19 52
-1 11 4 13 40 16 6 1 16 7 20 14 11 17 17 15 10 -5z m-558 -60 c-4 -21 -12
-41 -18 -45 -8 -5 -8 -10 1 -20 6 -8 9 -23 7 -33 -2 -11 -4 -24 -4 -28 -1 -5
-6 -5 -12 -1 -6 3 -9 15 -6 25 4 16 2 17 -15 8 -23 -12 -42 0 -64 42 -19 38
-18 40 12 29 40 -16 67 -13 60 6 -4 11 1 18 14 21 11 3 20 12 20 19 0 8 3 14
6 14 3 0 3 -17 -1 -37z m48 -50 c-6 -7 -19 -13 -27 -13 -21 0 -21 49 -1 56 8
4 12 11 9 16 -4 6 0 14 7 19 18 11 29 -60 12 -78z m427 70 c0 -1 -13 -9 -30
-18 -27 -14 -30 -14 -30 0 0 9 5 13 10 10 6 -3 10 -2 10 2 0 5 9 9 20 9 11 0
20 -1 20 -3z m-90 -29 c0 -2 -9 -4 -21 -4 -11 0 -18 4 -14 10 5 8 35 3 35 -6z
m-40 -24 c0 -5 -2 -10 -4 -10 -3 0 -8 5 -11 10 -3 6 -1 10 4 10 6 0 11 -4 11
-10z m-1210 -16 c0 -3 -7 -12 -15 -20 -16 -17 -18 -14 -9 10 6 15 24 23 24 10z
m1177 -16 c-3 -8 -6 -5 -6 6 -1 11 2 17 5 13 3 -3 4 -12 1 -19z m53 2 c0 -5
-4 -10 -10 -10 -5 0 -10 5 -10 10 0 6 5 10 10 10 6 0 10 -4 10 -10z m130 -14
c0 -3 -4 -8 -10 -11 -5 -3 -10 -1 -10 4 0 6 5 11 10 11 6 0 10 -2 10 -4z
m-1492 -64 c-17 -7 -38 8 -32 22 5 12 8 12 23 -2 9 -9 13 -19 9 -20z m868 -4
c-7 -5 -6 -8 3 -8 35 0 -2 -12 -42 -13 -30 -1 -43 2 -40 9 2 7 13 10 24 7 13
-4 19 0 19 11 0 10 5 14 10 11 6 -3 13 2 17 11 6 16 7 16 13 -2 4 -10 2 -22
-4 -26z m359 3 c-6 -5 -23 -12 -40 -16 l-30 -6 30 15 c35 17 53 20 40 7z m150
-25 c-10 -14 -22 -26 -27 -26 -10 0 -3 16 20 43 22 25 27 13 7 -17z m-710 -24
c-3 -3 -11 0 -18 7 -9 10 -8 11 6 5 10 -3 15 -9 12 -12z m578 11 c-7 -2 -19
-2 -25 0 -7 3 -2 5 12 5 14 0 19 -2 13 -5z m-293 -33 c0 -5 -5 -10 -11 -10 -5
0 -7 5 -4 10 3 6 8 10 11 10 2 0 4 -4 4 -10z m-266 -15 c-4 -8 -11 -15 -16
-15 -6 0 -5 6 2 15 7 8 14 15 16 15 2 0 1 -7 -2 -15z m46 -10 c0 -8 -5 -15
-11 -15 -5 0 -8 4 -5 9 4 5 0 12 -6 14 -8 3 -6 6 5 6 9 1 17 -6 17 -14z m710
-6 c0 -12 -37 -12 -44 0 -3 4 -3 11 0 14 8 7 44 -4 44 -14z m-920 7 c0 -2 -7
-6 -15 -10 -8 -3 -15 -1 -15 4 0 6 7 10 15 10 8 0 15 -2 15 -4z m-470 -15 c0
-13 -25 -20 -40 -11 -10 6 -8 9 6 13 31 8 34 7 34 -2z m517 -33 c-3 -7 -5 -2
-5 12 0 14 2 19 5 13 2 -7 2 -19 0 -25z m62 18 c10 -12 8 -13 -9 -9 -25 7 -37
23 -17 23 8 0 20 -6 26 -14z m-701 -28 l-21 -21 21 -8 c23 -9 29 -24 12 -34
-6 -3 -13 1 -16 10 -5 11 -9 13 -14 5 -11 -18 -40 0 -38 25 1 13 7 21 14 18 7
-2 17 5 23 16 7 11 17 18 25 15 12 -4 10 -10 -6 -26z m774 25 c-10 -4 -10 -8
-1 -19 15 -18 8 -26 -24 -28 -14 0 -23 -4 -21 -7 2 -4 -7 -14 -20 -22 -24 -16
-70 -12 -60 5 3 5 12 7 20 4 8 -3 20 3 26 14 7 11 21 20 30 20 10 0 22 9 28
20 6 11 16 20 23 19 9 0 8 -2 -1 -6z m58 -19 c0 -7 -6 -11 -13 -8 -8 3 -14 11
-14 18 0 8 6 12 14 9 7 -3 13 -11 13 -19z m540 12 c0 -3 -4 -8 -10 -11 -5 -3
-10 -1 -10 4 0 6 5 11 10 11 6 0 10 -2 10 -4z m2893 -3 c-7 -2 -21 -2 -30 0
-10 3 -4 5 12 5 17 0 24 -2 18 -5z m-2940 -33 c-6 -23 -19 -26 -26 -6 -6 15
12 38 24 31 4 -3 5 -14 2 -25z m-723 1 c-14 -26 -29 -35 -26 -15 1 8 9 20 17
25 20 12 21 11 9 -10z m275 9 c3 -5 1 -10 -4 -10 -6 0 -11 5 -11 10 0 6 2 10
4 10 3 0 8 -4 11 -10z m305 -10 c-27 -21 -55 -27 -45 -9 7 11 42 27 60 28 6 0
-1 -8 -15 -19z m-710 -1 c0 -8 4 -8 14 0 12 10 14 9 12 -6 -2 -10 -9 -18 -17
-18 -8 0 -14 -5 -14 -12 0 -7 -9 -19 -20 -27 -22 -17 -36 -20 -34 -8 3 18 -2
26 -10 14 -7 -11 -9 -11 -14 1 -6 16 18 57 35 57 5 0 8 -7 4 -15 -5 -14 1 -15
44 -5 3 0 -4 7 -14 15 -17 13 -18 15 -3 15 9 0 17 -5 17 -11z m90 -40 c0 -18
-4 -28 -10 -24 -5 3 -10 -1 -10 -11 0 -13 -3 -14 -15 -4 -11 9 -12 15 -2 25 7
7 15 11 18 9 3 -2 4 8 1 23 -3 18 -1 24 7 19 6 -4 11 -21 11 -37z m830 20 c0
-5 -4 -9 -10 -9 -5 0 -10 7 -10 16 0 8 5 12 10 9 6 -3 10 -10 10 -16z m-1280
1 c0 -5 5 -10 11 -10 5 0 7 5 4 10 -3 6 -1 10 4 10 6 0 9 -14 8 -30 -4 -33
-17 -53 -17 -26 0 16 -1 16 -16 2 -16 -17 -35 -13 -33 7 0 9 2 8 6 -1 2 -6 9
-10 14 -6 15 9 10 24 -7 24 -14 0 -14 3 -4 15 14 17 30 20 30 5z m1208 -20 c2
-5 10 -6 19 -3 11 4 14 2 9 -5 -4 -7 -16 -12 -27 -12 -11 0 -17 5 -14 10 3 6
1 10 -4 10 -14 0 -14 -27 -1 -35 15 -10 12 -25 -7 -32 -10 -4 -22 -11 -26 -17
-5 -7 -7 -2 -4 12 5 23 -3 27 -53 24 -24 -2 -23 -1 5 12 17 7 33 12 36 10 9
-5 33 25 26 32 -3 3 -14 1 -24 -5 -16 -8 -20 -7 -20 6 0 12 8 14 41 9 23 -4
42 -11 44 -16z m-1144 2 c3 -5 -1 -9 -9 -9 -8 0 -15 4 -15 9 0 4 4 8 9 8 6 0
12 -4 15 -8z m971 -2 c4 -6 -12 -10 -42 -9 -39 1 -43 3 -23 9 36 11 58 11 65
0z m-1305 -15 c0 -8 -7 -15 -15 -15 -7 0 -19 -8 -24 -17 -6 -10 -11 -12 -11
-5 0 11 35 52 45 52 3 0 5 -7 5 -15z m787 -3 c0 -10 -7 -24 -14 -31 -16 -15
-16 -9 -1 24 13 30 17 31 15 7z m-569 -46 c-2 -22 0 -32 7 -30 6 3 21 -7 33
-21 25 -28 47 -32 56 -10 3 8 11 15 17 15 8 0 8 -4 -1 -15 -10 -12 -10 -15 3
-15 8 0 18 -11 21 -25 7 -29 0 -48 -15 -39 -6 4 -6 10 0 18 6 7 8 16 4 20 -4
4 -13 -4 -20 -16 -13 -22 -13 -22 -7 7 l7 30 -27 -25 c-15 -14 -35 -25 -44
-25 -9 0 -16 -6 -14 -12 1 -7 -4 -13 -11 -13 -16 0 -57 37 -57 51 0 6 -4 8 -9
4 -5 -3 -13 0 -17 6 -3 6 -2 14 4 18 7 4 7 12 3 20 -6 9 3 30 27 64 37 52 47
50 40 -7z m322 48 c0 -3 -6 -12 -14 -20 -11 -11 -16 -11 -19 -1 -3 6 -6 2 -6
-11 -1 -15 3 -21 12 -17 6 4 3 0 -7 -9 -10 -8 -23 -13 -29 -9 -5 3 -4 8 3 13
7 4 -1 7 -17 7 -15 0 -37 3 -48 7 -12 4 -10 1 5 -8 14 -8 20 -15 14 -16 -7 0
-11 -7 -10 -16 0 -9 -5 -19 -13 -22 -10 -3 -12 0 -8 12 5 12 0 16 -18 16 -13
0 -27 5 -31 12 -5 7 0 9 14 6 15 -4 19 -2 15 8 -3 8 1 15 8 16 37 4 44 3 50
-5 3 -5 13 -1 23 8 9 9 16 12 16 6 0 -6 9 -2 20 9 19 19 40 27 40 14z m438
-34 c12 0 13 3 4 12 -19 19 -14 26 13 23 34 -3 41 -12 28 -34 -9 -15 -5 -22
23 -45 19 -15 34 -32 34 -39 0 -8 -3 -8 -9 2 -6 9 -11 10 -15 2 -4 -6 -17 -11
-29 -11 -18 0 -19 -2 -7 -10 8 -6 33 -10 55 -9 52 0 78 -5 83 -19 2 -6 -6 -8
-20 -5 -13 3 -19 1 -13 -4 14 -11 17 -33 6 -33 -6 0 -12 3 -15 8 -2 4 -42 4
-88 1 -92 -8 -230 0 -223 12 3 4 47 5 99 2 51 -3 111 -2 132 2 l39 8 -54 12
c-29 7 -56 18 -60 23 -5 8 -23 7 -61 -3 -30 -8 -64 -15 -75 -15 -19 1 -19 2 3
20 13 11 21 25 17 32 -4 7 0 5 8 -4 18 -23 23 -23 30 2 3 11 2 20 -3 20 -4 0
-7 12 -7 26 0 17 7 29 21 34 14 6 16 9 6 10 -8 1 -4 5 10 10 19 5 28 3 39 -11
7 -11 21 -19 29 -19z m-305 -6 c-3 -8 -11 -14 -19 -14 -8 0 -14 -5 -14 -11 0
-8 -5 -8 -15 1 -21 18 -19 33 5 27 13 -3 20 0 20 9 0 7 6 11 14 8 8 -3 12 -12
9 -20z m77 19 c-1 -12 -29 -47 -34 -42 -7 7 13 49 24 49 5 0 10 -3 10 -7z m88
-1 c10 -7 10 -15 2 -38 l-12 -29 -14 34 c-8 18 -14 35 -14 37 0 7 25 4 38 -4z
m287 -2 c3 -5 1 -10 -4 -10 -6 0 -11 5 -11 10 0 6 2 10 4 10 3 0 8 -4 11 -10z
m160 -10 c3 -5 2 -10 -4 -10 -5 0 -13 5 -16 10 -3 6 -2 10 4 10 5 0 13 -4 16
-10z m390 0 c8 -13 -15 -13 -35 0 -12 8 -11 10 7 10 12 0 25 -4 28 -10z
m-1376 -48 c-17 -3 -18 -6 -7 -19 12 -15 11 -15 -9 -4 -24 12 -48 49 -39 59 3
3 6 1 6 -5 0 -5 7 -10 15 -10 10 0 14 6 10 15 -3 8 6 4 19 -9 24 -23 24 -24 5
-27z m757 34 c21 -21 17 -32 -4 -13 -10 10 -22 14 -27 10 -4 -5 -5 -2 -1 5 9
16 14 15 32 -2z m3224 -1 c0 -3 -9 -14 -19 -24 -13 -13 -21 -16 -24 -8 -2 7 3
17 12 24 17 13 31 17 31 8z m-3709 -19 c13 8 11 -10 -3 -24 -15 -15 -48 -16
-48 -1 0 5 4 8 9 4 5 -3 12 -1 16 5 3 5 0 10 -7 10 -9 0 -9 3 2 10 10 6 16 6
18 0 2 -6 8 -8 13 -4z m-106 -6 c-3 -5 -11 -10 -16 -10 -6 0 -7 5 -4 10 3 6
11 10 16 10 6 0 7 -4 4 -10z m-110 -11 c11 -16 1 -19 -13 -3 -7 8 -8 14 -3 14
5 0 13 -5 16 -11z m150 1 c-4 -6 1 -22 9 -35 9 -14 14 -25 12 -25 -2 0 -13 -3
-23 -6 -13 -4 -14 -3 -5 3 14 11 5 46 -9 37 -5 -3 -9 -1 -9 4 0 20 -51 -14
-57 -38 -6 -25 -21 -41 -58 -61 -17 -10 -17 -8 3 10 12 12 22 28 22 36 0 8 5
15 11 15 6 0 9 6 6 14 -6 16 56 51 72 41 5 -3 12 -1 16 5 3 5 8 10 11 10 3 0
2 -5 -1 -10z m195 -5 c-7 -8 -17 -12 -23 -8 -6 4 -3 9 9 14 27 11 28 11 14 -6z
m-40 -15 c0 -5 -7 -10 -16 -10 -8 0 -12 5 -9 10 3 6 10 10 16 10 5 0 9 -4 9
-10z m-623 -22 c-3 -8 -6 -5 -6 6 -1 11 2 17 5 13 3 -3 4 -12 1 -19z m582 5
c0 -11 -3 -13 -6 -5 -2 6 -9 10 -14 6 -5 -3 -9 0 -9 5 0 6 7 11 15 11 8 0 15
-8 14 -17z m1896 7 c3 -5 1 -10 -4 -10 -6 0 -11 5 -11 10 0 6 2 10 4 10 3 0 8
-4 11 -10z m-2390 -70 c-18 -20 -19 -31 -2 -24 7 2 26 -7 41 -21 22 -20 31
-23 42 -14 11 9 14 8 14 -5 0 -12 -7 -16 -22 -14 -19 2 -23 -2 -23 -26 0 -28
-28 -51 -47 -39 -13 7 -9 -12 5 -26 10 -11 10 -13 0 -7 -7 4 -13 2 -13 -4 0
-7 -14 0 -31 14 -17 14 -41 26 -54 26 -19 0 -23 5 -20 20 5 26 40 71 49 63 4
-4 9 3 13 15 3 12 10 22 15 22 6 0 8 7 4 15 -3 8 -2 15 3 15 5 0 12 12 16 28
l7 27 9 -24 c7 -17 5 -28 -6 -41z m355 45 c-14 -17 -40 -20 -40 -5 0 5 7 7 15
4 8 -4 15 -1 15 5 0 6 5 11 11 11 8 0 8 -5 -1 -15z m270 -15 c-14 -4 -34 -8
-45 -8 l-20 -1 20 9 c11 5 31 8 45 8 l25 0 -25 -8z m1150 0 c0 -5 -2 -10 -4
-10 -3 0 -8 5 -11 10 -3 6 -1 10 4 10 6 0 11 -4 11 -10z m-1730 -20 c0 -5 -2
-10 -4 -10 -3 0 -8 5 -11 10 -3 6 -1 10 4 10 6 0 11 -4 11 -10z m310 -13 c0 5
7 10 17 10 13 0 11 -4 -7 -19 -22 -17 -46 -16 -35 3 4 5 1 9 -4 9 -6 0 -11 5
-11 12 0 6 9 3 20 -7 11 -10 20 -14 20 -8z m-487 -7 c-5 -19 -23 -39 -23 -25
0 9 20 45 24 45 2 0 2 -9 -1 -20z m782 10 c3 -5 -1 -10 -9 -10 -8 0 -18 5 -21
10 -3 6 1 10 9 10 8 0 18 -4 21 -10z m-233 -32 c-7 -7 -12 -8 -12 -2 0 14 12
26 19 19 2 -3 -1 -11 -7 -17z m1928 12 c0 -5 -5 -10 -11 -10 -5 0 -7 5 -4 10
3 6 8 10 11 10 2 0 4 -4 4 -10z m-1696 -15 c4 -11 21 -15 61 -15 33 0 55 -4
55 -11 0 -7 -21 -8 -66 -4 -51 6 -68 4 -76 -6 -7 -11 -11 -11 -15 -1 -7 17
-23 15 -23 -3 0 -8 -15 -22 -32 -31 -18 -9 -70 -41 -114 -70 -45 -30 -89 -57
-98 -60 -23 -9 -20 19 5 42 17 16 22 16 31 4 8 -12 9 -12 4 2 -3 10 -1 20 5
24 5 3 7 14 4 25 -7 22 -2 24 25 7 18 -11 18 -14 3 -30 -9 -11 -11 -18 -5 -18
6 0 19 14 27 30 9 17 20 28 26 25 5 -4 8 -2 7 3 -4 13 54 60 85 67 14 4 31 13
38 21 15 18 45 18 53 -1z m-507 -11 c-3 -3 -12 -4 -19 -1 -8 3 -5 6 6 6 11 1
17 -2 13 -5z m280 -30 c-2 -3 -15 -7 -28 -9 l-24 -4 25 19 c14 10 27 14 29 9
1 -6 1 -12 -2 -15z m467 17 c13 -5 16 -10 8 -15 -11 -6 -52 9 -52 19 0 7 22 5
44 -4z m1366 -15 c0 -2 3 -11 6 -19 6 -17 -19 -18 -33 -2 -4 4 -1 5 7 1 8 -4
6 0 -4 8 -19 16 -19 16 2 16 12 0 22 -2 22 -4z m200 -16 c0 -5 -7 -7 -15 -4
-8 4 -15 8 -15 10 0 2 7 4 15 4 8 0 15 -4 15 -10z m-531 -26 c-6 -8 -18 -14
-25 -14 -11 0 -10 5 4 18 19 21 39 18 21 -4z m168 14 c0 -7 4 -21 8 -30 10
-25 -7 -22 -29 3 -15 18 -15 23 -5 30 19 12 26 11 26 -3z m-1993 -14 c3 -8 2
-12 -4 -9 -6 3 -10 10 -10 16 0 14 7 11 14 -7z m1773 -16 c-3 -8 -6 -5 -6 6
-1 11 2 17 5 13 3 -3 4 -12 1 -19z m-20 -10 c-3 -8 -6 -5 -6 6 -1 11 2 17 5
13 3 -3 4 -12 1 -19z m-1927 -21 c0 -5 4 -6 9 -3 12 8 44 -31 36 -44 -5 -8
-14 -5 -30 10 -26 25 -50 19 -36 -8 5 -9 12 -25 15 -35 3 -10 10 -15 16 -12 5
3 10 -3 10 -15 0 -14 4 -19 13 -14 9 5 9 4 1 -5 -9 -9 -19 -7 -48 10 -29 17
-35 18 -30 5 4 -11 1 -16 -11 -16 -16 0 -17 7 -12 59 3 33 8 64 11 69 7 12 56
11 56 -1z m1060 -17 c0 -5 -7 -10 -15 -10 -8 0 -15 5 -15 10 0 6 7 10 15 10 8
0 15 -4 15 -10z m1135 0 c3 -5 1 -10 -4 -10 -6 0 -11 5 -11 10 0 6 2 10 4 10
3 0 8 -4 11 -10z m-1412 -7 c-7 -2 -21 -2 -30 0 -10 3 -4 5 12 5 17 0 24 -2
18 -5z m212 -14 c5 -5 -3 -9 -20 -9 -39 0 -75 10 -75 20 0 10 82 0 95 -11z
m1028 -49 c3 -12 14 -21 29 -21 22 -2 22 -2 1 -6 -23 -4 -66 25 -57 39 9 14
21 9 27 -12z m-1465 -39 c-7 -12 -20 -21 -28 -21 -13 0 -13 -2 -1 -9 10 -6 2
-9 -23 -8 -29 1 -33 3 -19 11 10 5 20 12 23 16 9 12 54 40 58 36 2 -2 -3 -13
-10 -25z m-128 2 c0 -10 -42 -53 -52 -53 -13 0 -9 18 9 40 17 19 43 27 43 13z
m180 -12 c0 -6 -4 -13 -10 -16 -5 -3 -10 1 -10 9 0 9 5 16 10 16 6 0 10 -4 10
-9z m-636 -36 c5 -14 -5 -19 -31 -16 -7 1 -13 -3 -13 -9 0 -6 -4 -8 -10 -5
-17 10 -11 25 13 35 31 12 34 12 41 -5z m1871 4 c12 -19 -5 -23 -22 -6 -16 16
-16 17 -1 17 9 0 20 -5 23 -11z m437 -13 c9 0 14 -4 11 -9 -3 -4 -17 -5 -33
-2 -20 4 -29 2 -34 -10 -7 -20 11 -58 24 -50 13 8 50 -31 50 -52 -1 -13 -5
-10 -16 10 -8 15 -20 27 -28 27 -7 0 -22 10 -34 23 -16 17 -35 24 -69 26 -57
3 -71 11 -20 11 20 0 51 9 69 20 18 11 40 17 48 14 8 -4 23 -7 32 -8z m-2180
-28 c-7 -7 -12 -8 -12 -2 0 14 12 26 19 19 2 -3 -1 -11 -7 -17z m-62 -12 c0
-7 -7 -19 -15 -26 -8 -7 -12 -16 -9 -21 3 -5 2 -9 -3 -8 -4 1 -24 -5 -43 -14
-40 -17 -55 -12 -26 9 19 13 19 14 -7 14 -25 0 -26 2 -15 25 6 14 14 22 17 18
3 -4 15 -8 26 -8 13 0 20 -6 19 -17 -2 -23 8 -23 29 2 9 11 12 20 7 20 -6 0
-10 5 -10 10 0 6 7 10 15 10 8 0 15 -6 15 -14z m3280 -1 c-7 -8 -17 -15 -23
-15 -6 0 -2 7 9 15 25 19 30 19 14 0z m-2875 -5 c3 -5 1 -10 -4 -10 -6 0 -11
5 -11 10 0 6 2 10 4 10 3 0 8 -4 11 -10z m2833 -44 c-24 -23 -39 -26 -20 -3 7
8 10 16 7 18 -2 3 5 6 16 6 20 2 20 1 -3 -21z m-1281 -2 c-3 -3 -12 -4 -19 -1
-8 3 -5 6 6 6 11 1 17 -2 13 -5z m343 -10 c0 -8 -4 -12 -10 -9 -5 3 -10 10
-10 16 0 5 5 9 10 9 6 0 10 -7 10 -16z m-2585 -33 c-3 -6 -11 -11 -16 -11 -5
0 -4 6 3 14 14 16 24 13 13 -3z m285 15 c0 -3 -4 -8 -10 -11 -5 -3 -10 -1 -10
4 0 6 5 11 10 11 6 0 10 -2 10 -4z m397 -18 c-3 -8 -6 -5 -6 6 -1 11 2 17 5
13 3 -3 4 -12 1 -19z m1828 12 c3 -5 2 -10 -4 -10 -5 0 -13 5 -16 10 -3 6 -2
10 4 10 5 0 13 -4 16 -10z m-239 -33 c4 -4 -2 -7 -14 -7 -12 0 -22 4 -22 9 0
10 26 9 36 -2z m-679 -53 c-3 -3 -12 -4 -19 -1 -8 3 -5 6 6 6 11 1 17 -2 13
-5z m1150 -46 c-3 -8 -6 -5 -6 6 -1 11 2 17 5 13 3 -3 4 -12 1 -19z m-2292 -7
c3 -5 2 -12 -3 -15 -5 -3 -9 1 -9 9 0 17 3 19 12 6z m190 -11 c3 -5 -1 -10
-10 -10 -9 0 -13 5 -10 10 3 6 8 10 10 10 2 0 7 -4 10 -10z m2120 -10 c-3 -5
-12 -10 -18 -10 -7 0 -6 4 3 10 19 12 23 12 15 0z m-362 -17 c-7 -2 -19 -2
-25 0 -7 3 -2 5 12 5 14 0 19 -2 13 -5z m377 -19 c0 -2 -12 -4 -26 -4 -14 0
-23 4 -20 9 6 8 46 4 46 -5z m360 1 c0 -12 -19 -12 -23 0 -4 9 -1 12 9 8 7 -3
14 -7 14 -8z m-650 -5 c0 -5 -4 -10 -10 -10 -5 0 -10 5 -10 10 0 6 5 10 10 10
6 0 10 -4 10 -10z m-243 -32 c-3 -8 -6 -5 -6 6 -1 11 2 17 5 13 3 -3 4 -12 1
-19z m740 0 c-3 -8 -6 -5 -6 6 -1 11 2 17 5 13 3 -3 4 -12 1 -19z m123 12 c0
-5 -8 -10 -17 -10 -15 0 -16 2 -3 10 19 12 20 12 20 0z m-2647 -40 c3 -11 1
-18 -4 -14 -5 3 -9 12 -9 20 0 20 7 17 13 -6z m328 -23 c-8 -8 -11 -7 -11 4 0
20 13 34 18 19 3 -7 -1 -17 -7 -23z m1499 -13 c0 -3 -6 -4 -14 -1 -9 4 -17 -1
-19 -11 -3 -9 -5 0 -6 21 l-1 37 20 -20 c11 -11 20 -23 20 -26z m180 36 c0 -5
-2 -10 -4 -10 -3 0 -8 5 -11 10 -3 6 -1 10 4 10 6 0 11 -4 11 -10z m-129 -53
c-16 -16 -26 0 -10 19 9 11 15 12 17 4 2 -6 -1 -17 -7 -23z m382 12 c4 -16 3
-18 -9 -8 -16 13 -19 29 -5 29 5 0 11 -9 14 -21z m197 -4 c4 3 10 -9 12 -25 4
-29 3 -29 -16 -16 -12 7 -20 16 -18 20 1 3 3 16 3 29 1 17 2 18 6 4 2 -9 8
-15 13 -12z m-424 1 c10 -8 15 -18 11 -22 -4 -4 -17 2 -29 14 -25 25 -13 30
18 8z m174 4 c0 -5 -5 -10 -11 -10 -5 0 -7 5 -4 10 3 6 8 10 11 10 2 0 4 -4 4
-10z m120 0 c0 -5 -6 -10 -14 -10 -8 0 -18 5 -21 10 -3 6 3 10 14 10 12 0 21
-4 21 -10z m-1783 -62 c-2 -13 -4 -3 -4 22 0 25 2 35 4 23 2 -13 2 -33 0 -45z
m-597 27 c0 -8 -4 -15 -10 -15 -5 0 -7 7 -4 15 4 8 8 15 10 15 2 0 4 -7 4 -15z
m1925 -44 c-7 -35 -25 -42 -25 -10 0 13 4 18 12 13 7 -5 9 -2 5 8 -3 9 -3 19
0 22 12 11 15 -3 8 -33z m-2005 9 c0 -5 -5 -10 -11 -10 -5 0 -7 5 -4 10 3 6 8
10 11 10 2 0 4 -4 4 -10z m1965 -30 c-4 -12 -9 -19 -12 -17 -3 3 -2 15 2 27 4
12 9 19 12 17 3 -3 2 -15 -2 -27z m-188 4 c-3 -3 -12 -4 -19 -1 -8 3 -5 6 6 6
11 1 17 -2 13 -5z m-1990 -26 c-3 -8 -6 -5 -6 6 -1 11 2 17 5 13 3 -3 4 -12 1
-19z m2140 -15 c-3 -10 -5 -4 -5 12 0 17 2 24 5 18 2 -7 2 -21 0 -30z m-2144
-19 c-8 -21 -23 -17 -23 6 0 13 5 18 14 14 8 -3 12 -12 9 -20z m2462 -15 c9
-14 7 -15 -40 -23 l-40 -7 30 20 c36 23 42 24 50 10z m205 4 c31 -5 32 -7 12
-14 -12 -5 -46 -4 -74 1 -29 6 -71 8 -93 5 -29 -3 -35 -2 -20 5 22 10 121 12
175 3z m65 -3 c3 -5 -1 -10 -10 -10 -9 0 -13 5 -10 10 3 6 8 10 10 10 2 0 7
-4 10 -10z m-255 -34 c0 -3 -4 -8 -10 -11 -5 -3 -10 -1 -10 4 0 6 5 11 10 11
6 0 10 -2 10 -4z m60 -61 c-14 -17 -30 -20 -30 -6 0 5 8 12 18 14 9 3 19 5 21
6 2 0 -2 -6 -9 -14z m62 -22 c0 -10 1 -25 2 -33 1 -8 12 -17 26 -18 61 -9 31
-17 -60 -17 -55 0 -100 4 -100 8 0 5 5 5 10 2 6 -3 10 -2 10 4 0 5 9 13 20 16
11 3 20 11 20 16 0 14 -28 11 -33 -3 -3 -10 -9 -9 -22 3 -15 15 -13 16 37 18
29 0 54 5 56 11 6 17 32 11 34 -7z m-217 -2 c3 -6 -3 -15 -12 -21 -15 -9 -13
-10 12 -8 28 3 30 1 30 -35 0 -42 1 -43 29 -19 21 17 21 17 2 -5 -18 -22 -56
-32 -56 -15 0 5 -15 7 -32 5 l-33 -4 28 16 c15 9 27 20 27 24 0 15 -32 22 -45
11 -9 -7 -19 -5 -36 9 -17 14 -29 17 -41 10 -12 -6 -18 -6 -18 0 0 15 42 25
50 11 6 -9 9 -9 15 0 14 23 69 37 80 21z m-2398 -47 c-3 -3 -12 -4 -19 -1 -8
3 -5 6 6 6 11 1 17 -2 13 -5z m2378 -14 c3 -5 -1 -10 -9 -10 -9 0 -16 5 -16
10 0 6 4 10 9 10 6 0 13 -4 16 -10z m-2385 -11 c0 -6 -7 -9 -15 -5 -8 3 -15 2
-16 -2 -4 -40 -12 -69 -20 -77 -11 -11 -1 50 13 78 10 19 38 24 38 6z m480
-21 c0 -7 -13 -22 -27 -32 -24 -18 -26 -18 -20 -2 4 10 7 24 7 32 0 8 9 14 20
14 11 0 20 -6 20 -12z m1747 -24 c-15 -8 -32 -12 -37 -9 -5 3 -7 0 -4 -8 3 -8
0 -18 -6 -22 -20 -12 -23 4 -6 30 12 18 25 25 49 25 l32 -1 -28 -15z m-1612
-44 c-3 -5 -11 -10 -16 -10 -6 0 -7 5 -4 10 3 6 11 10 16 10 6 0 7 -4 4 -10z
m1735 -30 c0 -24 -13 -26 -31 -3 -10 11 -10 14 -1 9 6 -4 12 -2 12 3 0 6 5 11
10 11 6 0 10 -9 10 -20z m26 -24 c-10 -16 -25 -25 -39 -25 l-22 2 22 4 c21 4
40 36 34 58 -1 6 3 5 10 -2 9 -9 8 -17 -5 -37z m-206 24 c0 -5 -5 -10 -11 -10
-5 0 -7 5 -4 10 3 6 8 10 11 10 2 0 4 -4 4 -10z m122 -52 c-4 -4 -23 -3 -42 2
l-35 8 42 -1 c23 -1 39 -5 35 -9z m392 -89 c-21 -24 -29 -18 -14 10 6 12 16
19 21 15 6 -4 4 -13 -7 -25z m-478 -16 c-4 -9 -1 -20 6 -25 10 -7 9 -9 -2 -5
-8 2 -15 10 -15 18 0 8 -9 17 -20 21 -16 5 -15 6 9 7 22 1 27 -2 22 -16z m94
3 c0 -2 -7 -7 -16 -10 -8 -3 -12 -2 -9 4 6 10 25 14 25 6z m-2291 -58 c1 -5
-3 -8 -7 -8 -4 0 -8 12 -9 28 -1 23 -1 24 7 7 5 -11 9 -23 9 -27z m2111 6 c0
-8 -4 -12 -10 -9 -5 3 -10 10 -10 16 0 5 5 9 10 9 6 0 10 -7 10 -16z m130 -24
c-28 -22 -50 -26 -50 -9 0 5 -4 8 -9 4 -5 -3 -12 -1 -15 4 -4 6 9 8 29 6 19
-2 38 1 41 6 3 5 11 9 17 9 7 0 1 -9 -13 -20z m85 -1 c-4 -5 4 -5 19 1 14 5
26 6 26 1 0 -14 -28 -33 -39 -27 -5 4 -13 1 -17 -5 -5 -8 -3 -9 7 -4 10 5 11
5 4 -2 -5 -6 -21 -14 -33 -18 l-24 -7 23 40 c13 22 27 38 31 36 5 -3 6 -10 3
-15z m-1871 -50 c-8 -13 -24 -1 -24 18 0 13 3 13 15 3 8 -7 12 -16 9 -21z
m2283 11 c2 -19 -42 -58 -53 -48 -4 4 43 68 50 68 1 0 2 -9 3 -20z m-2120 -22
c-3 -8 -6 -5 -6 6 -1 11 2 17 5 13 3 -3 4 -12 1 -19z m1640 6 c-3 -3 -12 -4
-19 -1 -8 3 -5 6 6 6 11 1 17 -2 13 -5z m-4 -36 c-24 -23 -40 -20 -30 7 4 8
17 15 29 15 l22 0 -21 -22z m-76 6 c13 -4 20 -10 17 -15 -3 -5 -13 -5 -23 1
-10 5 -21 6 -25 3 -3 -3 -6 -1 -6 5 0 13 5 14 37 6z m-18 -29 c24 -7 24 -7
-14 -42 -24 -22 -45 -33 -56 -30 -11 3 -17 1 -13 -4 3 -5 -2 -6 -10 -3 -23 9
-20 28 6 39 24 11 39 41 17 33 -8 -3 -13 -11 -11 -17 1 -7 -2 -10 -8 -6 -17
10 10 37 32 32 12 -4 18 0 18 11 0 11 3 13 8 6 4 -6 18 -15 31 -19z m-119 5
c0 -5 -5 -10 -11 -10 -5 0 -7 5 -4 10 3 6 8 10 11 10 2 0 4 -4 4 -10z m257
-16 c-3 -3 -12 -4 -19 -1 -8 3 -5 6 6 6 11 1 17 -2 13 -5z m-253 -16 c-3 -4
-12 -8 -20 -8 -8 0 -14 4 -14 8 0 4 9 8 19 8 11 0 17 -4 15 -8z m303 -25 c-3
-10 -5 -4 -5 12 0 17 2 24 5 18 2 -7 2 -21 0 -30z m-350 -2 c-4 -15 5 -23 39
-37 33 -13 44 -23 43 -39 -1 -15 -2 -16 -6 -3 -5 19 -30 31 -38 18 -4 -6 -20
-10 -37 -10 -23 0 -29 4 -24 15 3 8 0 15 -6 15 -6 0 -4 8 5 18 10 10 17 24 17
30 0 7 3 12 6 12 4 0 4 -9 1 -19z m178 -30 c-6 -5 -25 10 -25 20 0 5 6 4 14
-3 8 -7 12 -15 11 -17z m89 -10 c3 -4 0 -16 -7 -25 -12 -16 -13 -15 -13 8 0
26 10 34 20 17z m-423 -27 c-19 -8 -36 -12 -39 -9 -6 6 37 24 58 24 8 0 0 -6
-19 -15z m166 -30 c14 -4 20 -11 16 -21 -5 -14 -8 -14 -17 -1 -6 8 -18 17 -26
21 -20 7 -1 8 27 1z m298 -4 c-3 -5 -11 -10 -16 -10 -6 0 -7 5 -4 10 3 6 11
10 16 10 6 0 7 -4 4 -10z m-395 -20 c0 -5 -10 -10 -22 -10 -19 0 -20 2 -8 10
19 13 30 13 30 0z m74 -2 c-2 -4 -18 -6 -35 -6 -17 1 -26 4 -21 7 14 8 61 8
56 -1z m-1457 -23 c-4 -8 -17 -15 -29 -15 l-23 1 24 20 c26 21 37 19 28 -6z
m1338 -6 c-4 -5 -1 -9 4 -9 6 0 11 5 11 10 0 6 5 10 10 10 6 0 10 -6 10 -14 0
-8 15 -17 36 -21 20 -3 34 -8 31 -11 -6 -6 -110 16 -121 26 -11 11 2 32 15 24
5 -3 7 -10 4 -15z m-1408 -15 c-3 -3 -12 -4 -19 -1 -8 3 -5 6 6 6 11 1 17 -2
13 -5z m-125 -114 c18 0 19 -2 7 -16 -11 -14 -11 -18 4 -29 9 -7 17 -17 17
-23 0 -23 -51 37 -55 65 -2 15 -2 22 1 16 3 -7 15 -13 26 -13z m73 -70 c3 -6
-1 -7 -9 -4 -18 7 -21 14 -7 14 6 0 13 -4 16 -10z m-120 -62 c-12 -41 -21 -54
-36 -54 -11 0 -18 5 -15 11 35 89 39 96 47 83 7 -10 9 -8 9 6 0 11 3 17 6 13
3 -3 -1 -30 -11 -59z m42 46 c-3 -4 -2 -15 4 -25 7 -14 5 -31 -11 -65 -24 -56
-25 -60 -5 -44 11 10 19 10 27 2 11 -11 32 -7 59 12 8 6 -1 -4 -20 -23 -24
-22 -29 -31 -16 -27 11 5 25 9 30 10 21 4 65 39 59 47 -3 5 -3 9 0 9 3 0 7 -4
10 -9 4 -5 -13 -23 -36 -40 -45 -33 -29 -45 20 -14 26 17 27 17 12 -2 -14 -17
-13 -18 3 -12 11 4 17 1 17 -9 0 -12 -9 -14 -47 -10 -27 2 -48 5 -48 6 0 0
-29 3 -64 5 -37 2 -67 9 -72 16 -9 16 -1 32 12 23 5 -3 6 -11 2 -17 -5 -8 -2
-8 9 0 8 7 18 10 21 6 4 -3 7 -1 7 5 0 6 -6 17 -13 24 -12 10 -11 21 5 68 22
61 26 70 35 70 4 0 3 -3 0 -6z m60 -19 c-4 -8 -2 -17 3 -20 19 -12 10 -52 -17
-76 l-26 -24 22 31 c13 17 21 40 18 50 -4 17 -6 17 -12 -3 -7 -23 -25 -32 -25
-13 0 15 29 70 36 70 4 0 4 -7 1 -15z m100 -9 c0 -7 -5 -13 -12 -13 -6 0 -11
8 -11 18 0 9 5 15 11 12 7 -2 12 -10 12 -17z m63 4 c0 -5 -4 -10 -10 -10 -5 0
-10 5 -10 10 0 6 5 10 10 10 6 0 10 -4 10 -10z m354 -18 c-11 -10 -27 -19 -36
-19 -25 0 -4 35 24 39 32 5 35 1 12 -20z m-99 -12 c-20 -22 -31 -20 -22 5 4 8
14 15 23 15 16 0 16 -2 -1 -20z m-280 -10 c3 -5 -1 -10 -10 -10 -9 0 -13 5
-10 10 3 6 8 10 10 10 2 0 7 -4 10 -10z m42 -25 c-6 -20 -14 -32 -19 -27 -8 8
12 62 24 62 3 0 1 -16 -5 -35z m113 -4 c0 -11 -4 -22 -9 -25 -5 -3 -8 6 -8 19
0 14 3 25 8 25 5 0 9 -9 9 -19z m1537 -13 c-3 -7 -5 -2 -5 12 0 14 2 19 5 13
2 -7 2 -19 0 -25z m-445 -14 c-4 -23 -6 -24 -15 -9 -8 14 2 32 19 35 1 0 -1
-12 -4 -26z m-1009 -4 c-6 -22 -23 -38 -23 -21 0 17 12 41 20 41 5 0 6 -9 3
-20z m-641 2 c-9 -6 -5 -12 14 -21 15 -6 24 -14 21 -17 -3 -3 -16 2 -30 11
-26 17 -47 17 -59 0 -5 -6 -8 -5 -8 3 0 13 33 30 60 31 11 1 12 -1 2 -7z m105
-24 c-3 -7 -5 -2 -5 12 0 14 2 19 5 13 2 -7 2 -19 0 -25z m293 11 c0 -7 9 -9
21 -6 16 4 20 1 17 -16 -2 -12 -11 -23 -20 -25 -13 -3 -16 1 -12 13 5 11 0 18
-15 22 -11 3 -18 9 -15 14 7 13 24 11 24 -2z m287 5 c-3 -3 -12 -4 -19 -1 -8
3 -5 6 6 6 11 1 17 -2 13 -5z m-691 -39 c13 -13 13 -15 1 -15 -8 0 -17 7 -21
15 -3 8 -3 15 0 15 3 0 12 -7 20 -15z m1622 -49 c-7 -8 -16 -12 -20 -10 -3 2
-8 -2 -11 -8 -2 -7 -8 -9 -13 -5 -10 10 22 37 43 37 11 0 11 -3 1 -14z m-1698
-62 c0 -8 -4 -12 -10 -9 -5 3 -10 13 -10 21 0 8 5 12 10 9 6 -3 10 -13 10 -21z
m1372 9 c-6 -2 -10 -9 -6 -14 3 -5 0 -9 -5 -9 -6 0 -11 7 -11 15 0 8 8 15 18
14 10 0 12 -3 4 -6z m38 -23 c8 -5 12 -11 9 -14 -3 -3 -14 1 -25 9 -21 16 -8
20 16 5z m426 -34 c-9 -14 -16 -32 -16 -41 0 -9 -5 -13 -10 -10 -6 4 -7 11 -4
17 4 7 2 8 -5 4 -6 -4 -9 -12 -6 -17 7 -11 -5 -12 -22 -1 -18 11 9 53 43 67
37 15 41 12 20 -19z m139 -26 c3 -5 2 -17 -3 -26 -8 -14 -10 -12 -14 10 -5 26
5 35 17 16z m-618 -22 c-3 -8 -6 -5 -6 6 -1 11 2 17 5 13 3 -3 4 -12 1 -19z
m583 13 c0 -6 -4 -13 -10 -16 -15 -9 -12 -25 5 -25 8 0 15 -4 15 -10 0 -5 -9
-10 -20 -10 -11 0 -20 -4 -20 -9 0 -5 -6 -11 -14 -14 -18 -7 -14 18 8 62 16
29 36 42 36 22z m-330 -15 c0 -11 -19 -15 -25 -6 -3 5 1 10 9 10 9 0 16 -2 16
-4z m-1260 -21 c15 -18 7 -19 -22 -4 -16 9 -23 8 -29 -2 -7 -11 -9 -10 -9 4 0
22 42 23 60 2z m480 -4 c0 -5 -8 -11 -18 -13 -10 -3 -19 0 -19 6 0 7 9 13 19
13 10 1 18 -2 18 -6z m517 -23 c-3 -7 -5 -2 -5 12 0 14 2 19 5 13 2 -7 2 -19
0 -25z m-597 18 c0 -3 -4 -8 -10 -11 -5 -3 -10 -1 -10 4 0 6 5 11 10 11 6 0
10 -2 10 -4z m-40 -16 c0 -13 -11 -13 -30 0 -12 8 -11 10 8 10 12 0 22 -4 22
-10z m856 -17 c-10 -10 -19 5 -10 18 6 11 8 11 12 0 2 -7 1 -15 -2 -18z
m-1236 -13 c9 -17 8 -20 -10 -20 -13 0 -20 7 -20 20 0 11 4 20 10 20 5 0 14
-9 20 -20z m1406 -1 c3 -6 2 -14 -3 -18 -6 -3 -13 -16 -17 -28 -8 -24 -21 -30
-30 -14 -3 4 3 19 14 31 11 12 17 27 14 31 -3 5 -1 9 5 9 5 0 13 -5 17 -11z
m-966 -7 c0 -5 -13 -9 -30 -10 -16 0 -30 4 -30 9 0 5 14 9 30 9 17 0 30 -4 30
-8z m1266 -45 c8 3 14 1 14 -5 0 -15 -30 -23 -48 -12 -10 5 -12 10 -4 10 6 0
11 3 11 8 -3 17 4 26 8 10 2 -10 10 -15 19 -11z m-350 -53 c-3 -9 -6 -20 -6
-25 0 -5 -7 -9 -15 -9 -18 0 -19 16 -2 35 16 19 31 19 23 -1z m-49 -30 c-3 -3
-12 -4 -19 -1 -8 3 -5 6 6 6 11 1 17 -2 13 -5z m141 -92 c10 8 13 8 9 1 -4 -6
-1 -13 5 -16 7 -2 9 -8 5 -13 -10 -11 -42 9 -43 27 -1 10 0 11 3 1 4 -11 8
-11 21 0z m660 -23 c-7 -4 -18 -3 -26 3 -10 9 -10 13 0 19 7 4 18 3 26 -3 10
-9 10 -13 0 -19z m-1600 -36 c-9 -2 -18 -14 -20 -26 -3 -20 -4 -19 -9 6 -6 24
-4 27 20 26 16 -1 19 -3 9 -6z m-55 -50 c-7 -2 -19 -2 -25 0 -7 3 -2 5 12 5
14 0 19 -2 13 -5z m34 -209 c-3 -3 -12 -4 -19 -1 -8 3 -5 6 6 6 11 1 17 -2 13
-5z m113 -3 c0 -5 8 -7 18 -4 15 3 18 -2 18 -31 0 -27 -4 -34 -18 -33 -21 1
-24 13 -5 21 6 3 -3 4 -21 3 -18 -2 -35 0 -38 5 -3 4 2 8 10 8 8 0 17 4 20 9
4 5 -5 8 -19 6 -31 -3 -32 3 -2 15 29 12 37 12 37 1z m-115 -21 c3 -5 2 -10
-4 -10 -5 0 -13 5 -16 10 -3 6 -2 10 4 10 5 0 13 -4 16 -10z m53 -28 c13 -7
27 -10 32 -7 5 3 11 2 14 -3 3 -5 -15 -9 -39 -11 -25 -1 -46 3 -51 10 -5 9 -2
10 12 5 15 -6 17 -5 7 5 -7 7 -13 18 -13 24 0 6 3 7 8 0 4 -5 17 -16 30 -23z
m129 -2 c-1 -11 -5 -20 -9 -20 -3 0 -6 9 -5 20 1 11 5 20 9 20 3 0 6 -9 5 -20z
m-917 -172 c0 -5 -7 -8 -15 -8 -15 0 -20 21 -8 33 7 7 23 -11 23 -25z m875 -8
c-3 -5 -2 -10 4 -10 5 0 12 6 14 13 4 7 6 6 6 -4 1 -9 8 -22 16 -29 17 -14 21
-35 5 -25 -5 3 -10 1 -10 -5 0 -7 -5 -6 -14 2 -11 10 -11 16 -3 27 10 11 8 13
-10 7 -12 -4 -24 -2 -28 4 -7 12 2 30 16 30 6 0 7 -4 4 -10z m-2474 -7 c-11
-5 -11 -7 0 -14 11 -7 10 -9 -3 -9 -18 0 -23 11 -11 23 3 4 11 7 17 6 6 0 5
-3 -3 -6z m1476 -35 c-3 -8 -6 -5 -6 6 -1 11 2 17 5 13 3 -3 4 -12 1 -19z
m-67 -21 c0 -7 -15 -36 -34 -65 -27 -45 -34 -51 -45 -38 -10 11 -8 18 10 35
14 13 19 26 15 38 -5 12 0 23 16 34 23 18 38 16 38 -4z m1217 1 c-3 -8 -6 -5
-6 6 -1 11 2 17 5 13 3 -3 4 -12 1 -19z m-57 2 c0 -5 -2 -10 -4 -10 -3 0 -8 5
-11 10 -3 6 -1 10 4 10 6 0 11 -4 11 -10z m253 -16 c9 -4 17 -13 17 -20 0 -8
10 -19 23 -24 21 -8 21 -9 1 -9 -11 -1 -35 12 -52 27 -32 29 -42 49 -19 38 6
-3 20 -9 30 -12z m287 1 c0 -8 -8 -15 -19 -15 -10 0 -24 7 -31 15 -11 13 -8
15 19 15 21 0 31 -5 31 -15z m-572 -23 c6 -18 -15 -14 -22 4 -4 10 -1 14 6 12
6 -2 14 -10 16 -16z m42 4 c0 -8 -4 -17 -9 -20 -10 -7 -23 19 -14 28 11 11 23
6 23 -8z m-1000 -22 c0 -8 5 -12 10 -9 6 3 10 1 10 -5 0 -18 -34 -7 -38 13 -2
9 1 17 7 17 6 0 11 -7 11 -16z m-1907 -74 c-8 -17 -19 -28 -24 -24 -5 3 -8 8
-6 12 2 4 7 15 10 25 4 9 13 17 21 17 13 0 12 -4 -1 -30z m3017 -56 c0 -1 -12
1 -27 5 -16 4 -30 15 -31 25 -3 16 0 15 27 -5 17 -12 31 -24 31 -25z m205 -14
c3 -5 -3 -10 -14 -10 -12 0 -21 5 -21 10 0 6 6 10 14 10 8 0 18 -4 21 -10z
m-165 -30 c0 -5 -5 -10 -11 -10 -5 0 -7 5 -4 10 3 6 8 10 11 10 2 0 4 -4 4
-10z m-1265 -53 c6 0 18 -8 28 -18 16 -15 16 -17 3 -15 -9 1 -22 8 -28 14 -7
7 -19 12 -27 12 -9 0 -23 5 -31 11 -11 8 -8 9 15 4 17 -4 35 -8 40 -8z m1365
-72 c-6 -15 -13 -25 -17 -22 -3 4 0 21 8 38 16 39 24 24 9 -16z m47 13 c-3 -8
-6 -5 -6 6 -1 11 2 17 5 13 3 -3 4 -12 1 -19z m383 -18 c-30 -5 -82 -8 -115
-7 l-60 0 60 7 c33 4 85 7 115 7 l55 0 -55 -7z m128 3 c-10 -2 -26 -2 -35 0
-10 3 -2 5 17 5 19 0 27 -2 18 -5z m-1674 -39 c17 -6 22 -24 8 -24 -5 0 -17 7
-28 15 -19 15 -8 20 20 9z m1163 -16 c-3 -8 -6 -5 -6 6 -1 11 2 17 5 13 3 -3
4 -12 1 -19z m-1375 -40 c-7 -24 -11 -29 -16 -17 -4 8 -2 29 5 45 15 37 23 16
11 -28z m1303 -18 c-3 -5 -11 -10 -16 -10 -6 0 -7 5 -4 10 3 6 11 10 16 10 6
0 7 -4 4 -10z m-1215 -399 c0 -10 -30 -24 -37 -17 -3 3 -2 9 2 15 8 13 35 15
35 2z m-107 -348 c-7 -2 -21 -2 -30 0 -10 3 -4 5 12 5 17 0 24 -2 18 -5z m132
-28 l30 -14 -30 6 c-16 3 -39 10 -50 14 l-20 8 20 0 c11 0 34 -6 50 -14z
m2190 -164 c-11 -10 -112 -25 -102 -15 7 7 64 22 92 23 11 1 15 -3 10 -8z
m128 2 c-13 -2 -33 -2 -45 0 -13 2 -3 4 22 4 25 0 35 -2 23 -4z m-2458 -213
c4 -6 -6 -10 -22 -10 -22 0 -25 2 -13 10 19 12 27 12 35 0z m800 -600 c-4 -12
-9 -19 -12 -17 -3 3 -2 15 2 27 4 12 9 19 12 17 3 -3 2 -15 -2 -27z m840 -70
c3 -5 -3 -10 -14 -10 -12 0 -21 5 -21 10 0 6 6 10 14 10 8 0 18 -4 21 -10z
m-133 -108 c4 -44 4 -44 -14 -22 -18 22 -24 61 -11 74 12 11 21 -8 25 -52z
m168 28 c-8 -5 -19 -10 -25 -10 -5 0 -3 5 5 10 8 5 20 10 25 10 6 0 3 -5 -5
-10z m1705 -90 c-3 -6 -42 -9 -88 -8 l-82 1 60 7 c97 11 117 11 110 0z m210
-7 c93 -7 77 -21 -25 -22 -49 -1 -61 2 -50 10 11 8 -1 9 -45 5 -36 -3 -52 -2
-40 3 19 8 18 9 -5 14 -24 4 -4 3 165 -10z m119 -33 c-14 -14 -249 -24 -329
-14 -65 8 -58 9 100 14 94 3 186 7 205 8 22 1 31 -1 24 -8z m-401 -27 c-13 -2
-35 -2 -50 0 -16 2 -5 4 22 4 28 0 40 -2 28 -4z m527 -15 c0 -5 -30 -8 -67 -8
-104 0 -64 -14 60 -20 98 -6 86 -7 -103 -9 -140 -2 -206 -6 -190 -12 17 -6 2
-7 -45 -4 -38 3 -125 8 -192 12 -68 3 -123 10 -123 15 0 4 44 9 98 10 151 4
165 3 192 -6 22 -8 23 -7 8 7 -8 9 -30 18 -49 20 -19 3 66 4 188 4 123 -1 223
-5 223 -9z m112 -55 c55 -3 86 -9 82 -15 -4 -6 -38 -8 -91 -3 -61 5 -83 4 -79
-4 4 -6 35 -12 69 -13 61 -2 61 -2 -18 -7 -49 -4 -113 -1 -165 8 -56 9 -96 11
-115 5 -26 -7 -21 -9 40 -14 39 -4 59 -8 45 -9 -24 -3 -24 -4 5 -10 17 -4 29
-11 28 -17 -1 -5 20 -10 45 -11 26 -1 61 -4 77 -8 17 -4 48 -10 70 -15 34 -6
27 -8 -41 -9 -64 -1 -81 -4 -81 -16 0 -8 6 -15 14 -15 7 0 13 -5 13 -11 0 -8
-27 -9 -87 -5 -49 3 -142 10 -208 14 -74 5 -133 15 -155 25 -19 9 -53 18 -75
20 -32 3 -29 4 17 5 32 1 106 -4 165 -12 154 -21 210 -24 225 -15 8 5 -11 9
-47 9 -95 0 -124 14 -45 21 49 4 32 6 -70 7 -91 2 -130 5 -120 12 8 5 40 11
70 12 l55 2 -50 4 -50 5 65 12 65 13 -115 2 c-146 3 -111 17 50 21 84 1 103 4
70 9 -56 8 220 11 342 3z m-577 -42 c7 -12 -106 -13 -125 -1 -10 7 7 10 52 10
37 0 69 -4 73 -9z m541 -19 c-3 -5 43 -8 102 -6 59 1 95 0 79 -2 -15 -3 -25
-9 -23 -13 5 -8 -161 -12 -181 -4 -16 6 -5 33 14 33 8 0 12 -4 9 -8z m-2889
-78 c-3 -3 -12 -4 -19 -1 -8 3 -5 6 6 6 11 1 17 -2 13 -5z m2291 -1 c-10 -2
-26 -2 -35 0 -10 3 -2 5 17 5 19 0 27 -2 18 -5z m-2359 -7 c-2 -2 -31 -6 -64
-9 -38 -4 -53 -3 -40 3 19 8 113 14 104 6z m-822 -28 c-3 -8 -6 -5 -6 6 -1 11
2 17 5 13 3 -3 4 -12 1 -19z m831 -15 c-10 -2 -26 -2 -35 0 -10 3 -2 5 17 5
19 0 27 -2 18 -5z m110 0 c-15 -2 -42 -2 -60 0 -18 2 -6 4 27 4 33 0 48 -2 33
-4z m-892 -61 c-8 -7 -55 33 -56 47 0 10 11 4 30 -14 16 -16 28 -30 26 -33z
m3664 34 c0 -22 -2 -23 -42 -15 -24 4 -68 8 -98 7 -53 -1 -54 -1 -15 -8 24 -4
34 -9 25 -12 -26 -11 -475 -17 -490 -8 -10 7 1 10 37 10 63 0 83 20 21 21 -24
0 -38 3 -32 5 25 11 214 21 397 23 l197 1 0 -24z m-2885 -16 c4 -6 -5 -10 -19
-10 -14 0 -26 5 -26 10 0 6 9 10 19 10 11 0 23 -4 26 -10z m80 -31 c16 -5 43
-9 59 -9 16 0 26 -3 23 -6 -4 -4 -62 -8 -129 -9 -70 -1 -101 1 -73 5 l50 6
-70 9 c-38 5 -91 8 -117 7 -31 -2 -48 1 -48 9 0 13 252 3 305 -12z m2805 1 c0
-5 -12 -11 -27 -11 l-28 -1 30 -8 c24 -6 17 -8 -35 -9 -55 -2 -61 -4 -40 -12
14 -6 43 -8 65 -5 28 5 36 3 25 -4 -13 -9 -13 -10 0 -11 8 -1 -19 -5 -60 -10
-65 -6 -77 -5 -98 12 -21 16 -22 19 -6 19 11 0 14 3 9 9 -12 10 -137 22 -131
13 2 -4 -26 -5 -62 -3 -66 4 -67 4 -27 13 22 5 104 8 182 6 78 -2 139 0 137 4
-3 5 11 8 30 8 20 0 36 -4 36 -10z m-3337 -7 c-7 -2 -19 -2 -25 0 -7 3 -2 5
12 5 14 0 19 -2 13 -5z m-145 -10 c-15 -2 -42 -2 -60 0 -18 2 -6 4 27 4 33 0
48 -2 33 -4z m95 0 c-7 -2 -21 -2 -30 0 -10 3 -4 5 12 5 17 0 24 -2 18 -5z
m2790 0 c-7 -2 -19 -2 -25 0 -7 3 -2 5 12 5 14 0 19 -2 13 -5z m254 -20 c-20
-2 -52 -2 -70 0 -17 2 0 4 38 4 39 0 53 -2 32 -4z m-2719 -10 c-10 -2 -26 -2
-35 0 -10 3 -2 5 17 5 19 0 27 -2 18 -5z m320 -10 c2 -8 -5 -13 -18 -13 -12 0
-19 4 -15 9 3 6 -14 12 -37 14 -34 3 -32 4 11 3 34 -1 56 -6 59 -13z m-163 -3
c-3 -5 0 -10 7 -11 36 -1 -39 -18 -103 -23 -53 -4 -67 -3 -49 4 21 8 17 9 -17
5 -23 -3 -45 -1 -48 5 -4 6 16 10 52 11 32 1 72 5 88 9 45 11 77 11 70 0z
m552 -12 c-3 -8 -6 -5 -6 6 -1 11 2 17 5 13 3 -3 4 -12 1 -19z m1883 6 c-77
-16 -122 -17 -135 -5 -6 5 -19 11 -30 14 -11 3 36 5 105 5 l125 0 -65 -14z
m90 -29 c44 -15 42 -15 -70 -10 -63 3 -135 6 -160 7 -25 1 -2 5 50 8 52 3 104
7 115 8 11 1 40 -5 65 -13z m365 -10 c29 -14 27 -14 -35 -9 -36 3 -69 10 -74
15 -16 15 76 9 109 -6z m-2912 -12 c-35 -2 -91 -2 -125 0 -35 2 -7 3 62 3 69
0 97 -1 63 -3z m145 0 c-10 -2 -26 -2 -35 0 -10 3 -2 5 17 5 19 0 27 -2 18 -5z
m-194 -22 c3 -5 -28 -9 -69 -9 -41 0 -75 4 -75 9 0 5 31 9 69 9 39 0 72 -4 75
-9z m169 -8 c-7 -2 -21 -2 -30 0 -10 3 -4 5 12 5 17 0 24 -2 18 -5z m-100 -10
c-7 -2 -19 -2 -25 0 -7 3 -2 5 12 5 14 0 19 -2 13 -5z m-190 -10 c-7 -2 -19
-2 -25 0 -7 3 -2 5 12 5 14 0 19 -2 13 -5z m120 -10 c-7 -2 -19 -2 -25 0 -7 3
-2 5 12 5 14 0 19 -2 13 -5z m-95 -10 c-10 -2 -28 -2 -40 0 -13 2 -5 4 17 4
22 1 32 -1 23 -4z m217 -2 c25 -6 20 -8 -31 -13 -33 -3 -74 -3 -90 0 -28 6
-28 7 11 13 52 8 74 8 110 0z m1120 -41 c-4 -12 -9 -19 -12 -17 -3 3 -2 15 2
27 4 12 9 19 12 17 3 -3 2 -15 -2 -27z m-1171 9 l81 -2 -64 -7 c-43 -5 -81 -3
-115 6 -28 7 -36 11 -17 9 18 -3 70 -6 115 -6z m-171 -6 c-7 -2 -21 -2 -30 0
-10 3 -4 5 12 5 17 0 24 -2 18 -5z m206 -39 c2 -2 -61 -3 -140 -2 -127 2 -134
2 -59 8 80 5 190 2 199 -6z m66 -3 c6 -11 -26 -31 -50 -31 -24 0 -7 20 18 21
21 0 21 1 2 9 -19 8 -19 9 2 9 12 1 24 -3 28 -8z m-230 -21 c4 -6 -17 -10 -57
-9 -44 0 -57 3 -43 9 28 12 93 12 100 0z m1080 -11 c12 -6 -3 -6 -40 -3 -33 4
-67 11 -75 16 -19 11 86 -1 115 -13z m-915 -1 c8 -4 22 -9 30 -11 8 -3 -19 -4
-60 -2 -41 2 -81 4 -88 4 -7 1 -11 4 -9 9 6 9 106 9 127 0z m-687 -27 c7 -7
-11 -9 -49 -7 -83 5 -93 7 -64 15 32 9 101 4 113 -8z m-136 -8 c14 -10 39 -16
55 -14 19 2 28 -2 26 -10 -2 -7 4 -13 12 -14 8 0 33 -4 55 -8 37 -7 40 -11 42
-43 2 -40 -18 -43 -27 -3 -5 20 -7 21 -13 7 -4 -11 -12 -15 -22 -12 -17 7 -21
-11 -5 -21 6 -3 10 -10 10 -15 0 -5 -31 7 -70 27 -38 20 -70 40 -70 45 0 5 -4
7 -8 4 -13 -8 -11 28 2 36 8 6 8 8 0 8 -7 0 -14 7 -18 15 -7 19 -1 19 31 -2z
m626 10 c-13 -2 -33 -2 -45 0 -13 2 -3 4 22 4 25 0 35 -2 23 -4z m2470 -20
c-7 -2 -21 -2 -30 0 -10 3 -4 5 12 5 17 0 24 -2 18 -5z m-66 -9 c-3 -3 -12 -4
-19 -1 -8 3 -5 6 6 6 11 1 17 -2 13 -5z m-2429 -21 c-16 -2 -40 -2 -55 0 -16
2 -3 4 27 4 30 0 43 -2 28 -4z m397 -13 c-3 -5 -12 -10 -18 -10 -7 0 -6 4 3
10 19 12 23 12 15 0z m-165 -21 c-82 -10 -160 -10 -160 1 0 10 104 17 170 10
l45 -4 -55 -7z m-875 -19 c-16 -11 -37 -20 -45 -20 -8 1 1 9 20 20 46 25 63
25 25 0z m3320 -21 c22 -7 16 -7 -24 -3 -30 3 -62 9 -70 14 -19 11 47 3 94
-11z m-2102 -16 c-7 -2 -19 -2 -25 0 -7 3 -2 5 12 5 14 0 19 -2 13 -5z m3214
-9 c-3 -3 -12 -4 -19 -1 -8 3 -5 6 6 6 11 1 17 -2 13 -5z m-3052 -14 c-3 -5
-12 -10 -18 -10 -7 0 -6 4 3 10 19 12 23 12 15 0z m-492 -7 c-13 -2 -33 -2
-45 0 -13 2 -3 4 22 4 25 0 35 -2 23 -4z m-314 -39 c10 -9 -105 -3 -118 5 -9
6 9 7 50 4 35 -3 66 -7 68 -9z m166 7 c33 -5 65 -5 70 -1 14 11 106 0 99 -12
-4 -5 -16 -7 -28 -4 -25 6 -66 -3 -66 -14 0 -5 17 -7 38 -5 20 1 28 1 17 -2
-11 -2 -40 -10 -65 -17 -30 -9 -68 -11 -115 -6 l-70 7 75 2 c78 1 138 20 70
22 -29 0 -31 2 -15 9 15 6 8 9 -30 10 -53 2 -114 19 -65 18 14 0 52 -3 85 -7z
m3205 -17 c63 -8 144 -19 180 -24 101 -14 279 -30 340 -30 35 -1 50 -4 40 -9
-26 -15 -377 -5 -465 13 -44 9 -104 19 -134 23 -30 3 -75 14 -100 24 l-46 18
35 1 c19 0 87 -7 150 -16z m285 -14 c-8 -13 -35 -13 -55 0 -11 7 -5 10 23 10
23 0 36 -4 32 -10z m-3632 -37 c-13 -2 -35 -2 -50 0 -16 2 -5 4 22 4 28 0 40
-2 28 -4z m105 -10 c-10 -2 -26 -2 -35 0 -10 3 -2 5 17 5 19 0 27 -2 18 -5z
m-110 -10 c-10 -2 -26 -2 -35 0 -10 3 -2 5 17 5 19 0 27 -2 18 -5z m173 -32
c25 -25 26 -30 11 -36 -9 -3 -18 -1 -20 4 -2 6 -16 11 -30 11 -25 -1 -25 -2
-9 -14 25 -19 21 -27 -9 -20 -20 5 -25 4 -19 -6 5 -9 23 -11 59 -6 34 4 46 2
36 -4 -8 -5 -91 -9 -185 -8 -93 1 -153 3 -132 5 20 2 35 8 32 13 -3 5 25 11
62 15 112 10 113 12 3 15 -85 3 -95 4 -55 9 36 5 43 8 25 11 -14 3 -24 10 -22
15 1 6 30 8 70 6 122 -7 137 -7 135 7 -5 21 17 13 48 -17z m3564 10 c40 -9 39
-9 -17 -10 -33 0 -58 3 -58 9 0 12 20 12 75 1z m-3880 -11 c17 -7 14 -9 -13
-9 -20 -1 -31 3 -27 9 7 12 13 12 40 0z m1280 -6 c-11 -8 -26 -12 -33 -9 -8 3
-19 5 -25 5 -7 0 -6 4 3 10 8 5 29 10 45 10 29 -1 29 -1 10 -16z m1363 -11
c-10 -2 -26 -2 -35 0 -10 3 -2 5 17 5 19 0 27 -2 18 -5z m-78 -13 c0 -5 -4
-10 -10 -10 -5 0 -10 5 -10 10 0 6 5 10 10 10 6 0 10 -4 10 -10z m-1277 -7
c-7 -2 -19 -2 -25 0 -7 3 -2 5 12 5 14 0 19 -2 13 -5z m-1873 -18 c-14 -16
-60 -21 -60 -6 0 5 12 12 28 14 15 2 31 5 36 6 5 0 3 -6 -4 -14z m1844 -4 c3
-5 15 -7 25 -4 10 3 22 -1 26 -9 5 -7 5 -10 0 -6 -4 4 -20 1 -36 -7 -25 -13
-30 -13 -43 1 -9 9 -14 20 -11 25 8 12 32 12 39 0z m-867 -7 c-3 -3 -12 -4
-19 -1 -8 3 -5 6 6 6 11 1 17 -2 13 -5z m-987 -25 c12 -8 11 -9 -7 -4 -11 3
-42 1 -67 -6 -50 -12 -92 -5 -66 11 20 13 121 12 140 -1z m3287 5 c-3 -3 -12
-4 -19 -1 -8 3 -5 6 6 6 11 1 17 -2 13 -5z m447 -13 c3 -4 -25 -11 -63 -13
-37 -3 -76 -10 -87 -16 -14 -9 26 -12 171 -13 105 -1 219 -5 255 -9 37 -4
-106 -7 -330 -7 -217 0 -404 3 -415 7 -38 15 32 23 136 16 94 -6 130 0 149 26
5 6 54 12 142 16 20 1 39 -2 42 -7z m99 2 c-7 -2 -19 -2 -25 0 -7 3 -2 5 12 5
14 0 19 -2 13 -5z m-4268 -13 c3 -5 1 -10 -4 -10 -6 0 -11 5 -11 10 0 6 2 10
4 10 3 0 8 -4 11 -10z m70 0 c-3 -5 -16 -10 -28 -9 -20 1 -20 2 3 9 14 4 26 8
28 9 2 1 0 -3 -3 -9z m1063 -7 c-16 -2 -40 -2 -55 0 -16 2 -3 4 27 4 30 0 43
-2 28 -4z m-853 -33 c-11 -5 -42 -8 -70 -8 l-50 1 45 7 c25 4 56 7 70 8 23 1
23 0 5 -8z m152 -12 c43 -21 11 -28 -120 -27 -122 2 -126 2 -59 9 40 5 83 15
95 23 22 16 44 15 84 -5z m696 15 c-13 -2 -33 -2 -45 0 -13 2 -3 4 22 4 25 0
35 -2 23 -4z m-633 -13 c0 -12 -8 -12 -35 0 -18 8 -17 9 8 9 15 1 27 -3 27 -9z
m819 -16 c2 -2 -65 -3 -150 -2 l-154 2 115 6 c109 5 180 3 189 -6z m-1316 -1
c-7 -2 -19 -2 -25 0 -7 3 -2 5 12 5 14 0 19 -2 13 -5z m430 -30 c-7 -2 -21 -2
-30 0 -10 3 -4 5 12 5 17 0 24 -2 18 -5z m-95 -22 c13 -7 22 -14 20 -16 -1 -2
-88 0 -193 3 -145 5 -173 8 -120 13 48 4 27 5 -68 5 -127 0 -135 -1 -100 -14
21 -7 67 -16 103 -21 63 -8 62 -8 -43 -9 -59 -1 -106 2 -103 7 3 4 -16 6 -42
4 -26 -3 -58 0 -72 5 -23 9 -20 11 28 17 29 4 55 12 58 17 10 16 503 5 532
-11z m145 12 c-7 -2 -19 -2 -25 0 -7 3 -2 5 12 5 14 0 19 -2 13 -5z m720 -10
c-13 -2 -35 -2 -50 0 -16 2 -5 4 22 4 28 0 40 -2 28 -4z m-725 -10 c-10 -2
-26 -2 -35 0 -10 3 -2 5 17 5 19 0 27 -2 18 -5z m85 0 c-7 -2 -19 -2 -25 0 -7
3 -2 5 12 5 14 0 19 -2 13 -5z m887 -2 c19 -6 8 -10 -45 -15 -38 -4 -94 -9
-122 -12 -30 -3 -53 -1 -53 4 0 5 39 13 88 19 111 13 103 12 132 4z m3598 2
c-10 -2 -26 -2 -35 0 -10 3 -2 5 17 5 19 0 27 -2 18 -5z m-4561 -19 c-3 -3
-12 -4 -19 -1 -8 3 -5 6 6 6 11 1 17 -2 13 -5z m600 -10 c-3 -3 -12 -4 -19 -1
-8 3 -5 6 6 6 11 1 17 -2 13 -5z m2716 -1 c-7 -2 -19 -2 -25 0 -7 3 -2 5 12 5
14 0 19 -2 13 -5z m742 -8 c38 -8 128 -16 200 -17 129 -1 129 -1 45 -8 -200
-17 -274 -20 -255 -12 14 7 3 10 -44 15 -35 4 -82 7 -105 8 l-41 1 45 13 c60
17 73 17 155 0z m-4887 -2 c-10 -2 -26 -2 -35 0 -10 3 -2 5 17 5 19 0 27 -2
18 -5z m815 -4 c-7 -7 -94 -13 -234 -16 -234 -6 -292 0 -105 10 60 4 110 8
112 10 2 1 56 4 120 5 85 1 115 -1 107 -9z m3514 -3 c3 -3 -32 -5 -78 -5 -68
2 -76 3 -44 9 45 8 112 6 122 -4z m-4162 -10 c50 -8 160 -18 245 -22 106 -6
142 -10 115 -15 -22 -3 -33 -7 -25 -8 8 -2 4 -6 -10 -10 -14 -4 -72 -2 -130 4
-100 11 -102 12 -50 17 36 3 22 4 -40 4 -52 0 -140 6 -195 14 -102 15 -103 16
-10 29 6 0 51 -5 100 -13z m4331 -18 c6 -5 49 -12 95 -16 l84 -7 -60 -6 c-113
-13 -306 -9 -384 6 -42 9 -110 20 -151 25 -66 8 -61 8 35 3 139 -8 329 -4 333
7 3 9 29 3 48 -12z m-2846 2 c61 -7 62 -7 15 -7 -27 -1 -79 3 -115 7 -61 7
-62 7 -15 7 28 1 79 -3 115 -7z m173 3 c-7 -2 -21 -2 -30 0 -10 3 -4 5 12 5
17 0 24 -2 18 -5z m2966 -9 c10 -9 -105 -3 -118 5 -9 6 9 7 50 4 35 -3 66 -7
68 -9z m-3159 -14 c25 -2 -73 -30 -107 -30 -18 0 -33 5 -33 10 0 6 -32 11 -72
12 l-73 2 90 6 c78 6 133 6 195 0z m-825 -10 c3 -5 18 -7 34 -4 21 5 28 2 28
-11 0 -13 -6 -15 -26 -10 -14 3 -62 8 -106 11 -72 4 -78 3 -56 -9 l23 -14 -23
-6 c-40 -11 -81 -8 -73 5 5 8 -9 9 -56 5 -35 -4 -81 -8 -104 -9 -23 -1 -6 -4
39 -8 61 -5 35 -7 -115 -9 -143 -2 -186 -6 -160 -12 29 -8 275 -11 400 -6 23
1 34 -2 33 -10 -2 -9 15 -14 55 -15 l57 -1 -65 -6 c-36 -3 -81 -2 -100 3 -19
5 -96 6 -170 2 -94 -4 -168 -1 -245 9 -60 8 -127 15 -147 15 -21 0 -38 4 -38
9 0 11 119 25 195 23 53 -2 275 17 405 35 35 5 41 7 25 14 -12 4 21 8 82 8 56
1 105 -3 108 -9z m962 -6 c-3 -3 -12 -4 -19 -1 -8 3 -5 6 6 6 11 1 17 -2 13
-5z m40 0 c-3 -3 -12 -4 -19 -1 -8 3 -5 6 6 6 11 1 17 -2 13 -5z m-1698 -18
c23 -13 19 -14 -55 -20 -195 -15 -271 -17 -304 -8 -31 8 -23 10 65 17 55 4
116 11 135 15 55 13 133 11 159 -4z m5104 -2 c3 -3 4 -11 1 -17 -5 -13 -217
-17 -229 -5 -4 3 13 11 37 16 49 11 181 15 191 6z m-3605 -21 c-21 -2 -57 -2
-80 0 -24 2 -7 4 37 4 44 0 63 -2 43 -4z m192 -13 c0 -11 -50 -11 -95 0 -24 6
-17 8 33 9 35 0 62 -3 62 -9z m-957 -17 c-18 -2 -48 -2 -65 0 -18 2 -4 4 32 4
36 0 50 -2 33 -4z m850 0 c-7 -2 -21 -2 -30 0 -10 3 -4 5 12 5 17 0 24 -2 18
-5z m-1413 -49 c58 -3 144 -7 192 -9 123 -5 143 -20 36 -28 -119 -10 -236 -8
-219 2 18 11 -39 20 -65 10 -17 -7 -16 -8 4 -8 13 -1 20 -5 17 -11 -3 -6 -49
-10 -103 -10 -67 0 -119 -6 -167 -20 -38 -11 -87 -20 -107 -20 -21 0 -38 -4
-38 -10 0 -6 39 -10 97 -10 74 0 100 4 114 16 19 17 129 30 344 40 138 6 370
37 315 42 -19 2 -39 8 -45 14 -7 6 9 8 50 4 33 -3 71 -6 85 -6 24 0 24 -1 5
-13 -19 -11 -17 -12 15 -18 29 -5 24 -7 -25 -8 -69 -1 -125 -15 -136 -33 -6
-9 -60 -13 -211 -14 -204 -1 -326 -13 -396 -39 -35 -14 -33 -14 58 -11 52 2
115 8 140 14 70 16 374 27 366 13 -5 -8 14 -11 66 -13 40 0 58 -3 41 -5 -40
-5 -44 -23 -5 -24 43 -1 11 -9 -74 -18 l-79 -8 105 -3 c58 -2 95 -5 83 -7 -13
-2 -23 -9 -23 -14 0 -5 -12 -9 -27 -8 -25 0 -26 1 -8 9 17 7 15 9 -12 9 -18 1
-33 -4 -33 -9 0 -7 -39 -9 -117 -5 -82 5 -113 3 -103 -4 29 -20 0 -23 -102
-11 -121 14 -471 1 -490 -18 -9 -9 9 -11 71 -10 45 0 85 -2 88 -6 3 -3 -23 -7
-58 -7 l-64 -2 70 -9 c86 -11 219 7 211 28 -4 11 15 14 97 13 60 -1 90 -4 72
-8 l-30 -7 25 -7 c14 -4 88 -8 165 -9 77 -1 119 -3 93 -5 -27 -2 -48 -8 -48
-13 0 -5 21 -11 48 -13 46 -3 46 -3 -13 -6 -60 -3 -60 -3 -20 -12 22 -4 74 -9
115 -10 59 -2 46 -4 -60 -10 -211 -11 -400 -10 -400 1 0 6 -96 10 -267 11
-159 0 -260 4 -248 9 11 5 41 9 66 9 28 1 51 7 59 16 15 18 18 18 -105 -1 -55
-8 -106 -16 -114 -16 -10 -1 -10 -4 3 -13 15 -12 15 -13 -1 -20 -10 -4 -61
-10 -114 -15 -53 -4 -107 -13 -120 -20 -22 -13 -23 -13 -4 -20 33 -12 145 -12
145 -1 0 6 -9 11 -19 11 -11 0 -23 5 -26 10 -4 6 28 10 89 10 52 0 97 4 100 8
16 27 352 13 456 -18 19 -5 96 -11 170 -11 99 -1 124 -3 95 -10 -22 -4 -95 -5
-161 -2 -118 6 -122 5 -133 -16 l-12 -22 158 7 c87 3 160 8 163 9 3 2 70 -3
150 -10 80 -7 129 -13 110 -14 -52 -2 -110 -20 -110 -35 0 -7 10 -18 23 -24
34 -17 -1 -14 -64 4 -46 14 -81 15 -229 8 -96 -4 -165 -10 -152 -12 12 -2 22
-8 22 -13 0 -15 -267 -11 -380 7 -147 23 -151 24 -145 33 7 12 -14 19 -77 26
-29 4 -62 10 -73 15 -74 30 -346 53 -360 30 -4 -6 10 -10 34 -10 23 0 41 -3
41 -8 0 -12 -40 -33 -50 -27 -5 3 -44 10 -86 14 -87 10 -120 28 -41 23 51 -4
58 9 12 21 -11 3 -2 5 20 5 62 -1 77 1 70 12 -4 6 30 10 94 10 61 0 101 4 101
10 0 6 8 10 18 11 12 0 10 3 -8 11 -22 11 -18 12 45 20 39 4 109 10 158 14 49
3 93 11 100 18 7 7 30 17 52 22 l40 8 -40 4 c-22 2 -74 -2 -115 -10 l-75 -13
60 -6 c39 -3 9 -6 -85 -7 -80 0 -161 -5 -180 -11 -19 -6 -84 -10 -145 -9 -79
1 -96 3 -60 7 54 6 42 21 -17 21 -17 0 -29 2 -27 5 3 2 97 7 210 11 112 3 206
7 207 9 2 2 1 9 -3 15 -5 7 -25 9 -59 5 -28 -4 -87 -1 -131 5 -44 7 -109 16
-145 20 -50 6 -27 8 100 8 113 0 165 3 168 11 2 6 25 11 53 11 30 0 48 -4 44
-10 -9 -14 56 -28 90 -18 42 11 155 10 155 -2 0 -15 147 -12 231 5 41 8 90 16
109 18 19 2 4 4 -35 5 -38 1 -90 -3 -114 -7 -25 -5 -68 -5 -100 0 -31 5 -114
13 -184 18 -70 5 -131 11 -134 15 -7 7 -12 6 127 15 102 7 104 7 52 15 -38 6
-50 12 -40 18 8 6 -49 7 -152 4 -112 -5 -160 -3 -149 4 21 12 146 16 309 8 94
-5 111 -4 70 3 -30 5 -82 10 -115 10 -55 1 -56 2 -20 8 24 4 39 11 38 19 -2 9
25 12 110 10 62 -1 86 -3 54 -5 -33 -2 -55 -8 -52 -14 9 -14 112 -11 180 6 33
8 85 15 115 15 30 0 61 4 68 9 24 14 -25 21 -173 22 -77 0 -165 5 -195 9 -57
8 400 3 590 -6z m593 -61 c-7 -2 -21 -2 -30 0 -10 3 -4 5 12 5 17 0 24 -2 18
-5z m840 0 c-7 -2 -19 -2 -25 0 -7 3 -2 5 12 5 14 0 19 -2 13 -5z m-2440 -40
c-7 -2 -21 -2 -30 0 -10 3 -4 5 12 5 17 0 24 -2 18 -5z m1485 -10 c-27 -2 -69
-2 -95 0 -27 2 -5 3 47 3 52 0 74 -1 48 -3z m112 -17 c0 -2 -15 -6 -34 -8 -19
-2 -32 0 -30 4 5 8 64 12 64 4z m-1560 -18 c-88 -11 -221 -16 -234 -9 -22 11
32 16 166 17 132 1 137 0 68 -8z m767 -94 c-3 -3 -12 -4 -19 -1 -8 3 -5 6 6 6
11 1 17 -2 13 -5z m698 -3 c-3 -5 3 -11 12 -14 39 -8 -68 -28 -118 -21 -58 8
-48 23 16 25 22 0 49 4 60 9 27 12 37 12 30 1z m-1640 -7 c-46 -7 -173 -9
-162 -2 7 4 50 7 97 6 47 0 76 -2 65 -4z m1615 -113 c3 -5 12 -11 20 -14 8 -3
-34 -4 -95 -2 -60 2 -95 1 -77 -1 17 -3 32 -10 32 -16 0 -6 -15 -8 -37 -4 -21
3 -74 9 -118 12 -70 7 -76 8 -45 15 19 5 71 11 115 14 44 4 82 9 85 11 7 8
114 -6 120 -15z m4613 -68 c-7 -2 -19 -2 -25 0 -7 3 -2 5 12 5 14 0 19 -2 13
-5z m-1520 -10 c-7 -2 -21 -2 -30 0 -10 3 -4 5 12 5 17 0 24 -2 18 -5z m890
-22 c8 -8 6 -11 -8 -11 -17 0 -18 -2 -5 -11 11 -7 -14 -8 -85 -4 -55 4 -103
12 -106 18 -4 6 -26 7 -58 3 -56 -7 -111 1 -90 14 19 13 339 4 352 -9z m-5381
-17 c15 -8 51 -14 80 -14 63 0 100 -9 92 -21 -7 -11 -120 -3 -244 17 -140 24
-140 24 -140 35 0 15 177 0 212 -17z m1326 -41 c-10 -2 -28 -2 -40 0 -13 2 -5
4 17 4 22 1 32 -1 23 -4z m4734 -11 c18 -18 -324 -15 -372 3 -31 12 -12 13
162 11 140 -1 201 -5 210 -14z m-6164 -8 c45 -4 85 -11 88 -15 3 -5 32 -9 64
-9 32 0 61 -4 64 -9 8 -12 239 -25 471 -25 110 -1 206 -5 213 -10 41 -26 -78
-46 -229 -39 -126 6 -184 -1 -158 -18 10 -7 2 -8 -26 -3 -22 5 -85 7 -140 6
-55 -1 -136 2 -180 7 -79 8 -78 8 57 10 132 1 182 12 117 25 -18 3 -90 6 -162
6 -121 0 -207 13 -207 31 0 5 -17 11 -37 15 -35 7 -63 24 -63 39 0 4 10 5 23
2 12 -4 59 -9 105 -13z m1169 -4 c-2 -24 -47 -29 -242 -31 -189 -1 -257 13
-110 23 55 4 127 11 160 16 33 5 90 9 127 10 59 0 66 -2 65 -18z m-604 -10
c-33 -14 -167 -24 -200 -15 -26 7 -26 8 -8 15 11 5 67 9 125 9 71 0 98 -3 83
-9z m834 -12 c-3 -8 -6 -5 -6 6 -1 11 2 17 5 13 3 -3 4 -12 1 -19z m4709 3 c5
-5 23 -11 39 -14 20 -3 13 -4 -20 -5 -27 -1 -68 1 -90 5 -36 6 -38 7 -15 14
37 10 75 10 86 0z m-4677 -27 c2 -2 -29 -3 -70 -3 -52 1 -65 3 -44 8 28 7 105
3 114 -5z m-1659 -10 c0 -2 -26 -3 -57 -3 -54 2 -55 2 -18 8 38 6 75 3 75 -5z
m1363 -1 c-23 -2 -64 -2 -90 0 -26 2 -7 3 42 3 50 0 71 -1 48 -3z m129 -32
c124 -9 133 -23 28 -42 -135 -24 -209 -31 -355 -34 -82 -1 -165 -5 -182 -9
-18 -4 -48 -4 -65 1 -26 6 -13 9 65 13 53 3 96 9 95 14 -5 16 65 34 135 35 47
1 78 7 105 21 24 14 46 18 62 14 14 -3 64 -9 112 -13z m3206 -38 c-10 -2 -28
-2 -40 0 -13 2 -5 4 17 4 22 1 32 -1 23 -4z m-3581 -69 c-3 -3 -12 -4 -19 -1
-8 3 -5 6 6 6 11 1 17 -2 13 -5z"/>
<path d="M4339 8523 c-13 -16 -12 -17 4 -4 9 7 17 15 17 17 0 8 -8 3 -21 -13z"/>
<path d="M4298 8443 c7 -3 16 -2 19 1 4 3 -2 6 -13 5 -11 0 -14 -3 -6 -6z"/>
<path d="M3831 8554 c0 -11 3 -14 6 -6 3 7 2 16 -1 19 -3 4 -6 -2 -5 -13z"/>
<path d="M3185 8230 c-3 -6 1 -7 9 -4 18 7 21 14 7 14 -6 0 -13 -4 -16 -10z"/>
<path d="M3480 8170 c0 -5 5 -10 10 -10 6 0 10 5 10 10 0 6 -4 10 -10 10 -5 0
-10 -4 -10 -10z"/>
<path d="M2850 8148 c0 -4 4 -8 9 -8 6 0 12 4 15 8 3 5 -1 9 -9 9 -8 0 -15 -4
-15 -9z"/>
<path d="M2680 7959 c0 -5 -5 -8 -11 -6 -6 1 -15 -8 -20 -20 -6 -18 -5 -23 6
-23 8 0 15 6 16 13 0 6 6 -1 13 -17 l13 -29 6 29 c3 17 0 32 -6 36 -7 5 -3 8
11 8 14 0 26 -8 32 -22 8 -22 9 -22 9 5 1 15 -2 28 -6 29 -28 5 -63 4 -63 -3z"/>
<path d="M2757 5993 c-4 -3 -7 -11 -7 -17 0 -6 5 -5 12 2 6 6 9 14 7 17 -3 3
-9 2 -12 -2z"/>
<path d="M2800 5970 c-6 -12 -13 -34 -15 -48 -3 -20 1 -16 16 16 21 45 20 71
-1 32z"/>
<path d="M2810 5875 c-7 -9 -8 -15 -2 -15 5 0 12 7 16 15 3 8 4 15 2 15 -2 0
-9 -7 -16 -15z"/>
<path d="M6098 2183 c12 -2 30 -2 40 0 9 3 -1 5 -23 4 -22 0 -30 -2 -17 -4z"/>
<path d="M6123 1923 c15 -2 37 -2 50 0 12 2 0 4 -28 4 -27 0 -38 -2 -22 -4z"/>
<path d="M6003 1913 c15 -2 39 -2 55 0 15 2 2 4 -28 4 -30 0 -43 -2 -27 -4z"/>
<path d="M5983 1893 c9 -2 23 -2 30 0 6 3 -1 5 -18 5 -16 0 -22 -2 -12 -5z"/>
<path d="M5868 1773 c7 -3 16 -2 19 1 4 3 -2 6 -13 5 -11 0 -14 -3 -6 -6z"/>
<path d="M2660 1486 c0 -8 4 -17 9 -20 10 -7 23 19 14 28 -11 11 -23 6 -23 -8z"/>
<path d="M1678 703 c7 -3 16 -2 19 1 4 3 -2 6 -13 5 -11 0 -14 -3 -6 -6z"/>
<path d="M2250 696 c0 -9 40 -13 46 -5 3 5 -6 9 -20 9 -14 0 -26 -2 -26 -4z"/>
<path d="M1970 615 c-94 -10 -109 -13 -82 -20 21 -5 29 -11 22 -15 -27 -17 11
-16 115 1 61 11 146 22 189 25 52 4 74 9 65 15 -19 12 -167 9 -309 -6z"/>
<path d="M1413 603 c15 -2 39 -2 55 0 15 2 2 4 -28 4 -30 0 -43 -2 -27 -4z"/>
<path d="M913 483 c9 -2 25 -2 35 0 9 3 1 5 -18 5 -19 0 -27 -2 -17 -5z"/>
<path d="M1053 433 c9 -2 23 -2 30 0 6 3 -1 5 -18 5 -16 0 -22 -2 -12 -5z"/>
<path d="M1200 331 c0 -13 58 -20 273 -32 143 -8 202 -8 210 0 6 6 9 13 6 15
-5 5 -360 26 -437 26 -29 0 -52 -4 -52 -9z"/>
<path d="M2056 311 c5 -5 29 -5 54 -1 l45 7 -54 2 c-33 0 -51 -3 -45 -8z"/>
<path d="M1005 160 c3 -6 49 -10 102 -10 53 0 94 2 92 4 -10 9 -199 15 -194 6z"/>
<path d="M1498 133 c34 -2 88 -2 120 0 31 2 3 3 -63 3 -66 0 -92 -1 -57 -3z"/>
<path d="M6033 1683 c15 -2 39 -2 55 0 15 2 2 4 -28 4 -30 0 -43 -2 -27 -4z"/>
<path d="M6320 1660 c-24 -8 -23 -8 8 -9 17 -1 32 4 32 9 0 11 -5 11 -40 0z"/>
<path d="M6065 1629 c39 -9 202 -9 240 0 17 4 -37 7 -120 7 -82 0 -136 -3
-120 -7z"/>
<path d="M6335 1609 c-45 -3 20 -6 150 -6 127 0 223 1 215 3 -30 6 -287 9
-365 3z"/>
<path d="M6326 1578 c44 -6 106 -6 165 0 93 9 92 9 -71 9 -147 0 -157 -1 -94
-9z"/>
<path d="M6925 1560 c11 -5 29 -9 40 -9 17 -1 17 1 5 9 -8 5 -26 9 -40 9 -23
0 -23 -1 -5 -9z"/>
<path d="M5835 1550 c-32 -6 -22 -7 46 -9 47 0 108 -3 135 -6 31 -2 22 1 -26
10 -82 15 -96 16 -155 5z"/>
<path d="M6590 1550 c13 -9 179 -15 169 -6 -2 2 -44 6 -94 10 -62 4 -85 3 -75
-4z"/>
<path d="M6793 1553 c15 -2 37 -2 50 0 12 2 0 4 -28 4 -27 0 -38 -2 -22 -4z"/>
<path d="M6758 1513 c7 -3 16 -2 19 1 4 3 -2 6 -13 5 -11 0 -14 -3 -6 -6z"/>
<path d="M7065 1500 c-19 -8 -19 -9 3 -9 12 -1 22 4 22 9 0 6 -1 10 -2 9 -2 0
-12 -4 -23 -9z"/>
<path d="M6895 1490 c19 -8 113 -14 104 -6 -2 2 -31 6 -64 9 -38 4 -53 3 -40
-3z"/>
<path d="M7023 1443 c15 -2 37 -2 50 0 12 2 0 4 -28 4 -27 0 -38 -2 -22 -4z"/>
<path d="M6545 1419 c28 -5 70 -12 95 -14 36 -4 41 -3 22 5 -13 6 -56 12 -95
15 -69 4 -70 4 -22 -6z"/>
<path d="M6392 1409 c10 -5 57 -12 105 -14 l88 -5 -65 15 c-79 17 -154 20
-128 4z"/>
<path d="M5975 1310 c3 -5 19 -10 36 -10 16 0 29 -4 29 -8 0 -11 4 -11 125
-16 91 -4 94 -4 29 4 -39 4 -80 12 -90 17 -28 15 -137 26 -129 13z"/>
<path d="M5823 1254 c4 -4 42 -11 85 -16 42 -4 98 -10 125 -14 59 -8 64 11 5
20 -74 11 -223 18 -215 10z"/>
<path d="M6815 1190 c45 -11 87 -11 80 0 -3 6 -30 9 -58 9 -45 -1 -48 -2 -22
-9z"/>
<path d="M6025 990 c-3 -4 6 -10 20 -12 14 -3 25 -2 25 2 0 11 -39 20 -45 10z"/>
<path d="M6143 993 c9 -2 17 -9 17 -15 0 -6 20 -8 53 -4 28 3 67 5 85 5 21 0
31 4 27 11 -4 6 -46 10 -103 9 -53 -1 -89 -3 -79 -6z"/>
<path d="M7013 943 c15 -2 37 -2 50 0 12 2 0 4 -28 4 -27 0 -38 -2 -22 -4z"/>
<path d="M5615 240 c30 -8 232 -13 224 -6 -2 2 -60 5 -129 8 -69 3 -111 2 -95
-2z"/>
<path d="M6075 201 l-60 -6 54 -6 c29 -4 57 -12 61 -18 9 -16 114 -26 176 -16
46 7 47 8 24 18 l-25 11 28 4 c15 2 27 8 27 13 0 10 -184 10 -285 0z"/>
<path d="M0 179 c0 -5 28 -9 63 -8 71 1 67 5 -10 12 -29 2 -53 0 -53 -4z"/>
<path d="M0 130 c0 -5 4 -10 9 -10 6 0 13 5 16 10 3 6 -1 10 -9 10 -9 0 -16
-4 -16 -10z"/>
<path d="M6260 131 l-45 -6 35 -7 c19 -3 58 -3 85 2 28 4 38 8 23 9 -14 0 -32
3 -40 4 -7 2 -33 1 -58 -2z"/>
<path d="M6588 127 c24 -7 36 -7 44 1 9 9 1 12 -32 11 l-45 -1 33 -11z"/>
<path d="M7033 133 c15 -2 37 -2 50 0 12 2 0 4 -28 4 -27 0 -38 -2 -22 -4z"/>
<path d="M6880 101 c40 -12 240 -23 240 -13 0 11 -101 22 -194 21 -48 0 -63
-3 -46 -8z"/>
<path d="M863 83 c9 -2 23 -2 30 0 6 3 -1 5 -18 5 -16 0 -22 -2 -12 -5z"/>
<path d="M5876 80 c11 -4 36 -5 55 0 31 7 29 8 -21 8 -39 1 -49 -2 -34 -8z"/>
<path d="M6605 70 c3 -6 49 -10 101 -10 61 0 93 4 89 10 -3 6 -49 10 -101 10
-61 0 -93 -4 -89 -10z"/>
<path d="M1104 61 c5 -8 56 -3 56 5 0 2 -14 4 -31 4 -16 0 -28 -4 -25 -9z"/>
<path d="M6395 60 c28 -12 65 -12 65 0 0 6 -19 10 -42 9 -33 0 -38 -2 -23 -9z"/>
<path d="M7013 63 c9 -2 25 -2 35 0 9 3 1 5 -18 5 -19 0 -27 -2 -17 -5z"/>
<path d="M6722 40 c-57 -4 -106 -11 -110 -15 -4 -4 25 -5 63 -1 39 3 123 6
188 6 76 0 116 4 112 10 -7 11 -95 11 -253 0z"/>
<path d="M6070 37 c0 -2 22 -12 49 -21 36 -12 88 -16 187 -16 76 0 135 3 131
6 -5 6 -55 11 -294 31 -40 3 -73 3 -73 0z"/>
<path d="M6645 10 c-77 -4 -8 -6 190 -6 217 0 276 2 195 6 -133 8 -217 8 -385
0z"/>
</g>
</svg>
