<?xml version="1.0" standalone="no"?>
<!DOCTYPE svg PUBLIC "-//W3C//DTD SVG 20010904//EN"
 "http://www.w3.org/TR/2001/REC-SVG-20010904/DTD/svg10.dtd">
<svg version="1.0" xmlns="http://www.w3.org/2000/svg"
 width="1053.000000pt" height="1053.000000pt" viewBox="0 0 1053.000000 1053.000000"
 preserveAspectRatio="xMidYMid meet">

<g transform="translate(0.000000,1053.000000) scale(0.100000,-0.100000)"
fill="#000000" stroke="none">
<path d="M0 10496 c0 -29 5 -36 38 -52 45 -22 141 -21 158 2 7 8 27 17 46 21
27 4 37 1 42 -12 3 -10 1 -24 -6 -32 -9 -12 -6 -19 17 -39 27 -23 34 -24 97
-18 37 4 68 3 69 -2 0 -5 3 -22 5 -38 3 -16 -1 -35 -9 -45 -16 -19 -56 -105
-82 -176 -10 -27 -27 -60 -38 -72 l-19 -21 56 -57 c31 -32 56 -63 56 -71 0 -7
14 -24 31 -36 17 -13 37 -37 45 -54 9 -18 31 -50 50 -72 19 -22 34 -46 34 -54
0 -14 88 -52 177 -77 23 -6 51 -23 61 -36 16 -20 29 -25 64 -25 26 0 61 -9 88
-24 38 -20 61 -24 143 -25 55 -1 109 -6 120 -11 40 -15 87 -84 78 -114 -6 -22
23 -62 56 -79 20 -10 65 -21 100 -24 70 -7 116 -31 138 -73 25 -46 53 -134 72
-219 17 -78 21 -85 64 -122 59 -49 137 -65 202 -41 31 12 72 15 157 13 226 -6
306 -3 336 12 42 21 145 44 254 57 52 6 106 12 120 15 56 8 89 -44 111 -175 7
-41 15 -77 19 -80 3 -3 16 -26 30 -52 18 -35 31 -48 53 -52 48 -10 79 -7 96 8
27 24 241 19 241 -5 0 -5 4 -9 8 -9 18 0 62 138 62 193 0 33 5 61 13 67 6 5
24 19 40 31 19 14 27 29 27 50 0 40 26 77 66 94 24 10 40 27 56 61 13 26 30
50 38 54 8 4 28 14 44 21 16 8 35 28 43 46 17 41 40 53 102 53 47 0 81 17 81
40 0 15 43 50 61 50 22 0 59 46 66 83 8 38 24 42 90 27 40 -10 65 -11 93 -3
22 5 45 6 52 2 14 -9 17 -7 -61 -34 -86 -30 -287 -142 -371 -207 -235 -182
-348 -372 -357 -603 -4 -93 -2 -118 15 -162 50 -132 198 -302 351 -404 44 -30
81 -57 81 -62 0 -10 -54 18 -69 37 -8 9 -18 16 -23 16 -5 0 -24 11 -42 25 -18
14 -40 25 -50 25 -26 0 -87 43 -142 101 -70 74 -204 144 -294 153 -36 4 -76
11 -90 17 -14 5 -92 18 -173 28 l-149 19 -44 43 c-24 24 -44 48 -44 55 0 6 -7
17 -15 24 -29 24 -57 104 -62 178 -3 40 -10 75 -15 78 -13 9 -253 -14 -301
-28 -20 -6 -43 -11 -50 -11 -6 1 -124 4 -262 8 -318 10 -313 9 -360 25 -94 31
-159 115 -205 265 -30 98 -64 154 -98 160 -127 25 -188 51 -231 100 -19 22
-31 47 -31 64 0 44 -37 71 -96 71 -27 0 -62 -7 -78 -15 -48 -25 -88 -19 -125
19 -28 29 -45 37 -101 46 -72 12 -106 36 -113 77 -3 25 -48 58 -117 88 -49 21
-69 41 -70 66 0 9 -8 23 -18 33 -11 9 -24 34 -31 56 -7 22 -32 61 -59 89 -89
94 -131 168 -103 185 4 3 6 17 3 31 -2 15 2 33 10 43 26 29 68 133 68 166 0
45 -9 53 -67 59 -59 5 -77 19 -87 64 -7 30 -9 31 -49 26 -23 -2 -58 -9 -78
-15 -39 -11 -72 0 -96 31 -10 13 -12 -1099 -13 -5206 l0 -5223 5265 0 5265 0
0 5265 0 5265 -5265 0 -5265 0 0 -34z m10361 -159 c-12 -27 -16 -49 -11 -52 6
-4 10 -18 10 -32 0 -13 9 -38 21 -54 29 -41 18 -73 -22 -64 -16 4 -29 3 -28
-2 2 -4 -4 -21 -11 -36 -11 -22 -11 -33 -2 -48 13 -20 16 -62 6 -72 -4 -3 -16
-1 -27 5 -15 8 -22 8 -25 0 -2 -7 -20 -4 -50 9 -26 12 -86 31 -135 43 l-87 22
-84 -80 c-110 -106 -177 -162 -192 -158 -7 1 -17 -19 -24 -48 -7 -27 -16 -53
-21 -56 -5 -3 -9 -20 -9 -38 0 -18 -9 -45 -20 -58 -13 -18 -19 -40 -18 -72 0
-25 -5 -53 -12 -61 -9 -11 -10 -43 -5 -122 6 -102 6 -110 -15 -136 -12 -15
-38 -34 -58 -43 -65 -27 -82 -50 -82 -114 0 -87 -9 -118 -46 -152 -34 -33
-187 -118 -210 -118 -8 0 -19 -10 -25 -22 -7 -13 -18 -29 -26 -36 -17 -17 -17
-50 1 -104 21 -65 27 -97 31 -163 8 -115 28 -220 52 -268 13 -26 26 -71 29
-100 3 -29 9 -87 14 -129 10 -83 7 -101 -22 -132 -10 -11 -18 -23 -18 -27 0
-4 -8 -9 -17 -13 -10 -3 -34 -15 -53 -26 -19 -11 -46 -20 -60 -20 -15 0 -43
-15 -69 -38 l-43 -38 3 -84 c1 -47 -4 -105 -10 -130 -7 -25 -10 -69 -7 -100 5
-54 -6 -112 -31 -156 -17 -30 -161 -137 -173 -129 -6 3 -10 2 -10 -4 0 -13
-77 -34 -91 -25 -17 10 -4 53 46 161 l46 98 -5 90 c-20 345 -20 348 3 392 13
26 49 64 93 100 122 97 128 104 128 155 0 43 -15 107 -46 191 -8 20 -14 68
-14 106 0 39 -7 84 -16 106 -18 43 -20 43 -132 -4 -40 -17 -100 -36 -135 -42
-40 -8 -72 -22 -90 -38 -31 -28 -31 -24 -10 -162 7 -52 -8 -73 -71 -99 -63
-25 -81 -54 -97 -151 -10 -64 -6 -94 17 -117 8 -7 14 -18 14 -23 0 -18 -30 -8
-64 21 -30 27 -39 30 -75 24 -25 -4 -53 -2 -71 6 -26 11 -33 10 -50 -5 -19
-17 -20 -17 -20 2 0 37 24 47 72 31 31 -11 51 -12 71 -5 24 8 27 13 22 37 -5
24 -1 32 24 51 17 13 31 31 31 41 0 43 28 86 64 98 20 6 36 16 36 21 0 5 7 9
15 9 8 0 15 5 15 10 0 6 -8 10 -17 10 -9 0 -26 8 -37 19 -12 10 -56 31 -99 45
l-77 27 -29 -22 c-23 -17 -30 -32 -35 -71 -5 -34 -14 -57 -29 -69 -19 -16 -97
-77 -172 -134 -10 -8 -27 -15 -36 -15 -9 0 -32 -7 -52 -15 -27 -11 -47 -12
-95 -5 -33 6 -118 11 -189 13 -156 3 -177 -6 -187 -81 -4 -26 -19 -69 -34 -97
-28 -53 -33 -56 -192 -128 -134 -61 -142 -63 -203 -44 -68 22 -75 21 -131 -4
-30 -13 -61 -19 -89 -17 l-42 4 53 23 c35 16 52 30 52 42 0 36 38 49 116 38
80 -11 128 1 199 49 55 37 76 64 63 79 -13 16 -21 123 -9 123 5 0 14 13 20 28
7 15 24 33 39 40 15 7 47 23 72 37 61 34 125 32 306 -6 187 -39 213 -36 279
31 27 27 61 52 76 55 34 8 79 48 113 103 39 63 97 87 187 78 84 -9 103 2 108
59 3 51 37 84 114 115 31 12 57 26 57 31 0 5 6 9 14 9 8 0 40 14 71 30 31 17
67 30 80 30 13 0 25 6 28 13 2 7 30 25 61 41 33 17 63 40 71 56 7 14 21 32 29
39 9 8 16 20 16 28 0 21 73 133 86 133 6 0 19 8 28 19 9 10 45 31 79 45 34 15
70 31 79 37 10 5 23 9 30 9 20 0 78 62 78 84 2 61 86 196 123 196 10 0 29 12
44 26 22 22 24 31 19 67 -4 23 -14 49 -22 58 -18 20 -10 87 12 96 16 6 34 57
34 98 0 39 34 85 61 85 19 0 30 19 77 133 6 15 18 27 25 27 8 0 22 9 33 21 10
12 37 30 59 41 22 11 58 39 80 62 78 81 101 94 153 89 26 -3 58 -8 72 -13 80
-25 109 -31 140 -28 30 3 35 6 33 28 -5 61 7 90 43 105 33 14 35 17 30 51 -4
19 -11 44 -16 54 -15 29 -12 45 17 90 34 51 41 39 14 -23z m-7435 -312 c8 -34
-12 -58 -37 -44 -18 9 -26 49 -12 62 15 16 43 6 49 -18z m2286 -431 c17 -9 26
-19 22 -24 -5 -4 -69 -13 -143 -19 -102 -9 -137 -9 -145 0 -8 8 -8 13 2 16 6
3 12 11 12 18 0 11 21 15 83 18 45 1 95 4 110 5 15 1 42 -5 59 -14z m488 -3
c57 -5 87 -13 122 -35 87 -51 79 -54 -82 -32 -58 8 -131 18 -162 21 -46 5 -57
10 -55 23 6 37 18 45 61 37 22 -4 75 -10 116 -14z m3730 -10 c0 -6 -4 -13 -10
-16 -5 -3 -10 -19 -10 -35 0 -39 -9 -60 -27 -60 -12 0 -14 8 -8 38 3 20 13 47
21 60 15 22 34 30 34 13z m-4755 -50 c48 -18 49 -19 25 -29 -21 -8 -176 -49
-257 -69 -15 -3 -23 -1 -23 8 0 21 42 59 65 59 12 0 42 11 66 24 54 30 62 31
124 7z m1060 -35 c412 -66 777 -198 975 -352 74 -57 177 -166 226 -239 43 -63
97 -189 113 -265 16 -68 13 -185 -5 -248 -54 -189 -190 -332 -419 -442 -98
-48 -111 -53 -170 -71 -22 -7 -65 -21 -95 -32 -70 -24 -86 -28 -135 -34 -22
-3 -50 -12 -62 -20 -84 -55 -118 -357 -68 -601 9 -46 15 -85 13 -88 -3 -2 -49
0 -103 6 -110 11 -153 -1 -64 -19 30 -5 92 -17 139 -26 170 -33 316 -88 408
-154 39 -29 42 -34 42 -80 0 -40 -6 -56 -35 -95 -20 -25 -49 -53 -65 -61 -26
-14 -36 -12 -147 24 -65 21 -192 55 -283 76 -212 47 -206 45 -215 95 -4 24 -3
46 3 52 12 12 226 -22 395 -65 120 -30 127 -33 127 -57 0 -60 29 -94 44 -54
10 26 7 94 -5 117 -15 28 -50 67 -61 67 -12 0 -10 -38 3 -46 22 -13 -7 -25
-36 -14 -64 24 -267 72 -364 85 -57 8 -104 16 -105 17 -1 2 -12 37 -25 78 -23
73 -37 107 -108 260 -60 129 -62 135 -55 142 4 3 25 3 47 -1 75 -14 230 16
255 49 3 4 12 11 21 16 53 30 187 235 204 311 5 26 16 38 53 56 31 15 54 36
67 59 19 36 19 37 1 57 -11 12 -35 25 -55 31 -33 9 -38 15 -55 72 -75 244
-299 400 -514 359 -67 -13 -165 -61 -212 -104 -49 -45 -111 -126 -124 -164
l-13 -38 -17 33 c-9 18 -44 68 -76 112 -33 43 -60 81 -60 83 0 2 27 7 60 10
63 7 104 22 96 36 -3 4 -146 11 -318 15 -172 3 -379 9 -460 12 -195 9 -198
-11 -8 -47 36 -7 67 -14 69 -16 2 -1 -8 -12 -22 -24 -30 -23 -117 -132 -117
-146 0 -5 -6 -21 -12 -36 -10 -20 -18 -25 -35 -21 -15 4 -23 0 -28 -15 -3 -12
-10 -21 -14 -21 -10 0 -47 -87 -55 -127 -4 -27 0 -37 31 -67 45 -43 39 -54
-16 -27 -22 12 -46 21 -54 21 -28 0 -226 85 -299 129 -101 61 -170 122 -227
201 -65 89 -91 163 -98 280 -7 116 9 184 69 308 73 150 233 292 453 404 282
144 513 213 806 243 90 9 169 18 174 20 27 12 527 -4 620 -19z m591 -3 c10
-50 13 -53 44 -53 40 0 73 -18 172 -91 44 -32 89 -59 100 -59 25 0 91 -37 162
-91 28 -21 78 -52 111 -68 65 -31 135 -99 135 -132 0 -24 16 -55 64 -129 31
-47 36 -63 36 -113 0 -42 7 -71 25 -107 20 -40 25 -64 25 -118 -1 -37 4 -83
10 -102 10 -34 9 -36 -32 -72 -24 -21 -47 -38 -52 -38 -5 0 -5 18 0 43 5 23 8
87 7 143 -2 105 -24 186 -79 296 -53 105 -151 231 -233 298 -29 25 -59 50 -65
55 -78 73 -368 213 -580 281 -40 12 -42 26 -6 46 23 13 37 15 56 8 36 -14 41
-13 47 10 8 31 45 26 53 -7z m-301 -3 c8 -13 -25 -13 -45 0 -12 8 -9 10 12 10
15 0 30 -4 33 -10z m3275 -56 c0 -8 -41 -44 -49 -44 -11 0 -36 19 -31 23 6 5
61 25 73 26 4 1 7 -2 7 -5z m-8462 -136 c-2 -7 2 -13 7 -13 82 -9 130 -34 108
-56 -14 -14 -110 27 -123 52 -13 23 -13 29 0 29 6 0 9 -5 8 -12z m8142 -27 c0
-11 -39 -25 -47 -18 -3 3 -2 10 2 16 8 13 45 15 45 2z m-280 -26 c0 -8 9 -19
20 -25 27 -14 25 -32 -2 -28 -15 2 -23 10 -23 22 0 11 -6 21 -13 24 -17 5 -15
22 3 22 8 0 15 -7 15 -15z m-204 -70 c16 -12 17 -16 5 -24 -18 -12 -51 4 -51
24 0 19 21 19 46 0z m-7519 -17 c-3 -8 -6 -5 -6 6 -1 11 2 17 5 13 3 -3 4 -12
1 -19z m7632 0 c-11 -21 -16 -22 -58 -7 -46 16 -38 27 18 26 43 -2 48 -4 40
-19z m-7588 -55 c12 -32 3 -66 -11 -43 -10 16 -14 70 -5 70 3 0 10 -12 16 -27z
m877 -453 c9 -5 29 -14 45 -20 17 -6 27 -17 27 -30 0 -31 27 -90 41 -90 27 0
49 -33 49 -73 0 -23 9 -54 22 -75 14 -22 22 -54 24 -86 1 -45 34 -131 55 -146
4 -3 8 -14 11 -25 3 -17 11 -20 57 -17 29 1 69 12 89 22 53 29 115 27 136 -5
17 -27 21 -55 7 -55 -5 0 -12 12 -15 26 -5 19 -12 25 -28 22 -12 -2 -25 -12
-28 -23 -3 -11 -19 -40 -36 -65 -17 -25 -37 -63 -44 -85 -7 -22 -21 -52 -30
-68 -25 -40 -8 -108 35 -139 6 -4 27 -8 49 -8 31 0 44 -7 72 -37 19 -20 34
-45 34 -55 0 -10 4 -18 9 -18 5 0 23 -21 40 -47 17 -27 38 -58 47 -71 39 -53
47 -183 17 -258 -11 -28 -23 -74 -27 -104 -4 -29 -13 -68 -21 -86 -8 -19 -15
-78 -16 -139 l-3 -107 43 -20 c42 -19 42 -19 75 1 46 29 84 26 138 -8 39 -25
48 -38 66 -90 11 -34 18 -61 14 -61 -3 0 1 -6 9 -12 9 -7 28 -59 44 -115 l27
-103 -36 -73 c-37 -75 -44 -107 -26 -107 15 0 50 -86 50 -121 0 -16 -4 -29
-10 -29 -5 0 -10 8 -10 18 0 9 -7 35 -14 57 -11 31 -20 41 -39 43 -14 2 -28
10 -31 18 -3 8 8 56 25 107 l30 91 -23 44 c-13 24 -33 62 -45 85 -12 23 -27
72 -34 110 -11 58 -15 67 -34 67 -13 0 -27 -10 -35 -24 -18 -34 -57 -49 -99
-36 -48 14 -81 38 -81 59 0 10 -7 24 -16 32 -27 22 -44 67 -44 116 0 61 18
174 30 189 6 6 16 44 24 85 8 41 22 91 30 111 21 48 20 134 -2 178 -9 19 -31
44 -49 55 -22 14 -33 31 -38 55 -3 19 -18 58 -32 87 -22 45 -31 53 -67 62 -48
12 -78 40 -101 93 -20 49 -19 76 5 130 23 54 34 118 22 137 -6 8 -29 13 -67
12 -73 0 -90 9 -103 56 -12 44 -30 96 -48 138 -25 60 -44 135 -44 178 0 35 -6
49 -30 72 -16 15 -37 50 -46 77 -12 37 -25 55 -55 74 -21 13 -39 26 -39 29 0
9 30 5 48 -5z m-696 -195 c-5 -18 -11 -25 -15 -18 -4 7 -2 21 5 32 16 26 19
22 10 -14z m4641 -73 c84 -42 141 -105 195 -216 50 -103 52 -123 15 -128 -14
-2 -28 -8 -30 -14 -5 -14 48 -34 86 -34 36 0 53 -18 40 -41 -8 -16 -23 -18
-112 -18 -56 -1 -147 3 -202 9 -55 5 -161 14 -235 20 -158 13 -203 21 -199 35
1 6 22 15 46 21 24 6 49 18 56 27 14 20 58 12 51 -8 -3 -8 5 -19 18 -26 31
-17 343 -18 360 -1 7 7 9 14 6 17 -3 3 -88 9 -189 13 -125 5 -165 9 -124 12
l60 5 -40 13 c-22 6 -64 12 -93 12 -29 0 -66 7 -82 15 -28 15 -29 18 -23 63 3
26 10 55 14 64 5 9 9 26 9 38 0 20 -1 20 -30 5 -16 -9 -30 -20 -30 -25 0 -5
-9 -14 -21 -20 -20 -11 -20 -11 -4 21 26 50 83 98 160 134 90 42 98 44 171 41
45 -1 78 -10 127 -34z m-1074 -18 c2 -2 -26 -4 -62 -4 -38 0 -67 -4 -67 -10 0
-13 370 -13 390 0 12 8 11 10 -7 10 -13 0 -23 4 -23 10 0 5 8 6 18 3 39 -15
75 -51 118 -118 48 -75 95 -206 76 -213 -24 -8 -62 -44 -62 -59 0 -13 -15 -15
-112 -9 -62 3 -180 8 -263 11 -156 6 -239 20 -232 39 2 6 15 9 28 7 46 -8 504
-6 524 3 18 7 15 10 -19 22 -27 10 -85 14 -177 15 -110 0 -137 3 -133 13 4 10
-16 14 -81 18 -47 3 -92 11 -100 18 -7 6 -15 26 -17 43 l-4 32 -10 -34 c-5
-19 -15 -36 -22 -39 -7 -2 -10 2 -6 11 7 18 -12 32 -22 16 -4 -7 -7 -21 -8
-33 -1 -12 -8 -21 -16 -21 -18 0 -15 42 6 83 7 15 14 32 14 38 0 22 91 134
109 134 5 0 11 6 14 14 4 11 21 13 74 9 37 -3 70 -7 72 -9z m-3524 -54 c7 -11
-24 -75 -32 -66 -3 3 -2 21 1 41 7 34 19 45 31 25z m7563 -121 c3 -29 -20 -54
-43 -45 -9 3 -15 18 -15 41 0 34 2 36 28 33 21 -2 28 -9 30 -29z m-7578 -8 c0
-10 -9 -21 -19 -24 -26 -6 -33 1 -20 24 13 25 39 24 39 0z m4127 -33 c-3 -7
-5 -2 -5 12 0 14 2 19 5 13 2 -7 2 -19 0 -25z m-1002 -83 c-14 -16 -29 -42
-34 -59 -7 -26 -10 -28 -16 -12 -5 11 -3 21 5 26 7 4 10 15 7 24 -4 10 1 20
13 26 11 6 20 17 20 25 0 8 5 15 10 15 6 0 11 10 12 23 1 14 3 11 5 -9 3 -24
-2 -39 -22 -59z m5970 45 c0 -20 -6 -26 -27 -28 -25 -3 -28 0 -28 28 0 28 3
31 28 28 21 -2 27 -8 27 -28z m-5799 -57 c-10 -10 -19 5 -10 18 6 11 8 11 12
0 2 -7 1 -15 -2 -18z m171 21 c-3 -3 -12 -4 -19 -1 -8 3 -5 6 6 6 11 1 17 -2
13 -5z m46 -1 c-7 -2 -19 -2 -25 0 -7 3 -2 5 12 5 14 0 19 -2 13 -5z m5207
-29 c0 -17 -22 -14 -28 4 -2 7 3 12 12 12 9 0 16 -7 16 -16z m-5470 -13 c0 -9
-41 -23 -48 -16 -2 2 -1 8 3 14 8 13 45 15 45 2z m-1979 -45 c24 -30 121 -76
160 -76 15 0 31 -4 34 -10 10 -16 37 -12 82 12 58 31 67 14 15 -30 -40 -35
-42 -40 -42 -90 0 -34 -5 -59 -15 -68 -8 -9 -15 -29 -15 -45 0 -16 -5 -29 -11
-29 -16 0 -4 66 15 86 19 19 20 28 4 72 -11 30 -16 33 -41 28 -20 -4 -32 0
-45 16 -37 46 -51 56 -88 63 -48 8 -64 21 -64 49 0 12 -5 27 -12 34 -7 7 -8
12 -4 12 4 0 17 -11 27 -24z m2759 5 c0 -12 -20 -25 -27 -18 -7 7 6 27 18 27
5 0 9 -4 9 -9z m-925 -41 c3 -5 1 -10 -4 -10 -6 0 -11 5 -11 10 0 6 2 10 4 10
3 0 8 -4 11 -10z m423 -56 c68 -5 72 -7 77 -32 15 -74 18 -77 68 -80 46 -3 65
12 32 24 -25 10 -16 38 20 61 28 17 52 22 132 24 l98 3 0 -63 c0 -68 3 -63
-106 -156 -19 -16 -50 -51 -67 -77 -47 -68 -65 -78 -147 -78 -182 0 -336 118
-382 292 -25 95 -24 96 99 91 56 -2 136 -6 176 -9z m805 -24 c5 -4 12 -32 15
-61 7 -50 9 -54 37 -59 69 -12 109 10 65 38 -28 17 -25 34 13 58 30 19 43 21
191 18 88 -2 161 -6 163 -8 10 -9 -30 -123 -58 -168 -39 -60 -117 -133 -165
-153 -70 -29 -109 -33 -199 -20 l-86 13 -65 68 c-84 89 -108 136 -138 267 l-7
29 113 -7 c62 -4 117 -11 121 -15z m-1184 -7 c10 -10 21 -38 24 -63 l6 -45
-12 36 c-7 21 -20 46 -29 56 -30 33 -21 46 11 16z m3326 -3 c3 -5 -1 -10 -10
-10 -9 0 -13 5 -10 10 3 6 8 10 10 10 2 0 7 -4 10 -10z m411 -66 c0 -35 -1
-35 -30 -29 -77 16 -92 16 -123 -4 -25 -16 -33 -28 -33 -49 0 -37 -8 -44 -31
-29 -27 17 -39 -4 -39 -70 0 -29 -4 -53 -9 -53 -5 0 -23 11 -39 25 -17 14 -32
25 -35 25 -2 0 -7 -14 -11 -32 -3 -17 -14 -40 -23 -50 -19 -21 -66 -24 -82 -5
-6 8 -30 19 -53 26 -40 12 -41 14 -23 27 25 18 59 18 75 -2 8 -8 25 -14 39
-12 21 2 27 9 29 35 5 45 25 60 66 45 45 -17 44 -17 48 31 3 36 6 42 28 46 14
1 37 16 51 32 33 37 80 54 108 40 33 -18 61 -13 73 14 6 14 12 25 13 25 0 0 1
-16 1 -36z m-3832 -6 c21 -33 112 -332 125 -408 6 -36 12 -85 13 -109 l3 -45
-70 -29 c-216 -91 -297 -132 -346 -176 -49 -44 -52 -50 -57 -104 -5 -60 15
-134 46 -170 11 -12 12 -21 5 -28 -16 -16 -44 -4 -82 33 -47 46 -63 81 -51
113 6 15 10 46 10 69 0 44 22 110 40 121 5 3 15 26 21 50 21 85 61 108 157 92
54 -9 67 -8 91 6 16 9 46 17 66 17 20 0 44 4 54 10 27 14 52 91 54 167 2 65 0
71 -37 123 -35 48 -40 63 -43 118 -2 35 -10 77 -18 93 -33 63 -36 79 -15 79
11 0 26 -10 34 -22z m1021 -103 c129 -62 328 -354 379 -558 28 -112 39 -244
26 -310 -30 -155 -152 -294 -310 -355 -61 -23 -188 -27 -255 -7 -220 64 -335
217 -335 447 0 108 49 282 124 441 18 40 42 90 52 112 28 62 99 167 136 202
61 59 104 65 183 28z m915 3 c0 -5 -10 -22 -21 -36 l-21 -27 7 35 c4 19 9 38
12 43 6 10 23 -1 23 -15z m-3367 -94 c9 -9 -4 -35 -14 -28 -5 3 -9 12 -9 20 0
14 12 19 23 8z m3338 -61 c-9 -17 -10 -17 -16 0 -4 9 -4 29 0 45 l7 27 10 -27
c6 -18 6 -34 -1 -45z m-1686 -9 c8 -3 15 -13 15 -21 0 -8 4 -12 9 -9 5 4 11 2
13 -4 4 -13 131 -56 188 -65 25 -3 63 -2 85 3 l40 10 -50 1 c-67 2 -39 18 37
22 65 3 74 -1 60 -28 -53 -98 -152 -360 -152 -399 0 -12 -6 -26 -12 -31 -14
-11 -153 -39 -238 -48 -30 -3 -97 -16 -147 -27 -51 -12 -96 -18 -100 -13 -5 4
-2 10 5 12 14 5 17 33 3 33 -16 0 -51 -52 -51 -76 0 -24 18 -47 52 -65 17 -9
20 -9 15 2 -3 8 -8 21 -12 31 -4 11 0 18 12 22 41 13 390 76 421 76 l32 0 -3
-47 c-2 -28 -9 -49 -17 -54 -19 -10 -203 -60 -345 -94 -187 -45 -253 -34 -301
52 -38 68 -47 117 -29 152 50 97 301 192 576 217 65 6 99 17 88 28 -3 3 -48 9
-100 13 l-94 8 -3 85 c-2 47 -10 117 -19 155 -8 39 -17 84 -19 100 l-5 30 15
-33 c8 -18 22 -35 31 -38z m-1675 -24 c0 -5 -4 -10 -10 -10 -5 0 -10 5 -10 10
0 6 5 10 10 10 6 0 10 -4 10 -10z m0 -32 c0 -7 3 -24 6 -38 5 -24 5 -24 -10
-6 -18 22 -21 56 -6 56 6 0 10 -6 10 -12z m110 -99 c0 -4 -9 -13 -20 -19 -16
-9 -22 -8 -26 5 -3 8 -12 15 -20 15 -8 0 -14 3 -14 8 0 4 18 6 40 4 22 -2 40
-8 40 -13z m-14 -67 c17 4 133 -13 138 -20 3 -5 -11 -20 -30 -35 -46 -37 -45
-63 2 -70 20 -3 45 -14 55 -23 25 -23 24 -69 -1 -87 -11 -7 -27 -30 -35 -51
-9 -20 -20 -34 -25 -31 -17 11 -11 65 10 88 12 13 20 32 18 47 -2 21 -9 26
-38 28 -64 6 -80 45 -35 87 30 27 25 32 -44 50 -33 8 -47 17 -49 31 -3 18 -2
18 11 1 8 -10 19 -17 23 -15z m3278 -90 c32 -29 124 -62 170 -62 23 0 54 -8
71 -19 47 -29 211 -193 217 -217 6 -23 -28 -87 -42 -79 -4 3 -11 17 -15 32
-11 48 -51 88 -117 121 -65 32 -224 82 -262 82 -39 0 -47 14 -52 88 -2 40 -1
72 3 72 4 0 16 -8 27 -18z m3621 -737 c0 -13 -8 -21 -22 -23 -19 -3 -23 1 -23
23 0 22 4 26 23 23 14 -2 22 -10 22 -23z m-8398 -101 c-3 -3 -12 -4 -19 -1 -8
3 -5 6 6 6 11 1 17 -2 13 -5z m4118 -144 c-3 -41 -10 -160 -15 -264 l-9 -189
-30 -26 c-25 -22 -32 -37 -41 -101 -6 -41 -12 -76 -14 -78 -2 -1 -9 25 -15 60
-8 46 -17 69 -36 85 l-24 22 -7 278 c-4 190 -2 273 5 263 8 -12 12 -12 28 2
17 15 79 34 86 26 1 -2 16 7 32 19 l30 21 8 -21 c5 -12 6 -56 2 -97z m-273
-174 l3 -95 -70 -28 c-76 -31 -135 -79 -135 -112 0 -12 -4 -21 -10 -21 -13 0
-13 12 2 47 6 15 14 52 17 82 5 48 10 56 48 84 31 22 53 30 79 29 l37 -1 -6
38 c-5 37 6 71 23 71 5 0 10 -42 12 -94z m378 -11 c23 -8 57 -15 74 -15 46 0
66 -19 73 -68 6 -47 0 -50 -50 -28 -18 7 -58 19 -89 26 l-58 11 0 45 c0 24 2
44 4 44 2 0 23 -7 46 -15z m20 -136 c97 -21 118 -109 53 -210 -21 -32 -41 -57
-45 -56 -13 4 -108 98 -108 108 0 5 7 12 15 15 19 8 58 91 51 109 -3 8 -15 15
-26 15 -11 0 -20 7 -20 15 0 18 13 19 80 4z m-400 -29 c0 -5 -7 -7 -15 -4 -8
4 -15 8 -15 10 0 2 7 4 15 4 8 0 15 -4 15 -10z m-37 -61 c10 -28 34 -67 53
-88 l34 -38 -38 -27 c-38 -26 -69 -35 -57 -16 7 11 -14 50 -37 68 -10 7 -18
22 -18 34 0 17 -2 18 -15 8 -25 -21 -20 65 5 90 34 34 53 25 73 -31z m749 -60
c62 -46 75 -52 125 -54 40 -2 77 -13 124 -36 67 -32 69 -32 89 -14 39 35 77
24 295 -87 44 -23 87 -47 95 -54 31 -27 86 -43 126 -37 31 4 54 -1 96 -21 60
-28 88 -32 120 -15 27 15 56 6 118 -37 48 -33 57 -36 99 -30 43 6 52 3 115
-39 57 -37 77 -45 116 -45 32 0 53 -6 68 -20 23 -22 19 -55 -5 -46 -8 3 -23 1
-33 -4 -15 -8 -20 -6 -26 12 l-7 23 -9 -25 c-8 -22 -11 -23 -21 -9 -7 9 -18
14 -24 12 -7 -3 -16 2 -19 11 -3 9 -13 16 -22 16 -8 0 -65 15 -126 34 -104 32
-209 60 -506 136 -200 51 -231 62 -290 102 -34 24 -83 45 -130 57 -279 73
-514 143 -522 155 -16 24 -7 43 25 54 51 16 56 15 129 -39z m-959 -3 c49 0 42
-18 -14 -32 -290 -75 -522 -145 -579 -174 -21 -11 -51 -31 -68 -45 -30 -25
-123 -53 -402 -120 -137 -33 -324 -83 -373 -100 -54 -18 -124 -22 -138 -8 -8
8 -20 6 -45 -8 -39 -22 -44 -23 -44 -10 0 25 34 41 85 41 50 0 54 2 74 36 l22
36 65 -7 c51 -5 70 -3 89 9 15 10 46 16 81 16 48 0 61 4 91 30 27 24 43 30 81
30 39 0 55 6 91 35 31 25 50 33 67 30 13 -3 35 -7 48 -10 32 -7 164 44 218 84
33 24 52 31 90 31 42 0 51 4 79 35 29 32 37 35 86 35 53 0 59 3 101 55 11 13
26 15 82 9 44 -4 74 -2 86 5 11 7 33 9 54 5 19 -4 52 -7 73 -8z m849 -92 c25
-8 66 -19 90 -24 48 -10 263 -67 374 -98 133 -37 164 -66 164 -151 0 -70 -33
-139 -52 -108 -3 6 -24 12 -45 13 -81 4 -228 25 -274 40 -26 9 -55 24 -65 35
-21 24 -33 24 -50 2 -12 -16 -13 -14 -14 17 -1 59 -10 80 -35 80 -25 0 -35
-17 -35 -60 0 -19 -6 -31 -19 -35 -10 -3 -32 -18 -47 -33 -47 -44 -111 -92
-123 -92 -6 0 -11 -5 -11 -11 0 -5 -4 -8 -9 -4 -5 3 -15 0 -23 -7 -7 -7 -22
-14 -33 -15 -55 -4 -151 -26 -179 -40 -22 -12 -58 -16 -127 -16 -127 1 -139 5
-139 51 0 41 -25 64 -111 101 -26 10 -53 28 -60 39 -8 10 -24 24 -36 30 -24
13 -30 8 -43 -36 -6 -22 -9 -14 -19 46 -13 72 -30 97 -52 75 -5 -5 -13 -36
-18 -69 -5 -32 -9 -48 -10 -35 -1 26 -4 26 -141 -4 -36 -8 -92 -19 -126 -25
-87 -15 -160 2 -148 34 3 8 -5 16 -21 20 -14 4 -23 11 -20 16 3 6 -1 10 -9 10
-38 0 7 83 56 105 18 8 112 35 208 60 96 25 200 52 230 60 68 19 96 19 103 1
6 -15 187 -126 204 -126 6 0 18 9 28 20 21 23 35 26 35 6 0 -12 33 -24 83 -29
9 -1 17 -7 17 -15 0 -8 7 -11 19 -7 15 4 20 -1 25 -25 9 -48 37 -36 54 23 10
36 18 47 34 47 11 0 33 14 49 31 21 23 34 29 49 24 21 -7 21 -6 6 24 -9 16
-24 34 -33 40 -10 5 -15 13 -11 17 8 8 56 -38 83 -80 26 -40 27 -39 109 58 27
33 44 45 55 40 9 -3 37 -12 63 -20z m-512 7 c0 -5 3 -17 7 -27 4 -11 3 -15 -4
-11 -14 9 -24 47 -12 47 5 0 9 -4 9 -9z m-240 -73 c0 -13 -23 -5 -28 10 -2 7
2 10 12 6 9 -3 16 -11 16 -16z m190 7 c0 -8 -4 -15 -10 -15 -5 0 -7 7 -4 15 4
8 8 15 10 15 2 0 4 -7 4 -15z m1380 -225 c86 -18 376 -93 505 -129 76 -21 181
-67 190 -82 8 -11 7 -11 -33 0 -20 6 -30 6 -27 0 4 -5 -1 -9 -10 -9 -8 0 -18
6 -21 14 -3 8 -14 16 -24 19 -13 3 -17 0 -13 -9 7 -18 -21 -18 -36 0 -10 11
-8 15 6 19 14 4 13 5 -4 6 -15 1 -23 -5 -23 -15 0 -25 -118 -13 -320 31 -41 9
-104 25 -140 35 -36 11 -87 21 -115 23 l-50 5 -3 62 c-3 57 -1 62 15 55 10 -3
56 -15 103 -25z m-2435 -37 c-11 -62 -14 -68 -42 -79 -41 -17 -235 -61 -328
-75 -44 -6 -91 -18 -105 -25 -31 -15 -99 -15 -120 0 -36 26 -57 34 -71 25 -18
-11 -49 -12 -49 0 0 13 91 49 167 66 37 8 93 22 123 30 30 9 82 22 115 30 33
8 103 25 155 38 52 14 110 25 128 26 33 1 33 1 27 -36z m1758 -8 c4 -8 2 -17
-3 -20 -6 -4 -10 3 -10 14 0 25 6 27 13 6z m-2564 -74 c19 -12 5 -30 -19 -24
-21 5 -25 15 -13 26 8 9 15 9 32 -2z m-2619 -21 c0 -5 -6 -10 -14 -10 -8 0
-18 5 -21 10 -3 6 3 10 14 10 12 0 21 -4 21 -10z m3363 -7 c-7 -2 -19 -2 -25
0 -7 3 -2 5 12 5 14 0 19 -2 13 -5z m-576 -247 c-4 -9 -11 -16 -17 -16 -17 0
-24 31 -9 41 18 11 34 -5 26 -25z m5792 -124 c19 -4 39 -15 44 -24 15 -23 -38
-349 -59 -364 -10 -8 -54 -10 -138 -7 -68 3 -135 3 -149 -1 -42 -10 -97 -71
-98 -108 -3 -74 10 -87 171 -177 63 -35 138 -78 165 -97 157 -105 250 -277
262 -486 4 -60 2 -98 -4 -98 -10 0 -28 31 -38 67 -4 15 -12 20 -25 18 -13 -2
-20 2 -20 11 0 8 -9 14 -20 14 -13 0 -20 -7 -20 -20 0 -22 -16 -27 -23 -7 -3
6 -8 -2 -12 -19 -5 -23 -16 -34 -41 -44 -19 -8 -34 -17 -34 -22 0 -4 -7 -8
-15 -8 -8 0 -15 -9 -15 -20 0 -11 -7 -20 -15 -20 -8 0 -15 -9 -15 -20 0 -13
-7 -20 -19 -20 -14 0 -18 -5 -14 -20 4 -14 0 -20 -11 -20 -23 0 -67 -30 -60
-41 3 -5 -2 -6 -10 -3 -10 4 -16 1 -16 -9 0 -8 -13 -20 -30 -26 -16 -5 -30 -6
-30 -2 0 18 -31 6 -36 -14 -5 -21 -9 -22 -107 -17 -63 2 -111 9 -124 18 -12 8
-31 14 -43 14 -16 0 -20 7 -21 38 -2 66 -4 75 -17 80 -8 2 -12 -6 -12 -25 0
-15 -4 -55 -8 -88 -7 -52 -9 -56 -14 -30 -11 47 -4 213 9 226 8 8 24 8 65 -1
29 -7 108 -14 176 -16 99 -4 128 -1 155 12 119 60 89 103 -158 227 -181 92
-248 163 -302 319 -21 63 -25 93 -26 213 -2 174 9 225 84 378 34 68 101 147
126 147 7 0 13 4 13 9 0 9 98 55 153 73 82 26 275 31 376 10z m-5847 -1 c66
-7 88 -15 150 -54 105 -65 180 -153 228 -266 13 -28 26 -51 30 -51 4 0 10 46
14 103 10 142 11 145 60 158 63 18 390 5 422 -16 14 -9 51 -69 89 -146 39 -77
71 -129 78 -126 11 3 41 70 109 238 l30 76 91 7 c158 11 363 7 374 -6 11 -13
12 -27 38 -323 18 -200 29 -1024 14 -960 -6 22 -14 80 -18 130 -5 50 -14 91
-20 93 -6 2 -12 16 -12 30 -2 24 -2 24 -6 5 -5 -28 -15 -30 -105 -18 -32 4
-48 11 -48 21 0 9 -11 14 -34 14 l-34 0 -5 -87 c-2 -49 -8 -98 -12 -110 -6
-18 -3 -23 9 -23 9 0 25 -15 36 -32 18 -29 18 -34 5 -44 -8 -6 -15 -14 -15
-18 0 -3 60 -6 133 -6 189 0 177 7 177 -109 1 -53 5 -127 10 -166 8 -68 8 -70
-20 -97 -16 -15 -34 -36 -40 -48 -9 -17 -7 -22 14 -32 14 -6 23 -15 20 -19 -3
-5 23 -9 58 -9 44 0 59 3 48 10 -11 7 -8 10 15 10 55 -1 1 -28 -70 -35 -85 -9
-100 -5 -100 27 0 41 -11 42 -40 4 -34 -44 -87 -60 -171 -53 -89 9 -104 2
-104 -42 0 -64 9 -68 163 -75 130 -6 173 -15 189 -39 3 -6 10 -65 14 -130 l7
-120 32 99 c34 102 90 216 137 275 14 19 55 72 90 119 88 118 274 262 380 295
81 25 264 31 377 11 52 -9 111 -16 132 -16 20 0 47 -8 59 -18 21 -17 21 -21
11 -92 -33 -227 -40 -258 -75 -332 -20 -42 -36 -81 -36 -86 0 -21 -28 -27
-175 -33 -232 -10 -363 -50 -457 -140 -36 -34 -38 -39 -38 -101 0 -38 9 -93
20 -129 20 -64 75 -159 96 -166 14 -5 35 154 33 244 -1 35 3 68 9 75 5 7 26
46 47 86 20 39 42 72 48 73 121 10 547 -4 602 -19 29 -8 30 -11 41 -93 l10
-84 13 45 c36 131 46 159 66 205 13 28 26 61 30 75 10 35 68 149 100 195 14
22 24 47 22 57 -3 10 -2 18 2 18 5 0 28 26 52 57 24 31 72 85 107 120 34 35
62 67 62 71 0 4 -4 1 -9 -7 -8 -12 -12 -12 -24 -2 -27 22 -30 62 -7 93 13 18
18 36 14 52 -4 17 1 29 15 43 l21 19 -39 18 c-22 9 -66 19 -98 22 -32 2 -67 6
-78 8 -11 3 -29 5 -40 6 -16 0 -17 2 -5 9 8 4 100 3 203 -3 215 -13 206 -8
210 -106 2 -61 9 -70 40 -47 17 11 16 17 -3 92 -33 132 -26 313 21 545 39 197
190 514 288 610 72 69 172 143 219 160 40 15 77 20 155 20 136 -1 177 -11 274
-73 146 -91 224 -225 295 -502 21 -82 23 -112 23 -340 0 -222 -2 -253 -17
-275 -10 -13 -18 -37 -18 -52 0 -16 -5 -28 -11 -28 -7 0 -8 11 -4 29 3 16 7
44 7 61 1 18 7 34 15 37 14 5 19 135 6 182 l-6 23 -13 -23 c-11 -21 -13 -22
-19 -6 -9 21 -25 23 -25 2 0 -9 -9 -15 -22 -15 -32 0 -118 -79 -118 -107 0
-13 -4 -23 -10 -23 -5 0 -10 -6 -10 -14 0 -19 -32 -30 -41 -14 -12 19 -22 2
-11 -18 7 -13 3 -29 -15 -63 -23 -43 -52 -160 -56 -223 -1 -16 -8 -28 -15 -28
-9 0 -10 -5 -4 -17 5 -10 7 -24 5 -30 -3 -7 1 -13 7 -13 9 0 10 -3 1 -13 -14
-18 -4 -28 23 -23 12 2 16 1 9 -1 -15 -5 -6 -30 21 -63 25 -29 41 -61 95 -190
67 -158 82 -239 88 -450 6 -226 -10 -339 -66 -463 -12 -25 -21 -49 -21 -53 0
-7 -58 -130 -67 -143 -2 -2 -6 -2 -9 2 -3 3 1 18 10 34 30 53 85 233 62 201
-7 -10 -16 -15 -19 -12 -3 4 -9 -5 -12 -19 -4 -14 -18 -33 -31 -42 -13 -8 -24
-24 -24 -34 0 -11 -4 -21 -10 -23 -8 -3 -16 -29 -19 -63 -1 -5 -5 -4 -10 3 -6
11 -18 2 -47 -33 -47 -56 -136 -147 -190 -193 -21 -18 -33 -30 -25 -26 9 5 12
3 7 -4 -4 -7 -17 -12 -29 -12 -43 0 -66 -13 -79 -41 -11 -24 -19 -29 -49 -29
-21 0 -47 -8 -62 -20 -14 -11 -34 -20 -45 -20 -12 0 -24 -5 -27 -11 -4 -6 -13
-8 -21 -5 -8 3 -11 0 -8 -9 4 -8 -7 -17 -30 -25 -24 -8 -33 -16 -29 -26 3 -8
0 -14 -6 -14 -6 0 -11 4 -11 9 0 5 -9 11 -20 14 -31 8 -24 -6 11 -22 19 -8 45
-11 72 -7 90 14 120 16 114 10 -16 -16 -160 -31 -276 -29 -108 2 -135 6 -186
27 -141 59 -213 95 -265 133 -30 22 -74 53 -96 68 -91 61 -198 197 -260 330
-10 20 -21 37 -24 37 -4 0 -10 -26 -14 -57 -4 -32 -17 -76 -31 -99 -13 -22
-29 -69 -34 -103 -6 -35 -18 -75 -28 -91 -21 -33 -83 -86 -83 -71 0 5 5 13 10
16 6 3 10 18 10 32 0 18 4 24 15 19 17 -6 18 -2 9 41 -6 30 -6 30 -42 18 -20
-7 -38 -18 -40 -24 -2 -6 -7 -9 -10 -7 -4 2 -56 -3 -117 -11 -134 -18 -214
-25 -197 -17 6 3 10 9 7 14 -4 6 58 20 108 24 4 1 7 4 7 9 0 4 0 12 0 18 0 8
-18 10 -60 6 -55 -6 -60 -5 -60 13 0 21 -19 28 -21 8 0 -10 -2 -10 -6 0 -2 6
-17 12 -32 12 -15 0 -36 7 -47 15 -10 8 -33 15 -51 15 -17 0 -35 5 -38 10 -3
6 -40 10 -82 10 -66 0 -75 -2 -80 -20 -3 -11 -10 -20 -15 -20 -5 0 -8 -10 -6
-22 3 -20 11 -24 67 -30 35 -4 67 -11 70 -16 3 -5 31 -12 61 -15 30 -4 73 -12
95 -18 39 -11 39 -12 15 -21 -14 -5 -45 -7 -70 -4 -25 4 -78 11 -119 16 -46 6
-98 21 -135 39 -34 16 -77 33 -96 36 -39 8 -70 31 -70 52 0 9 -16 13 -59 13
-67 0 -90 -15 -72 -49 6 -11 11 -31 11 -45 0 -16 6 -26 15 -26 8 0 15 -6 15
-14 0 -17 106 -116 124 -116 7 0 21 -9 31 -20 10 -11 24 -20 32 -20 7 0 13 -5
13 -11 0 -6 -17 0 -37 12 -142 85 -187 136 -264 300 -4 9 -18 65 -30 125 -18
85 -24 141 -24 254 0 80 4 165 9 189 6 35 5 43 -5 39 -16 -5 -99 -127 -99
-144 0 -27 -36 -37 -167 -48 l-138 -11 3 -50 c2 -27 8 -54 13 -60 5 -5 84 -11
175 -15 149 -4 167 -7 180 -24 19 -26 21 -335 2 -354 -17 -17 -33 -15 -19 2
13 16 4 100 -15 136 -7 14 -13 19 -14 13 0 -9 -20 -13 -65 -13 -40 0 -65 -4
-65 -11 0 -7 -29 -9 -87 -5 -116 7 -110 7 -170 0 -29 -3 -53 -10 -53 -15 0 -5
-9 -9 -20 -9 -13 0 -20 7 -20 18 0 17 -8 18 -107 14 -83 -3 -111 -8 -120 -20
-19 -24 -16 -32 12 -32 13 0 32 -9 42 -20 16 -17 32 -19 130 -18 70 1 117 -3
126 -10 7 -7 31 -16 53 -21 32 -9 26 -9 -41 -6 -44 3 -150 5 -236 5 l-157 0
-6 35 c-9 47 -21 51 -53 18 -16 -15 -31 -27 -35 -26 -9 3 -21 -112 -13 -139 5
-21 5 -21 -6 -4 -9 14 -11 103 -7 343 3 178 4 322 2 320 -3 -2 -11 -123 -20
-268 -13 -199 -20 -266 -30 -272 -8 -4 -14 -15 -14 -22 0 -8 -7 -15 -15 -15
-13 0 -13 3 -3 20 7 11 16 20 20 20 5 0 8 19 7 43 0 30 -3 36 -8 22 -7 -16 -9
-14 -14 14 -4 19 -7 45 -7 59 0 14 -3 22 -6 19 -4 -3 -16 -2 -26 4 -14 8 -23
8 -31 0 -6 -6 -28 -11 -49 -11 -25 0 -41 -5 -44 -15 -4 -8 -16 -15 -29 -15
-12 0 -34 -6 -49 -14 -28 -14 -80 -65 -68 -67 4 -1 -6 -4 -23 -8 -32 -7 -40
-29 -15 -41 8 -4 25 -12 37 -18 13 -7 35 -12 50 -12 26 0 27 -9 1 -14 -7 -1
-24 -8 -37 -15 -12 -7 -31 -11 -42 -8 -10 3 -23 -1 -30 -9 -9 -11 -17 -10 -50
7 -57 28 -64 19 -89 -113 -5 -27 -11 -52 -15 -58 -3 -5 17 -12 47 -17 l53 -7
-55 -8 c-86 -13 -83 -29 -76 367 4 187 9 378 12 425 5 75 4 83 -8 70 -8 -8
-25 -40 -37 -70 -37 -95 -169 -280 -199 -280 -5 0 -18 -17 -30 -37 -26 -47
-92 -122 -92 -106 0 6 5 15 11 18 6 4 8 14 5 22 -4 11 -2 13 9 9 8 -3 15 -1
15 4 0 4 12 22 26 39 14 17 24 31 21 31 -3 0 10 17 29 37 19 20 31 39 27 42
-3 3 -8 0 -10 -6 -8 -21 -26 -15 -20 7 7 27 -27 36 -58 16 -14 -9 -25 -14 -25
-11 0 9 -81 -36 -106 -58 -44 -41 -53 -47 -78 -47 -16 0 -37 -13 -56 -34 -17
-19 -43 -36 -58 -39 -55 -10 -76 -17 -86 -27 -5 -5 -18 -10 -28 -10 -10 0 -18
-4 -18 -10 0 -5 -8 -10 -17 -10 -10 0 -26 -7 -36 -15 -11 -7 -25 -11 -32 -9
-7 3 -16 1 -20 -5 -3 -6 -15 -11 -25 -11 -10 0 -23 -7 -28 -16 -5 -8 -26 -21
-48 -29 -21 -7 -40 -20 -42 -30 -5 -21 16 -45 32 -39 15 6 30 -22 16 -31 -19
-12 -100 -17 -113 -7 -8 7 -18 7 -27 2 -8 -6 -25 -10 -37 -10 -13 0 -24 -8
-28 -20 -3 -11 -10 -20 -15 -20 -4 0 -11 -17 -14 -38 -4 -20 -9 -51 -12 -69
-5 -28 -3 -33 20 -39 15 -3 38 -4 51 -2 14 3 25 2 25 -2 0 -16 -93 -20 -115
-6 -22 14 -22 18 -28 383 -4 285 -1 450 14 732 10 200 16 388 13 416 -6 50 -3
59 47 156 30 57 57 106 60 109 4 3 19 30 35 60 15 30 32 57 36 58 4 2 8 11 8
21 0 9 9 27 20 38 26 28 103 37 356 37 186 1 200 2 191 18 -8 13 -15 14 -30 7
-10 -6 -23 -8 -30 -5 -7 2 -2 8 11 12 20 6 21 9 9 23 -8 9 -17 24 -20 34 -4
10 -11 16 -16 13 -11 -7 -55 77 -49 94 2 7 15 -9 28 -35 13 -26 33 -53 44 -61
11 -8 16 -14 11 -14 -6 -1 2 -8 18 -16 15 -8 27 -19 27 -24 0 -5 16 -14 35
-21 24 -9 32 -16 25 -24 -7 -9 -2 -12 17 -12 16 -1 42 -2 60 -3 18 -2 39 2 47
9 24 20 77 142 98 226 28 112 22 355 -12 459 -22 70 -64 152 -98 192 -19 23
-96 74 -110 74 -5 0 -21 -12 -36 -27 l-27 -27 7 29 c6 25 5 27 -12 21 -10 -5
-32 -12 -47 -17 -34 -10 -59 -28 -52 -39 2 -4 -12 -7 -32 -8 -20 -1 -39 -6
-43 -12 -3 -5 -38 -43 -77 -83 -40 -40 -75 -85 -78 -100 -4 -14 -18 -33 -31
-41 -40 -27 -64 -149 -70 -355 -2 -74 -6 -136 -8 -139 -11 -11 -28 58 -38 160
-7 59 -15 105 -20 102 -4 -3 -8 -16 -8 -30 0 -14 -4 -33 -9 -43 -5 -9 -12 -39
-15 -67 -4 -27 -10 -62 -15 -79 -8 -29 -8 -28 -14 20 -4 28 -9 83 -13 123 -4
52 -10 72 -20 72 -8 0 -14 9 -14 20 0 11 -7 20 -15 20 -20 0 -39 37 -22 43 6
3 2 6 -10 6 -33 1 -73 -17 -73 -33 0 -13 -67 -33 -77 -22 -9 9 -29 -17 -42
-54 -14 -38 -28 -122 -40 -235 l-7 -70 -7 45 c-3 25 -10 97 -14 160 -8 109 -9
115 -30 118 -16 2 -23 -2 -23 -12 0 -9 -8 -16 -20 -16 -11 0 -20 7 -20 15 0
21 -19 19 -27 -2 -4 -10 -9 -20 -13 -23 -14 -10 -30 -153 -32 -277 -2 -98 -4
-77 -8 91 -5 217 -12 257 -37 204 -10 -21 -12 -21 -18 -5 -4 10 -1 27 9 42 21
32 20 38 -4 32 -11 -3 -37 -1 -57 5 -33 9 -39 8 -56 -13 -10 -12 -16 -28 -13
-36 3 -7 0 -13 -6 -13 -14 0 -78 47 -99 73 -13 16 -19 18 -38 7 -13 -6 -29 -9
-37 -6 -16 6 -44 -41 -44 -74 0 -31 -18 -24 -28 12 -8 30 -10 32 -65 34 -46 2
-63 -2 -94 -23 -20 -14 -47 -29 -60 -34 -13 -5 -23 -15 -23 -23 0 -8 -4 -16
-10 -18 -5 -1 -15 -40 -22 -86 -7 -45 -18 -84 -23 -85 -6 -1 -13 22 -16 51 -9
73 -21 84 -64 66 -26 -10 -34 -11 -38 -1 -2 6 -7 -4 -12 -23 -4 -19 -12 -44
-19 -55 -9 -17 -12 -12 -17 35 l-6 55 -1 -61 c-1 -39 -7 -66 -16 -73 -9 -7
-18 -43 -22 -89 -22 -210 -20 127 6 858 9 280 18 362 41 375 5 4 58 15 117 26
142 25 373 27 393 3 7 -9 45 -69 84 -133 39 -64 77 -116 85 -116 9 0 34 39 61
92 26 50 53 99 61 107 16 15 133 25 484 42 111 5 143 3 150 -7 4 -7 10 -105
13 -218 4 -138 10 -206 17 -208 6 -2 33 38 59 89 72 140 102 180 211 279 63
57 121 91 174 103 65 15 285 19 382 7z m3664 2 c25 -10 35 -41 49 -166 21
-172 20 -369 -1 -410 -27 -50 -106 -167 -115 -167 -14 0 15 78 36 93 13 9 -15
29 -33 22 -8 -3 -20 -5 -29 -5 -10 0 -13 -6 -9 -16 5 -13 -2 -15 -43 -13 -58
3 -75 -8 -103 -68 -11 -23 -28 -45 -38 -48 -10 -3 -21 -12 -24 -20 -3 -8 -12
-15 -21 -15 -9 0 -15 -9 -15 -24 0 -18 -7 -25 -30 -29 -16 -4 -30 -13 -30 -20
0 -8 -19 -34 -43 -58 -24 -24 -46 -52 -50 -61 -3 -9 -16 -18 -29 -20 -13 -2
-22 -9 -21 -16 2 -6 -4 -12 -12 -12 -8 0 -17 -11 -21 -25 -6 -24 -52 -55 -81
-55 -7 0 -22 -9 -34 -21 -11 -11 -28 -19 -37 -18 -35 3 -52 -1 -52 -15 0 -8
-10 -16 -23 -20 -25 -6 -74 -82 -57 -88 6 -2 8 -11 5 -21 -6 -15 -9 -15 -25 5
l-17 22 -16 -30 c-9 -16 -19 -37 -23 -46 -9 -25 -24 -22 -24 3 0 12 11 30 25
41 14 11 25 24 25 29 0 10 49 73 126 160 22 26 66 84 97 130 31 46 66 95 79
109 51 55 137 177 257 364 36 56 39 81 13 95 -12 6 -131 9 -303 8 l-284 -2 -7
50 c-9 71 -9 278 0 292 10 16 74 27 267 48 83 9 170 23 195 30 32 10 105 14
254 14 114 0 215 -3 222 -6z m152 -51 c2 -7 -6 -12 -17 -12 -21 0 -27 11 -14
24 9 9 26 2 31 -12z m-1333 -47 c38 -8 77 -23 87 -32 13 -14 21 -52 33 -153 8
-74 20 -154 25 -178 21 -88 9 -192 -21 -192 -14 0 -20 -11 -25 -50 -4 -28 -10
-53 -14 -55 -5 -3 -6 -13 -3 -23 2 -10 -7 -31 -21 -47 -14 -17 -26 -38 -26
-47 0 -11 -8 -18 -20 -18 -13 0 -20 -7 -20 -18 0 -29 -52 -69 -132 -102 -16
-7 -28 -16 -28 -21 0 -5 -9 -9 -20 -9 -11 0 -20 -4 -20 -9 0 -5 -18 -12 -40
-16 -22 -4 -40 -11 -40 -16 0 -5 -17 -9 -38 -9 -21 0 -42 -4 -48 -8 -5 -5 -43
-19 -84 -31 -41 -12 -82 -25 -90 -30 -17 -9 -46 -80 -55 -136 -6 -37 -8 -38
-21 -20 -8 10 -14 28 -14 39 0 12 -5 28 -10 36 -9 13 -11 13 -20 0 -5 -8 -10
-29 -10 -47 0 -35 -17 -89 -26 -80 -8 7 12 221 35 382 59 412 75 515 100 673
18 113 33 178 43 189 12 11 55 19 150 28 183 17 291 17 373 0z m-2815 -419 c0
-3 -4 -8 -10 -11 -5 -3 -10 -1 -10 4 0 6 5 11 10 11 6 0 10 -2 10 -4z m2999
-331 c6 -49 13 -153 16 -230 4 -77 8 -150 11 -162 2 -12 1 -30 -4 -40 -4 -11
-9 9 -14 57 -10 116 -38 523 -37 540 2 22 16 -61 28 -165z m911 75 c0 -5 -5
-10 -11 -10 -5 0 -7 5 -4 10 3 6 8 10 11 10 2 0 4 -4 4 -10z m-34 -45 c-9 -9
-16 -13 -16 -8 0 12 22 34 28 28 2 -2 -3 -11 -12 -20z m-3796 -105 c0 -5 -9
-10 -20 -10 -11 0 -20 5 -20 10 0 6 9 10 20 10 11 0 20 -4 20 -10z m3652 -92
c-7 -7 -12 -8 -12 -2 0 14 12 26 19 19 2 -3 -1 -11 -7 -17z m-6262 -14 c0 -9
-5 -14 -12 -12 -18 6 -21 28 -4 28 9 0 16 -7 16 -16z m1374 -49 c-9 -14 -19
-23 -22 -20 -3 3 2 13 11 23 10 10 17 25 18 33 0 9 2 10 5 2 3 -6 -2 -23 -12
-38z m4856 20 c-7 -9 -15 -13 -19 -10 -3 3 1 10 9 15 21 14 24 12 10 -5z m-92
-116 c-19 -23 -34 -35 -37 -28 -2 7 4 18 13 24 9 7 16 17 16 23 0 6 8 13 18
15 9 3 18 5 20 6 2 0 -12 -17 -30 -40z m-728 7 c0 -13 -7 -26 -15 -30 -25 -9
-45 4 -45 30 0 20 5 24 30 24 25 0 30 -4 30 -24z m-217 4 c15 0 18 -3 10 -11
-13 -13 -161 -17 -165 -4 -3 10 95 25 120 18 8 -2 23 -3 35 -3z m-43 -86 c0
-2 -21 -4 -47 -3 -32 0 -42 3 -29 8 18 7 76 3 76 -5z m-3002 -73 c3 -8 -1 -12
-9 -9 -7 2 -15 10 -17 17 -3 8 1 12 9 9 7 -2 15 -10 17 -17z m3049 -33 c-3 -8
-6 -5 -6 6 -1 11 2 17 5 13 3 -3 4 -12 1 -19z m3963 7 c0 -8 -9 -15 -20 -15
-20 0 -26 11 -13 23 12 13 33 7 33 -8z m-7160 -25 c0 -5 -2 -10 -4 -10 -3 0
-8 5 -11 10 -3 6 -1 10 4 10 6 0 11 -4 11 -10z m-1493 -42 c-3 -7 -5 -2 -5 12
0 14 2 19 5 13 2 -7 2 -19 0 -25z m4153 12 c0 -13 -5 -18 -15 -14 -16 7 -19
17 -8 27 12 13 23 7 23 -13z m23 -457 c-7 -2 -19 -2 -25 0 -7 3 -2 5 12 5 14
0 19 -2 13 -5z m-4063 -872 c0 -11 -5 -23 -11 -27 -15 -9 -33 12 -26 30 9 23
37 20 37 -3z m6959 -232 c-14 -27 -49 -66 -49 -55 0 10 54 85 58 81 2 -2 -2
-14 -9 -26z m1506 21 c-3 -5 -10 -10 -16 -10 -5 0 -9 5 -9 10 0 6 7 10 16 10
8 0 12 -4 9 -10z m-1595 -138 c0 -5 -10 -17 -22 -28 -12 -10 -19 -14 -16 -9 3
6 8 18 11 28 6 17 27 24 27 9z m-105 -102 c-3 -5 -11 -10 -16 -10 -6 0 -7 5
-4 10 3 6 11 10 16 10 6 0 7 -4 4 -10z m-105 -40 c21 -17 23 -21 10 -30 -8 -5
-20 -10 -25 -10 -14 0 -37 39 -30 50 9 14 17 12 45 -10z m-40 -58 c0 -4 -16
-12 -35 -18 -41 -13 -47 -3 -7 13 34 14 42 15 42 5z m-2227 -19 c-7 -2 -19 -2
-25 0 -7 3 -2 5 12 5 14 0 19 -2 13 -5z m2129 -25 c-14 -7 -26 -8 -32 -2 -6 6
2 10 23 11 30 2 31 1 9 -9z m-2282 -157 c0 -6 -5 -13 -10 -16 -15 -9 -43 3
-35 15 8 13 45 13 45 1z m-4635 -171 c0 -22 -29 -18 -33 3 -3 14 1 18 15 15
10 -2 18 -10 18 -18z m8053 -131 c6 -49 -51 -64 -60 -15 -7 35 2 47 31 44 20
-2 27 -9 29 -29z m-7508 -99 c0 -5 -9 -10 -21 -10 -11 0 -17 5 -14 10 3 6 13
10 21 10 8 0 14 -4 14 -10z m-738 -96 c10 -9 -4 -44 -18 -44 -15 0 -36 34 -27
44 8 7 38 8 45 0z m3066 -61 c-2 -10 -10 -18 -18 -18 -8 0 -16 8 -18 18 -2 12
3 17 18 17 15 0 20 -5 18 -17z m4122 -223 c0 -5 -6 -10 -14 -10 -8 0 -18 5
-21 10 -3 6 3 10 14 10 12 0 21 -4 21 -10z m2528 -279 c3 -8 -1 -12 -9 -9 -7
2 -15 10 -17 17 -3 8 1 12 9 9 7 -2 15 -10 17 -17z"/>
<path d="M5274 9419 c-8 -13 13 -29 39 -29 26 0 59 19 52 31 -8 13 -82 11 -91
-2z"/>
<path d="M4527 9333 c-30 -8 -13 -28 27 -31 32 -3 37 -1 34 15 -3 18 -28 25
-61 16z"/>
<path d="M4753 9253 c-26 -10 -13 -33 18 -33 36 0 72 17 64 31 -6 9 -61 11
-82 2z"/>
<path d="M5431 9236 c-11 -13 -9 -16 12 -21 41 -11 102 -2 102 15 0 22 -97 27
-114 6z"/>
<path d="M6353 9209 c-62 -18 -36 -35 46 -31 41 3 45 6 38 27 -7 17 -35 18
-84 4z"/>
<path d="M4100 9114 c0 -11 8 -14 27 -12 39 4 42 28 4 28 -21 0 -31 -5 -31
-16z"/>
<path d="M6047 9124 c-12 -12 4 -24 33 -24 36 0 47 16 17 24 -29 8 -42 7 -50
0z"/>
<path d="M6630 8980 c0 -14 44 -30 81 -30 36 0 38 17 3 30 -33 13 -84 13 -84
0z"/>
<path d="M5768 8919 c-60 -9 -135 -35 -125 -45 3 -3 36 2 73 11 103 26 195 14
292 -36 84 -43 82 -43 82 -30 0 14 -110 80 -150 90 -61 16 -113 18 -172 10z"/>
<path d="M5619 8771 c-68 -18 -125 -48 -166 -84 -35 -32 -27 -39 13 -12 84 57
231 91 324 76 125 -21 198 -69 241 -158 21 -43 39 -56 39 -28 0 31 -60 132
-93 158 -84 64 -228 83 -358 48z"/>
<path d="M6208 7863 c6 -2 18 -2 25 0 6 3 1 5 -13 5 -14 0 -19 -2 -12 -5z"/>
<path d="M5500 8330 c-9 -6 -10 -10 -3 -10 6 0 15 5 18 10 8 12 4 12 -15 0z"/>
<path d="M4600 8320 c0 -5 5 -10 11 -10 5 0 7 5 4 10 -3 6 -8 10 -11 10 -2 0
-4 -4 -4 -10z"/>
<path d="M7895 4413 c-44 -23 -113 -92 -140 -142 -14 -23 -38 -81 -53 -126
-22 -63 -32 -81 -41 -72 -15 15 -14 25 4 43 8 9 15 23 15 32 -1 16 -2 16 -14
0 -7 -10 -18 -18 -25 -18 -6 0 -11 -11 -11 -23 0 -27 -28 -57 -53 -57 -11 0
-17 -8 -17 -21 0 -11 -9 -32 -20 -46 -11 -14 -20 -32 -20 -39 0 -8 -7 -14 -15
-14 -9 0 -20 -10 -25 -22 -8 -21 -9 -21 -9 -3 -1 17 -3 18 -16 4 -11 -10 -16
-42 -18 -111 -2 -56 -8 -103 -15 -111 -10 -12 -10 -25 0 -63 6 -27 15 -53 18
-57 4 -4 33 -8 66 -8 33 -1 67 -7 79 -15 37 -26 122 -9 113 23 -1 4 4 18 11
31 11 21 10 24 -8 29 -12 3 -21 13 -21 23 0 10 -6 33 -13 51 -8 19 -14 54 -15
79 l-1 45 15 -60 c8 -32 21 -69 29 -82 8 -12 15 -28 15 -36 0 -11 40 -57 98
-110 33 -30 159 -68 201 -61 78 14 134 66 186 171 66 135 80 270 45 438 -41
200 -145 335 -263 341 -33 2 -63 -3 -82 -13z m-235 -435 c-1 -38 -3 -48 -10
-37 -8 14 -3 89 6 89 2 0 4 -24 4 -52z"/>
<path d="M4620 4056 c-5 -5 -10 -19 -10 -30 0 -45 -15 -48 -53 -11 -36 35 -39
36 -72 25 -32 -11 -48 -30 -25 -30 6 0 10 -12 10 -27 l-1 -28 -20 28 c-26 35
-39 27 -40 -26 l-1 -42 -7 35 c-4 20 -10 41 -14 47 -9 14 -68 15 -132 2 -27
-6 -60 -12 -71 -14 -16 -4 -23 -15 -28 -42 -12 -73 -36 -258 -35 -273 2 -28
-1 -41 -9 -36 -4 2 -8 37 -9 78 -3 98 -13 168 -24 168 -5 0 -9 -14 -9 -30 0
-17 -6 -43 -14 -58 -7 -15 -16 -43 -20 -62 -4 -19 -12 -42 -19 -51 -10 -13
-12 10 -11 121 2 132 1 137 -18 132 -14 -3 -21 1 -25 17 -6 22 -32 27 -92 15
-24 -5 -31 -12 -31 -30 0 -16 -6 -24 -17 -24 -21 -1 -64 -34 -67 -52 -2 -7 -8
-26 -14 -41 -7 -16 -21 -52 -33 -80 -41 -102 -51 -122 -70 -135 -10 -7 -19
-18 -19 -24 0 -6 -12 -30 -27 -53 -28 -43 -110 -95 -122 -77 -7 10 -57 9 -68
-1 -3 -4 1 -7 11 -7 26 0 74 -27 152 -87 106 -80 146 -130 174 -216 17 -53 30
-37 30 37 0 46 4 67 16 77 8 7 22 25 30 41 8 15 21 28 29 28 8 0 27 14 42 30
15 17 42 40 60 51 28 18 33 27 35 62 l1 42 4 -37 c4 -35 7 -38 36 -38 99 0
255 45 290 83 16 18 17 18 17 2 0 -17 1 -17 20 0 14 13 20 14 20 5 0 -9 5 -7
14 5 12 16 14 8 20 -71 11 -134 9 -132 69 -82 29 24 58 49 65 55 7 7 14 14 15
15 1 0 67 4 146 7 l144 6 3 35 c9 119 14 375 8 450 -8 98 -23 117 -45 55 -7
-19 -16 -35 -20 -35 -4 0 -11 -9 -14 -20 -3 -11 -10 -20 -14 -20 -5 0 -3 17 5
38 17 47 17 77 1 90 -17 14 -134 21 -147 8z m130 -166 c0 -5 -4 -10 -10 -10
-5 0 -10 5 -10 10 0 6 5 10 10 10 6 0 10 -4 10 -10z m-27 -39 c-5 -18 -31 -36
-39 -28 -4 4 34 47 40 47 2 0 2 -9 -1 -19z m-718 -233 c-9 -43 -11 -50 -19
-70 -4 -9 -4 -23 0 -30 4 -7 -2 -5 -12 5 -16 14 -17 21 -6 37 6 11 12 27 12
36 0 18 18 54 27 54 3 0 2 -15 -2 -32z m195 -148 c0 -5 -5 -10 -11 -10 -5 0
-7 5 -4 10 3 6 8 10 11 10 2 0 4 -4 4 -10z"/>
<path d="M2625 3950 c3 -5 8 -10 11 -10 2 0 4 5 4 10 0 6 -5 10 -11 10 -5 0
-7 -4 -4 -10z"/>
<path d="M4877 3910 c3 -11 9 -20 14 -20 5 0 9 9 9 20 0 11 -6 20 -14 20 -9 0
-12 -7 -9 -20z"/>
<path d="M4910 3912 c0 -14 6 -22 16 -22 14 0 15 3 3 18 -7 9 -15 19 -16 21
-2 2 -3 -5 -3 -17z"/>
<path d="M4912 3798 c-7 -32 -9 -65 -4 -83 7 -25 10 -16 14 50 3 44 5 81 3 83
-1 1 -7 -22 -13 -50z"/>
<path d="M1233 3690 c0 -25 2 -35 4 -22 2 12 2 32 0 45 -2 12 -4 2 -4 -23z"/>
<path d="M7515 3520 c-8 -13 5 -13 25 0 13 8 13 10 -2 10 -9 0 -20 -4 -23 -10z"/>
<path d="M4280 3470 c0 -5 5 -10 10 -10 6 0 10 5 10 10 0 6 -4 10 -10 10 -5 0
-10 -4 -10 -10z"/>
<path d="M7170 3369 c0 -5 5 -7 10 -4 6 3 10 8 10 11 0 2 -4 4 -10 4 -5 0 -10
-5 -10 -11z"/>
<path d="M7525 2960 c-11 -5 -32 -9 -47 -9 -16 -1 -28 -5 -28 -10 0 -5 -11
-12 -25 -15 -23 -6 -127 -102 -169 -155 -10 -13 -34 -57 -53 -98 -63 -131 -54
-251 26 -367 45 -66 80 -96 156 -135 118 -61 216 -74 316 -45 75 23 173 122
224 229 49 101 51 131 21 247 -35 136 -125 270 -211 314 -87 46 -168 62 -210
44z"/>
<path d="M3095 2908 c-5 -18 -14 -200 -21 -475 -5 -168 -4 -233 4 -233 28 0
85 68 122 144 72 148 89 323 43 427 -32 72 -137 169 -148 137z m75 -373 c0 -8
-4 -15 -10 -15 -5 0 -10 7 -10 15 0 8 5 15 10 15 6 0 10 -7 10 -15z"/>
<path d="M8394 2219 c-3 -6 -1 -16 5 -22 8 -8 11 -5 11 11 0 24 -5 28 -16 11z"/>
<path d="M5934 2158 c-7 -11 84 -54 141 -67 82 -19 136 8 103 51 -11 13 -35
17 -126 20 -63 2 -116 0 -118 -4z"/>
<path d="M3507 2153 c-12 -11 -8 -21 13 -26 17 -4 18 -2 9 14 -11 21 -13 22
-22 12z"/>
<path d="M5478 1893 c7 -3 16 -2 19 1 4 3 -2 6 -13 5 -11 0 -14 -3 -6 -6z"/>
<path d="M5815 4419 c-7 -19 -45 -289 -52 -366 -6 -68 -7 -67 52 -63 57 3 57
7 40 226 -16 184 -26 239 -40 203z"/>
<path d="M6157 4282 c3 -12 9 -25 14 -28 14 -8 11 10 -6 32 -13 18 -14 18 -8
-4z"/>
</g>
</svg>
