<?xml version="1.0" standalone="no"?>
<!DOCTYPE svg PUBLIC "-//W3C//DTD SVG 20010904//EN"
 "http://www.w3.org/TR/2001/REC-SVG-20010904/DTD/svg10.dtd">
<svg version="1.0" xmlns="http://www.w3.org/2000/svg"
 width="1080.000000pt" height="1076.000000pt" viewBox="0 0 1080.000000 1076.000000"
 preserveAspectRatio="xMidYMid meet">

<g transform="translate(0.000000,1076.000000) scale(0.100000,-0.100000)"
fill="#000000" stroke="none">
<path d="M0 5380 l0 -5380 5400 0 5400 0 0 680 c0 513 -3 680 -12 680 -6 0
-40 -12 -76 -26 -114 -46 -197 -56 -432 -56 -327 0 -479 39 -593 150 -51 50
-115 164 -136 242 -39 147 -29 422 20 573 94 288 306 409 724 410 193 1 266
-14 401 -78 51 -25 96 -45 99 -45 3 0 5 1152 5 2559 l0 2559 -29 25 c-26 22
-41 24 -157 30 -154 8 -194 18 -257 63 -33 24 -58 34 -85 34 -26 0 -45 8 -64
25 -26 24 -88 167 -88 204 0 11 -11 55 -25 98 -40 127 -55 212 -42 240 15 33
2 42 -73 49 -73 8 -85 15 -294 176 -27 21 -38 22 -135 19 -58 -1 -113 -7 -123
-12 -9 -5 -26 -9 -38 -9 -39 0 -92 -31 -87 -51 4 -13 -4 -21 -26 -28 -16 -6
-38 -11 -48 -11 -11 0 -19 -4 -19 -10 0 -5 -5 -10 -11 -10 -8 0 -7 5 1 15 16
20 7 29 -44 45 -74 24 -185 82 -221 115 -25 24 -51 37 -91 45 -30 6 -61 10
-67 7 -8 -3 -12 -27 -11 -66 1 -46 -3 -65 -15 -74 -38 -28 -43 -43 -30 -89 7
-24 16 -48 21 -55 7 -8 3 -10 -10 -6 -17 4 -20 -2 -24 -44 -6 -64 -28 -108
-53 -108 -19 0 -20 7 -20 97 0 101 -5 119 -29 99 -23 -19 -30 5 -13 42 9 18
31 47 50 65 19 18 40 51 47 72 14 41 14 42 -36 159 -23 57 -25 72 -19 120 18
125 14 150 -40 226 -70 100 -123 207 -130 262 -4 26 -9 56 -12 66 -8 30 -64
87 -84 87 -29 0 -23 31 16 89 19 29 37 67 40 85 4 18 26 55 49 82 58 66 64 87
32 119 l-26 26 -72 -40 c-65 -36 -137 -106 -138 -135 0 -5 -7 -17 -15 -26 -12
-14 -13 -23 -5 -46 6 -15 9 -38 6 -50 -3 -12 1 -37 9 -56 15 -36 11 -72 -10
-98 -35 -42 -19 -111 30 -130 17 -6 28 -23 39 -57 19 -62 35 -109 53 -153 22
-55 22 -271 0 -341 -20 -68 -50 -109 -67 -93 -8 8 -5 38 11 115 36 169 36 199
-5 312 -40 109 -54 134 -108 194 -43 48 -53 78 -44 131 21 115 14 172 -18 172
-20 0 -56 -48 -56 -74 -1 -11 -7 -32 -14 -45 -11 -19 -14 -21 -19 -7 -15 39
14 123 53 153 27 20 100 187 111 254 19 111 19 113 31 101 10 -10 15 -28 17
-70 1 -8 30 12 67 44 75 66 114 116 96 122 -7 2 -12 11 -12 20 0 12 -11 5 -35
-21 -20 -21 -41 -37 -47 -35 -19 7 -21 127 -3 155 15 23 20 74 9 86 -7 6 -8
19 -18 146 -6 79 -9 87 -41 93 -15 3 -19 9 -15 28 2 14 5 44 5 68 0 23 3 42 7
42 4 0 16 -13 28 -30 12 -16 25 -30 30 -30 5 0 21 17 34 37 14 20 36 43 48 50
19 10 -466 12 -2497 12 -1386 0 -2514 -3 -2507 -6 30 -12 41 -59 36 -144 -11
-162 -67 -220 -224 -233 -41 -4 -115 -10 -165 -15 -60 -6 -94 -5 -103 1 -20
17 -25 2 -23 -64 3 -75 -30 -172 -66 -195 -33 -22 -330 -13 -455 13 -48 10
-90 16 -92 13 -12 -12 -19 -206 -11 -344 12 -229 11 -224 54 -275 22 -26 46
-62 55 -81 34 -76 79 -105 203 -130 53 -10 114 -29 137 -42 76 -41 181 -119
229 -170 61 -65 74 -87 129 -227 33 -82 35 -85 93 -117 64 -36 121 -93 128
-130 9 -48 -49 -28 -76 27 -22 45 -138 93 -137 58 1 -7 14 -31 30 -53 16 -22
34 -49 39 -61 5 -11 33 -39 63 -61 53 -40 59 -49 95 -153 4 -12 8 -10 16 8 5
12 14 22 19 22 4 0 8 8 8 18 0 9 9 28 20 42 11 14 20 30 20 37 0 6 8 14 18 18
11 3 24 17 31 32 22 48 74 105 110 120 73 31 201 143 232 205 11 21 26 41 34
45 8 3 15 10 15 15 0 6 20 29 44 53 37 35 46 51 51 91 4 27 14 69 21 93 8 24
13 50 10 58 -3 8 2 17 12 20 9 4 42 25 72 48 91 70 132 85 227 85 76 0 86 2
109 25 38 38 40 36 60 -100 3 -22 9 -60 13 -85 7 -53 18 -56 96 -29 67 23 168
46 235 54 49 6 59 4 93 -19 22 -15 52 -26 72 -26 47 0 82 -15 90 -39 3 -12 13
-21 21 -21 8 0 14 -8 14 -17 0 -22 43 -43 87 -43 18 0 33 -4 33 -10 0 -5 9
-10 20 -10 11 0 20 7 20 15 0 28 39 16 56 -17 19 -37 38 -58 53 -58 13 0 15
-21 12 -122 l-3 -78 41 0 c23 0 41 -4 41 -10 0 -5 -7 -10 -16 -10 -8 0 -22 -6
-29 -14 -12 -12 -12 -15 1 -20 28 -11 42 -6 47 14 4 15 14 20 36 20 17 0 31
-4 31 -10 0 -5 -7 -10 -15 -10 -8 0 -15 -7 -15 -15 0 -8 -5 -15 -11 -15 -5 0
-8 -4 -5 -9 4 -5 0 -12 -6 -14 -7 -3 3 -4 22 -4 41 2 73 32 64 59 -5 15 0 18
35 18 23 0 41 5 41 10 0 6 5 10 10 10 6 0 10 -22 10 -50 0 -38 4 -50 15 -50 9
0 15 -9 15 -21 0 -12 8 -23 19 -26 19 -5 19 -8 -5 -75 -4 -10 -15 -18 -25 -18
-12 0 -19 -7 -19 -20 0 -14 7 -20 23 -20 21 0 22 -3 19 -60 -4 -55 -2 -60 17
-60 14 0 21 -6 21 -20 0 -13 -7 -20 -20 -20 -13 0 -20 -7 -20 -20 0 -11 6 -20
13 -20 7 0 8 -3 2 -8 -5 -4 -15 -16 -21 -27 -6 -11 -21 -25 -33 -31 -12 -6
-22 -13 -21 -15 10 -30 -59 -65 -104 -53 -19 4 -28 2 -32 -10 -3 -9 -12 -16
-19 -16 -7 0 -15 -5 -17 -11 -2 -6 -51 -17 -108 -25 -189 -28 -205 -31 -230
-42 -14 -6 -68 -27 -120 -47 -126 -48 -139 -55 -176 -90 -17 -16 -64 -59 -104
-95 -67 -59 -78 -75 -125 -175 -109 -232 -106 -223 -111 -314 -3 -47 -6 -103
-8 -123 -4 -35 -2 -38 21 -38 13 0 22 -4 18 -10 -3 -5 0 -18 7 -30 20 -31 -1
-54 -53 -61 -24 -3 -78 -15 -119 -26 -97 -28 -213 -43 -321 -43 -47 0 -110 -4
-140 -10 -30 -5 -103 -14 -163 -20 -152 -15 -149 -13 -140 -113 4 -45 7 -88 8
-96 3 -50 -75 7 -155 113 -84 111 -90 121 -118 176 -95 187 -141 389 -141 620
0 157 15 270 55 419 20 74 23 101 16 130 -5 20 -17 69 -26 110 -13 61 -24 83
-67 135 -28 33 -65 76 -83 94 l-33 34 -13 -24 c-7 -12 -14 -44 -14 -70 -2 -38
-8 -54 -39 -89 -20 -24 -41 -61 -47 -83 -11 -40 -11 -41 35 -79 48 -41 59 -74
32 -96 -12 -10 -19 -8 -36 9 -34 34 -47 12 -28 -47 9 -26 13 -54 11 -60 -15
-38 -65 18 -81 88 -9 39 -10 40 -11 13 -1 -17 -12 -46 -26 -65 -14 -19 -32
-50 -41 -69 -21 -45 -21 -45 -39 -30 -22 18 -19 31 30 139 25 54 45 107 45
117 0 26 55 137 76 155 21 17 74 127 74 152 0 23 17 56 44 85 18 21 20 33 18
115 -2 51 -9 112 -17 137 -41 130 -59 156 -153 215 -35 22 -75 48 -90 57 -81
51 -247 66 -319 30 -70 -36 -83 -31 -163 57 -39 43 -81 93 -93 110 -39 55 -67
37 -150 -94 -33 -53 -77 -151 -77 -173 0 -28 -94 -158 -175 -243 -19 -20 -35
-41 -35 -46 0 -6 -10 -25 -23 -44 -16 -25 -23 -52 -26 -101 -2 -59 1 -77 30
-138 21 -46 38 -70 49 -70 10 0 26 -21 44 -59 15 -33 41 -79 57 -104 17 -25
33 -63 36 -84 9 -56 29 -90 71 -117 52 -33 78 -64 65 -77 -9 -9 -62 10 -155
57 -14 8 -28 14 -31 14 -11 0 6 -40 24 -56 22 -20 25 -59 5 -67 -16 -6 -71 31
-92 62 -8 11 -18 46 -22 78 -6 47 -11 60 -32 70 -21 10 -27 9 -43 -5 -24 -22
-67 -105 -67 -131 0 -11 -6 -26 -13 -33 -9 -9 -16 -53 -20 -125 -8 -142 3
-187 80 -308 7 -11 27 -46 44 -79 41 -78 141 -225 177 -259 15 -15 55 -37 88
-48 81 -28 89 -39 26 -39 -55 0 -58 -3 -41 -47 6 -15 15 -71 19 -123 3 -52 10
-104 15 -115 l8 -20 -19 20 c-21 22 -43 69 -73 158 -35 104 -161 272 -227 303
-28 14 -36 14 -69 0 -21 -9 -47 -16 -59 -16 -50 0 -80 -53 -136 -240 -12 -41
-28 -93 -35 -115 -18 -60 -2 -171 40 -269 9 -22 19 -62 21 -89 4 -42 2 -48 -9
-39 -8 7 -17 9 -20 5 -13 -12 -97 91 -109 133 -8 28 -16 40 -25 37 -26 -10
-43 5 -34 29 5 13 11 53 15 89 3 37 12 98 20 135 8 38 17 115 21 172 5 82 4
102 -7 102 -20 0 -86 -47 -98 -70 -13 -24 -30 -26 -30 -5 0 18 -33 20 -48 2
-6 -6 -14 -25 -17 -40 -8 -28 -49 -57 -62 -43 -4 4 -2 16 5 26 32 51 0 63 -92
35 -31 -9 -53 -12 -59 -6 -13 13 27 31 153 71 123 39 143 47 168 70 10 10 47
37 83 61 35 24 69 50 76 59 10 13 24 55 64 186 14 46 12 56 -19 94 -16 19 -32
44 -36 55 -7 19 -8 19 -17 3 -12 -21 -42 -24 -56 -5 -6 6 -13 26 -17 42 -4 17
-17 45 -28 63 -19 31 -24 33 -59 28 l-39 -5 17 27 c10 15 26 36 35 46 10 11
25 43 33 73 15 50 53 124 96 185 11 14 19 33 19 41 0 9 3 17 8 19 14 6 82 113
82 130 0 9 -12 40 -27 70 -15 29 -28 55 -29 58 -1 3 -4 19 -8 35 -11 44 -57
106 -96 132 -19 12 -44 30 -55 40 -38 37 -83 65 -93 59 -5 -3 -12 -23 -16 -44
-7 -44 -25 -64 -77 -82 -37 -13 -69 -9 -69 10 0 11 28 40 54 55 10 6 18 19 19
30 2 16 -5 21 -36 23 -45 4 -57 24 -32 52 21 23 22 22 -30 47 -77 38 -105 36
-176 -13 -82 -56 -107 -69 -116 -60 -10 9 26 73 62 112 38 39 112 52 199 34
65 -13 266 -80 313 -105 45 -23 115 -22 150 2 15 11 39 23 53 27 38 11 130 57
130 66 0 4 14 13 30 20 16 7 30 16 30 20 0 4 8 10 19 13 40 10 176 242 186
317 7 54 36 152 57 193 28 57 47 365 28 472 -5 28 -13 75 -19 106 -5 31 -14
66 -20 77 -6 11 -11 37 -11 56 0 73 -48 122 -125 127 -42 3 -98 -18 -89 -32 3
-5 -4 -9 -15 -9 -17 0 -21 -6 -21 -34 0 -34 -26 -69 -85 -117 -11 -9 -30 -27
-42 -40 -11 -13 -33 -32 -48 -42 -36 -26 -85 -95 -85 -122 0 -12 -10 -35 -21
-49 -24 -30 -8 -30 -251 -10 -55 4 -58 3 -83 -31 -42 -54 -114 -97 -151 -90
-49 9 -134 -14 -189 -50 -50 -32 -143 -65 -184 -65 -12 0 -47 -14 -79 -31 -31
-17 -68 -37 -81 -45 -13 -7 -42 -16 -63 -19 -57 -10 -72 -39 -79 -155 -4 -65
-11 -104 -23 -122 -17 -27 -126 -85 -184 -98 -30 -8 -32 -7 -32 21 0 19 5 29
15 29 8 0 23 4 33 9 9 5 34 17 54 25 65 29 74 49 82 192 7 126 7 127 -18 153
-34 36 -76 132 -72 165 4 38 37 68 83 75 32 5 41 12 57 44 22 45 31 37 41 -34
6 -45 8 -47 38 -47 18 0 57 -6 87 -12 30 -7 107 -14 171 -17 l115 -4 70 53
c90 70 81 66 164 83 40 8 100 29 133 45 35 17 78 30 99 30 23 0 56 11 88 30
28 17 55 30 59 30 13 0 68 65 76 89 3 12 11 21 16 21 5 0 9 14 9 31 0 38 12
61 67 125 23 28 43 61 43 73 0 12 20 42 46 69 58 59 77 96 71 136 -4 32 20
115 38 128 6 4 -199 7 -455 7 -327 -1 -455 -4 -430 -11 l35 -10 -24 -13 c-18
-9 -20 -14 -10 -18 10 -4 10 -6 2 -6 -7 -1 -13 -10 -13 -21 0 -10 -6 -23 -12
-27 -7 -4 -20 -21 -28 -37 -8 -16 -24 -34 -35 -40 -11 -6 -22 -13 -25 -16 -3
-3 -32 -14 -65 -25 -49 -16 -87 -20 -206 -20 -133 0 -149 2 -169 20 l-22 20
-25 -30 c-64 -78 -103 -115 -120 -115 -10 0 -29 -3 -41 -7 -21 -5 -23 -3 -20
18 2 18 10 25 33 27 31 4 65 27 65 45 0 6 9 29 19 51 16 34 18 52 11 104 -11
91 -28 112 -90 112 l-50 0 0 -5380z m7524 5309 c9 -73 2 -85 -19 -36 -22 52
-19 97 5 97 4 0 11 -27 14 -61z m-3052 -19 c73 -27 118 -92 118 -168 0 -62
-19 -104 -58 -127 -15 -9 -35 -30 -44 -46 -9 -16 -32 -38 -50 -49 -29 -19 -43
-21 -115 -16 -99 7 -128 17 -171 61 -30 30 -35 42 -39 97 -6 89 11 131 80 191
90 79 175 96 279 57z m3088 -90 c0 -11 -2 -20 -4 -20 -2 0 -6 9 -9 20 -3 11
-1 20 4 20 5 0 9 -9 9 -20z m706 -186 c32 -34 43 -67 26 -78 -5 -3 -9 -26 -11
-53 -3 -64 -18 -131 -35 -155 -12 -17 -14 -6 -10 80 4 99 4 100 -21 106 -23 6
-24 9 -19 59 10 92 18 97 70 41z m-8196 -136 c0 -14 -16 -9 -36 13 -19 21 -19
21 9 8 15 -7 27 -16 27 -21z m7384 -220 c-4 -13 -6 -47 -5 -75 1 -31 -3 -53
-9 -53 -5 0 -10 13 -10 29 0 37 -22 55 -66 53 -44 -2 -37 11 24 43 61 31 75
32 66 3z m-709 -880 c171 -77 367 -229 418 -324 7 -13 40 -67 73 -121 148
-236 220 -422 260 -669 23 -137 16 -144 -66 -73 -33 30 -70 69 -81 88 -31 53
-79 216 -79 272 -1 19 -7 50 -14 69 -8 19 -26 69 -41 110 -15 41 -33 82 -41
91 -8 8 -14 19 -14 23 0 4 -18 34 -40 67 -22 33 -40 68 -40 78 0 30 -60 110
-131 174 -38 33 -69 68 -69 76 0 28 -78 88 -157 121 -43 18 -80 36 -83 40 -3
4 -14 12 -25 19 -42 26 39 0 130 -41z m1823 -423 c14 -31 16 -58 3 -50 -12 7
-17 -13 -26 -88 -7 -58 -28 -116 -38 -100 -3 4 -1 33 5 63 5 30 11 84 14 118
6 88 20 106 42 57z m526 -304 c55 5 60 -6 9 -20 -42 -12 -51 -8 -89 39 l-28
35 31 -29 c27 -24 38 -28 77 -25z m-264 -224 c0 -50 -3 -67 -10 -57 -13 20
-13 143 0 135 6 -3 10 -39 10 -78z m-1438 -639 c8 -7 29 -38 47 -69 47 -84 44
-144 -13 -274 -8 -16 -19 -47 -26 -68 -16 -49 -44 -66 -62 -35 -17 30 -17 248
-1 303 7 22 15 66 18 98 7 60 11 65 37 45z m-2427 -328 c33 -15 81 -31 107
-34 64 -9 72 -22 65 -105 -6 -78 7 -101 56 -101 49 0 63 -27 70 -131 9 -126
20 -163 54 -178 15 -7 89 -16 165 -21 75 -4 141 -11 147 -14 6 -4 11 -37 11
-75 0 -73 -6 -86 -75 -157 -38 -38 -58 -49 -140 -75 -77 -23 -97 -20 -247 43
-73 30 -114 54 -160 96 -73 65 -84 78 -125 152 -56 103 -113 285 -113 365 0
31 4 37 30 46 l30 11 0 97 c0 134 5 138 125 81z m1709 -16 c28 -27 13 -124
-26 -171 -25 -31 -64 73 -53 144 6 39 9 43 35 43 16 0 36 -7 44 -16z m356
-117 c0 -7 -4 -38 -9 -68 -6 -30 -13 -117 -16 -193 -3 -77 -8 -143 -11 -148
-3 -4 1 -17 9 -28 14 -20 14 -20 31 5 9 14 24 25 32 25 11 0 14 6 10 16 -3 8
-2 12 4 9 20 -12 15 -24 -42 -87 -16 -17 -28 -34 -28 -37 0 -4 -16 -23 -35
-43 -26 -27 -46 -37 -78 -41 -102 -13 -91 -18 -99 43 -11 75 -11 92 0 99 5 3
13 21 17 39 4 18 18 45 31 59 13 14 24 29 24 32 0 3 5 33 10 66 6 33 13 96 16
140 4 44 9 83 13 87 8 9 82 35 104 37 9 0 17 -5 17 -12z m-2658 -189 c-15 -15
-26 -4 -18 18 5 13 9 15 18 6 9 -9 9 -15 0 -24z m3468 -66 c0 -14 -23 -32 -42
-32 -20 0 -21 1 -12 24 6 16 54 23 54 8z m-1660 -141 c0 -16 6 -32 13 -34 6
-3 -3 -6 -20 -6 -37 -1 -39 3 -20 42 16 35 27 34 27 -2z m-1835 -11 c-10 -11
-22 -20 -27 -20 -5 0 -16 -7 -24 -15 -16 -16 -10 -37 9 -33 30 5 115 -16 142
-36 53 -40 78 -40 113 0 30 33 34 35 53 22 12 -7 27 -30 34 -51 7 -20 33 -61
57 -90 25 -28 51 -63 58 -77 20 -37 131 -160 145 -160 21 0 44 -46 51 -102 5
-44 1 -68 -25 -143 -18 -49 -29 -95 -26 -103 3 -7 -6 -28 -20 -46 -14 -18 -25
-37 -25 -42 0 -5 -9 -16 -20 -24 -11 -8 -20 -20 -20 -27 0 -7 -4 -13 -9 -13
-5 0 -22 -13 -38 -30 -15 -16 -32 -30 -36 -30 -5 0 -23 -10 -40 -23 -18 -12
-41 -28 -52 -35 -87 -55 -104 -68 -108 -84 -8 -28 38 -113 78 -145 19 -15 63
-45 97 -65 71 -41 129 -83 161 -114 12 -11 31 -24 42 -28 12 -5 15 -10 8 -13
-6 -2 -63 22 -125 55 -62 33 -124 63 -138 67 -55 16 -211 95 -216 110 -3 8 -7
34 -8 57 -1 38 -4 43 -32 51 -25 7 -41 4 -80 -16 -40 -20 -57 -24 -90 -18 -48
9 -130 63 -139 91 -3 11 -15 20 -25 20 -11 0 -23 7 -28 16 -11 19 -80 34 -110
23 -11 -4 -29 -15 -39 -24 -10 -9 -40 -34 -68 -56 l-50 -40 -120 2 c-83 1
-137 8 -175 20 -30 10 -101 32 -157 50 -57 18 -103 36 -103 39 0 4 -15 13 -32
21 -18 7 -36 17 -39 21 -6 9 -58 -14 -69 -31 -4 -8 -28 -8 -81 -2 -41 6 -134
9 -207 8 -72 -1 -132 1 -132 6 0 4 7 7 15 7 8 0 29 6 47 14 49 22 71 29 88 31
35 4 161 71 166 88 10 33 -19 150 -50 205 -33 56 -61 67 -75 30 -12 -29 -86
-101 -107 -104 -10 -2 -20 -7 -23 -12 -3 -6 -15 -12 -26 -14 -11 -1 -26 -11
-33 -20 -7 -10 -21 -18 -31 -18 -11 0 -22 -7 -25 -16 -4 -12 -13 -14 -32 -10
-17 5 -23 3 -19 -4 9 -14 -8 -13 -23 2 -9 9 -12 8 -12 -5 0 -47 -79 23 -102
89 -24 71 -12 209 23 252 13 17 35 44 48 62 27 35 122 85 145 77 9 -4 18 -26
22 -55 l6 -50 62 -15 c136 -35 164 -29 133 30 -30 58 -46 160 -27 179 13 13
168 -2 188 -18 12 -10 16 -10 19 0 7 19 30 14 60 -13 49 -44 104 -84 124 -90
10 -4 22 -17 25 -31 3 -13 10 -22 14 -19 4 3 10 -9 14 -26 8 -42 74 -101 98
-88 20 11 60 -25 56 -50 -2 -10 3 -15 15 -13 9 2 17 -2 17 -8 0 -5 3 -9 8 -8
4 1 23 -13 43 -32 36 -34 124 -101 144 -109 5 -2 28 -19 50 -36 22 -18 63 -44
91 -58 43 -22 54 -24 75 -13 15 7 24 21 25 36 1 14 6 52 12 84 7 35 12 154 11
287 0 143 4 236 11 248 8 15 6 29 -7 56 -20 43 -59 56 -121 41 -18 -4 -36 -6
-39 -3 -7 8 77 43 197 83 58 19 157 52 220 73 63 22 130 39 149 40 33 1 34 1
16 -19z m1779 -233 c45 -12 184 -110 185 -131 1 -6 13 -23 28 -38 15 -15 28
-40 29 -56 1 -15 9 -49 17 -77 31 -103 39 -182 32 -307 -4 -85 -10 -126 -20
-133 -7 -6 -17 -29 -21 -50 -4 -22 -17 -53 -30 -68 -13 -16 -24 -37 -24 -47 0
-10 -4 -22 -10 -25 -5 -3 -10 -14 -10 -24 0 -10 -15 -32 -32 -48 -18 -17 -60
-56 -94 -87 -44 -41 -69 -56 -89 -56 -16 0 -40 -10 -53 -22 l-24 -23 -47 51
c-46 50 -53 65 -104 219 -29 84 -23 309 15 565 6 41 13 98 17 125 6 48 36 103
90 164 12 13 21 27 21 30 0 3 14 15 30 26 16 11 30 27 30 35 0 12 2 12 9 2 4
-7 29 -19 55 -25z m1382 -177 c53 -80 81 -303 50 -401 l-14 -44 -3 100 c-3
145 -3 142 -48 238 -39 84 -49 125 -34 140 13 13 23 6 49 -33z m-4305 -1161
c19 -6 53 -20 76 -30 24 -10 47 -19 52 -19 14 0 73 -76 110 -143 31 -54 33
-64 29 -130 -4 -92 -35 -157 -102 -219 -28 -26 -56 -48 -61 -48 -6 0 -26 -14
-44 -31 -24 -22 -50 -34 -90 -41 -31 -5 -70 -14 -86 -19 -43 -13 -355 -28
-448 -21 -48 3 -80 9 -83 17 -3 6 2 32 11 56 10 27 19 89 22 159 5 115 32 239
56 258 7 5 30 15 52 22 39 13 144 76 215 130 44 34 140 62 236 69 12 0 36 -4
55 -10z m2456 -41 c15 -6 33 -12 38 -12 23 -2 109 -216 103 -257 -6 -42 -47
-47 -114 -13 -85 42 -91 57 -86 187 4 115 5 117 59 95z m-1373 -43 c50 -5 125
-42 316 -158 171 -103 181 -120 136 -226 -46 -106 -137 -201 -193 -201 -13 0
-23 -4 -23 -10 0 -6 -36 -10 -87 -10 -53 0 -118 -8 -163 -19 -152 -38 -456
-36 -496 3 -7 8 -26 24 -41 36 -25 19 -26 23 -15 54 7 18 12 39 12 47 0 27 16
39 80 55 35 9 80 25 99 35 20 11 43 19 52 19 9 0 28 9 43 21 21 16 26 29 26
64 0 25 8 58 19 77 11 18 23 61 27 95 5 49 11 64 25 68 11 4 19 11 19 16 0 19
64 49 91 44 15 -4 47 -8 73 -10z m1741 -81 c33 -21 31 -31 -4 -32 -31 -1 -57
20 -46 38 9 14 22 13 50 -6z m2637 -76 c14 -5 35 -7 45 -4 21 6 63 -25 63 -48
0 -12 -10 -16 -35 -16 -19 0 -35 3 -35 8 0 4 -23 7 -51 7 -37 0 -54 5 -63 18
-7 9 -25 17 -40 17 -30 0 -33 8 -8 26 18 14 76 10 124 -8z m-2684 -80 c2 -12
-7 -19 -40 -25 -44 -9 -51 -23 -33 -65 4 -11 3 -18 -4 -18 -17 0 -81 61 -81
76 0 39 151 69 158 32z m524 2 c24 -6 77 -17 118 -26 41 -8 92 -19 113 -24 21
-4 43 -12 48 -17 8 -8 -23 -6 -218 16 -56 6 -105 11 -110 10 -19 -3 -31 2 -37
17 -13 35 12 42 86 24z m848 -111 c19 -6 48 -13 64 -15 25 -3 55 -27 56 -45 0
-4 -7 -12 -15 -19 -11 -9 -24 -8 -62 4 -60 20 -125 57 -131 74 -5 15 40 16 88
1z m-930 -275 c6 -14 14 -23 19 -19 10 6 31 -25 31 -44 0 -18 -30 -12 -36 7
-3 9 -12 29 -20 44 -15 28 -17 38 -9 38 3 0 10 -12 15 -26z m-1655 -1778 c141
-34 174 -44 239 -74 l69 -32 -7 -52 c-10 -74 -54 -250 -65 -261 -7 -7 -35 -3
-83 10 -138 39 -200 47 -273 35 -107 -18 -162 -67 -200 -181 -14 -43 -17 -78
-13 -180 3 -112 7 -134 28 -176 14 -26 37 -57 52 -68 28 -21 110 -34 152 -23
53 13 56 24 56 202 0 162 0 164 23 168 12 3 114 8 227 11 266 8 249 20 252
-170 1 -77 -2 -223 -6 -324 -8 -159 -11 -186 -27 -202 -17 -17 -37 -19 -207
-19 -209 0 -213 1 -227 67 -12 56 -27 58 -77 8 -190 -190 -610 -133 -793 107
-37 50 -87 151 -111 228 -34 108 -25 350 17 461 12 30 23 64 26 77 3 12 9 22
14 22 5 0 9 6 9 14 0 21 93 137 145 181 103 87 229 147 370 176 105 22 310 19
410 -5z m1038 -17 c164 -11 224 -25 256 -58 l24 -25 -6 -266 c-4 -146 -10
-351 -13 -455 -10 -270 2 -294 120 -257 107 34 99 -17 92 537 -5 405 -3 485 8
494 21 18 504 20 577 3 97 -22 90 4 89 -342 0 -358 -18 -898 -30 -921 -16 -28
-83 -40 -265 -46 -219 -7 -281 3 -315 48 -20 29 -26 31 -63 25 -23 -4 -46 -10
-52 -15 -18 -14 -99 -44 -140 -51 -22 -5 -94 -18 -160 -30 -123 -23 -200 -55
-186 -78 9 -15 1 -82 -10 -82 -5 0 -6 -7 -3 -15 4 -8 -1 -17 -9 -21 -8 -3 -18
-17 -22 -32 -13 -54 -32 -72 -68 -65 -37 7 -67 30 -67 51 0 13 -3 13 -18 -1
-10 -10 -26 -17 -35 -17 -9 0 -19 -4 -22 -10 -3 -5 -16 -10 -29 -10 -18 0 -25
8 -33 38 -18 68 -7 1483 13 1580 9 42 43 44 367 21z m-2272 -25 c23 -24 63
-193 54 -230 -4 -19 -14 -22 -87 -28 -361 -29 -359 -28 -374 -51 -21 -33 -31
-177 -12 -192 9 -8 78 -14 188 -19 96 -3 191 -11 210 -18 l35 -11 9 -109 c12
-145 11 -145 -164 -147 -231 -2 -269 -4 -279 -14 -5 -5 -14 -48 -19 -95 -14
-123 -19 -120 188 -111 91 4 173 5 182 3 22 -5 68 -144 68 -206 0 -39 -3 -46
-22 -51 -33 -7 -622 -21 -819 -19 -208 2 -221 6 -230 84 -17 144 -31 625 -26
850 8 305 13 347 41 363 27 16 307 25 718 23 309 -1 318 -2 339 -22z m-2612
-4 c102 -29 147 -54 212 -120 63 -64 106 -138 141 -238 21 -61 23 -84 23 -257
-1 -172 -3 -196 -24 -255 -34 -98 -62 -160 -72 -160 -5 0 -9 -6 -9 -13 0 -20
-60 -78 -129 -124 -38 -25 -96 -52 -145 -67 -148 -44 -228 -51 -576 -51 l-325
0 -3 653 -2 652 418 0 c389 0 422 -1 491 -20z m1258 -6 c15 -9 24 -28 29 -61
8 -56 -3 -831 -15 -1041 -11 -183 -7 -178 -149 -180 -59 -1 -195 -5 -304 -8
l-196 -7 -25 25 c-35 35 -38 78 -33 403 10 629 19 865 31 875 13 10 388 19
545 12 58 -2 104 -9 117 -18z m5679 9 c8 -3 19 -14 24 -24 23 -42 6 -1167 -18
-1230 -10 -26 -12 -26 -148 -32 -75 -4 -217 -7 -315 -7 -198 0 -203 1 -215 68
-8 43 3 1213 12 1221 16 16 620 20 660 4z m1465 -34 c18 -7 29 -20 33 -41 10
-51 7 -298 -4 -319 -10 -17 -22 -19 -148 -19 -190 0 -180 10 -181 -181 -1 -83
-6 -203 -11 -267 -5 -65 -10 -177 -11 -249 -3 -145 -6 -155 -64 -167 -16 -3
-136 -8 -266 -12 -203 -5 -238 -4 -251 9 -33 33 -41 132 -40 482 0 221 -3 344
-10 352 -7 9 -40 13 -98 13 -143 0 -160 12 -180 135 -21 125 -10 255 23 278
18 12 1176 -2 1208 -14z"/>
<path d="M4057 6153 c-21 -20 10 -153 35 -153 5 0 13 11 20 25 9 19 7 34 -6
69 -18 46 -38 71 -49 59z"/>
<path d="M4081 5845 c1 -28 -3 -59 -9 -71 -10 -18 -5 -24 44 -52 31 -18 60
-32 65 -32 12 0 12 17 0 24 -5 4 -22 38 -37 76 -15 38 -36 77 -46 87 -19 17
-19 16 -17 -32z"/>
<path d="M500 2433 c-34 -12 -40 -36 -40 -162 0 -69 -5 -246 -11 -392 -7 -147
-9 -278 -5 -293 5 -21 12 -26 39 -26 65 0 94 58 121 243 24 163 29 284 17 411
-17 177 -54 243 -121 219z"/>
<path d="M2228 10750 c20 -9 22 -15 22 -99 0 -73 -4 -96 -21 -125 -21 -36 -22
-96 -4 -183 15 -69 107 -129 258 -167 150 -39 342 -64 363 -49 14 11 54 95 54
115 0 8 -9 35 -19 59 -14 33 -21 80 -26 184 -7 138 -7 141 19 189 14 27 26 55
26 62 0 7 10 15 23 17 12 2 -144 5 -348 5 -230 0 -361 -3 -347 -8z"/>
<path d="M8613 10735 c39 -34 73 -41 97 -20 17 16 20 15 47 -15 15 -17 33 -47
40 -66 7 -19 23 -49 38 -68 45 -60 125 -227 125 -263 0 -19 12 -69 26 -110 19
-56 37 -86 68 -117 35 -33 45 -52 55 -101 21 -97 31 -114 75 -138 36 -19 38
-22 19 -25 -23 -3 -27 -10 -24 -49 3 -25 -15 -39 -23 -18 -9 24 -34 17 -51
-15 -19 -37 -19 -69 1 -109 17 -34 12 -101 -7 -101 -5 0 -18 -19 -28 -43 -10
-23 -25 -48 -33 -54 -8 -7 -25 -35 -38 -63 -13 -28 -28 -49 -34 -47 -6 2 -13
23 -16 48 -5 40 -8 44 -35 47 -16 1 -41 8 -53 14 -39 20 -120 130 -134 183 -9
34 -19 50 -36 56 -21 8 -23 14 -17 42 10 45 11 124 2 133 -4 4 -26 7 -48 6
-44 -3 -120 -54 -151 -101 -17 -25 -48 -116 -48 -141 0 -6 23 -35 50 -64 47
-50 50 -56 50 -106 0 -59 7 -59 30 2 8 23 20 43 26 45 6 2 19 -14 29 -36 9
-22 30 -52 45 -68 53 -55 59 -73 51 -140 -10 -84 -21 -91 -21 -14 0 69 -13
102 -60 146 -25 24 -33 27 -40 16 -4 -8 -5 -24 0 -35 4 -12 5 -36 2 -55 -3
-25 4 -51 29 -102 29 -60 42 -73 69 -71 3 0 0 -54 -6 -121 -11 -109 -10 -126
4 -157 23 -47 76 -72 176 -80 61 -6 83 -12 91 -25 36 -61 57 -82 115 -114 96
-52 151 -51 249 8 51 30 89 45 120 48 25 2 85 9 134 15 l87 11 31 53 c16 29
34 75 38 101 4 26 20 70 36 97 26 44 27 51 16 83 -18 49 -9 50 24 3 21 -30 30
-57 33 -98 3 -33 12 -68 24 -84 10 -15 25 -46 33 -69 22 -63 53 -109 101 -154
26 -23 49 -56 56 -80 8 -24 23 -44 38 -52 55 -27 62 -48 54 -154 l-6 -97 47
-87 c48 -87 48 -87 81 -80 39 7 43 -4 18 -53 -8 -18 -14 -44 -12 -59 3 -26 7
-28 52 -31 27 -2 62 2 77 9 50 20 149 17 190 -7 55 -33 101 -38 130 -15 14 10
36 21 49 23 l25 3 3 248 2 247 -27 0 c-16 0 -50 11 -77 25 -49 25 -49 25 -80
6 -32 -20 -46 -40 -70 -103 -11 -27 -21 -38 -35 -38 -25 0 -27 13 -6 30 18 15
20 71 3 89 -10 11 -10 14 -1 18 7 3 22 12 33 21 31 26 11 75 -38 95 -36 14
-37 14 -13 24 38 15 71 3 94 -33 15 -23 32 -36 55 -40 18 -4 55 -22 82 -40 82
-57 80 -61 80 161 l0 195 -29 0 c-16 0 -34 6 -41 14 -6 8 -24 16 -38 18 -39 4
-30 22 16 31 37 7 40 11 46 48 5 29 12 43 26 46 19 5 20 14 20 134 l0 129 -33
0 c-40 0 -57 -15 -57 -52 0 -22 -4 -28 -23 -28 -29 0 -67 26 -67 47 0 8 10 28
21 45 21 29 24 29 90 26 l69 -3 0 723 0 722 -699 0 -699 0 8 -35 c4 -20 14
-42 20 -51 16 -19 10 -26 -11 -11 -21 16 -39 51 -39 76 0 21 -2 21 -397 21
l-398 -1 28 -24z m804 -871 c-3 -3 -12 -4 -19 -1 -8 3 -5 6 6 6 11 1 17 -2 13
-5z m1137 -651 c-21 -15 -68 -18 -59 -3 4 6 21 16 38 24 36 15 51 1 21 -21z"/>
<path d="M8392 10644 c-8 -8 -11 -22 -8 -31 6 -14 8 -14 21 3 26 35 15 60 -13
28z"/>
<path d="M8716 10073 c-3 -4 -16 -8 -27 -10 -34 -5 -89 -71 -89 -107 0 -45 12
-58 43 -51 14 4 31 13 37 20 21 25 70 136 65 146 -7 11 -19 12 -29 2z"/>
<path d="M8845 10046 c-72 -36 -83 -48 -100 -102 -19 -64 -18 -131 3 -174 15
-30 25 -37 82 -52 36 -9 91 -28 123 -42 42 -19 57 -22 57 -12 0 7 12 31 26 52
42 61 45 83 18 149 -15 36 -24 79 -24 111 0 63 -18 80 -91 89 -34 5 -55 1 -94
-19z"/>
<path d="M4510 9097 c-47 -23 -93 -54 -104 -70 l-20 -27 21 -22 c20 -19 34
-22 120 -22 87 -1 104 2 153 26 80 38 102 68 87 114 -10 29 -48 44 -115 44
-47 0 -72 -8 -142 -43z"/>
<path d="M5338 8963 c7 -3 16 -2 19 1 4 3 -2 6 -13 5 -11 0 -14 -3 -6 -6z"/>
<path d="M9772 8890 c-5 -14 -14 -43 -20 -65 -5 -22 -15 -54 -22 -71 -20 -46
-5 -81 58 -140 52 -49 137 -94 177 -94 24 0 17 37 -13 72 -71 83 -86 110 -93
169 -4 39 -15 68 -30 87 -13 16 -29 38 -35 48 -11 18 -12 18 -22 -6z"/>
<path d="M5620 8660 c0 -11 5 -20 10 -20 6 0 10 9 10 20 0 11 -4 20 -10 20 -5
0 -10 -9 -10 -20z"/>
<path d="M10777 7903 c-12 -11 -8 -40 8 -53 13 -11 15 -7 15 24 0 34 -8 44
-23 29z"/>
<path d="M10249 2480 c-27 -16 -48 -90 -58 -210 -14 -151 -14 -539 0 -654 11
-95 39 -173 64 -182 31 -12 62 5 78 43 57 130 71 507 31 812 -17 127 -32 174
-62 190 -25 13 -32 13 -53 1z"/>
</g>
</svg>
