<?xml version="1.0" standalone="no"?>
<!DOCTYPE svg PUBLIC "-//W3C//DTD SVG 20010904//EN"
 "http://www.w3.org/TR/2001/REC-SVG-20010904/DTD/svg10.dtd">
<svg version="1.0" xmlns="http://www.w3.org/2000/svg"
 width="500.000000pt" height="500.000000pt" viewBox="0 0 500.000000 500.000000"
 preserveAspectRatio="xMidYMid meet">

<g transform="translate(0.000000,500.000000) scale(0.100000,-0.100000)"
fill="#000000" stroke="none">
<path d="M0 3985 c0 -558 3 -1015 8 -1015 4 0 19 6 33 14 40 20 125 39 148 31
34 -11 24 -23 -25 -31 -46 -6 -57 -15 -146 -111 -21 -22 -21 -24 -3 -43 18
-19 18 -22 2 -56 -15 -31 -17 -102 -17 -763 l0 -728 193 0 c200 -1 212 -2 392
-52 61 -17 122 -31 136 -31 35 0 90 -24 112 -48 10 -11 31 -23 45 -27 50 -12
72 -43 72 -99 -1 -28 -7 -62 -14 -74 -15 -28 -10 -179 7 -200 8 -10 18 5 41
60 17 40 35 79 40 87 5 7 10 47 12 89 3 65 8 81 32 111 15 20 34 52 42 71 25
66 28 68 178 74 75 3 190 8 255 12 108 6 122 4 170 -16 73 -32 289 -40 400
-16 42 9 124 19 184 20 59 2 142 10 183 19 55 12 119 15 235 13 156 -2 163 -3
265 -39 100 -35 242 -78 321 -96 19 -4 41 -11 47 -15 20 -12 101 50 134 105
25 41 76 49 285 49 143 0 201 -4 243 -17 74 -22 98 -53 67 -85 -14 -13 -24
-52 -33 -122 -3 -22 -12 -52 -20 -68 -21 -40 -10 -86 23 -99 30 -11 55 6 81
56 25 49 140 155 168 155 13 0 32 8 42 17 50 50 96 75 150 83 71 12 113 22
177 45 39 14 81 18 193 19 l142 0 0 843 c0 833 -1 843 -20 843 -11 0 -37 9
-57 20 -21 11 -47 20 -58 20 -16 0 -17 2 -5 10 8 5 43 7 77 5 l63 -4 0 999 0
1000 -2500 0 -2500 0 0 -1015z m1645 925 c33 -6 90 -18 127 -27 93 -21 205
-13 247 16 39 28 128 38 191 21 62 -16 173 -38 247 -48 48 -6 93 -3 200 15
170 28 195 28 275 3 87 -27 320 -27 463 0 114 22 287 20 390 -4 133 -31 207
-38 288 -27 43 6 90 17 105 25 45 22 90 26 135 12 23 -8 54 -17 70 -20 23 -5
27 -12 27 -39 0 -18 -10 -60 -22 -92 -23 -65 -24 -96 -13 -318 7 -134 7 -139
-14 -153 -12 -9 -21 -26 -21 -42 0 -14 -10 -57 -22 -95 -18 -57 -20 -75 -10
-99 9 -25 8 -35 -3 -52 -19 -27 -19 -116 0 -142 15 -20 21 -74 7 -74 -21 0
-52 -43 -52 -71 0 -17 -5 -40 -11 -51 -14 -27 -13 -236 2 -293 6 -22 13 -49
15 -60 3 -12 -5 -36 -20 -58 -21 -31 -26 -50 -26 -103 0 -40 -6 -77 -16 -96
-13 -25 -13 -35 -3 -60 9 -22 9 -38 1 -66 -13 -46 -14 -159 -1 -167 15 -10 10
-41 -11 -68 -22 -28 -29 -75 -33 -225 -2 -99 0 -95 -62 -107 -83 -17 -106 -17
-145 -1 -51 20 -189 21 -245 1 -22 -8 -48 -15 -57 -15 -10 0 -46 -10 -79 -21
-48 -17 -76 -20 -126 -16 -36 3 -70 10 -76 16 -6 6 -23 11 -38 11 -15 0 -40 5
-56 11 -31 12 -204 33 -270 32 -27 0 -51 -8 -69 -22 -19 -15 -42 -22 -73 -22
-90 0 -184 -8 -210 -18 -104 -39 -154 -38 -306 8 -51 15 -110 22 -232 27 -149
7 -165 6 -183 -11 -17 -16 -44 -19 -176 -23 -147 -4 -158 -3 -202 18 -41 21
-58 23 -171 22 -69 -1 -139 -6 -156 -10 -21 -6 -47 -3 -90 11 -65 21 -100 51
-89 76 4 9 8 54 9 100 1 75 -1 86 -22 107 -13 13 -23 30 -23 38 0 8 -5 16 -11
18 -21 7 -21 94 0 135 14 29 17 48 12 73 -9 45 -30 49 -85 16 -24 -14 -63 -28
-87 -32 -24 -3 -89 -17 -143 -30 -54 -13 -121 -24 -148 -24 -84 0 -155 49
-181 125 -26 73 -29 113 -12 137 8 13 15 35 15 49 0 63 94 94 266 88 98 -4
117 -8 186 -38 66 -29 79 -32 93 -21 12 10 15 23 10 48 -3 18 -2 39 3 45 12
15 36 194 36 267 0 73 -13 152 -24 145 -12 -8 -40 90 -40 140 0 27 10 62 29
97 28 53 29 58 24 158 -6 98 -8 107 -39 150 -22 31 -31 53 -28 67 3 11 -1 34
-10 51 -20 39 -20 76 0 107 9 14 19 40 24 59 10 44 -11 149 -40 204 -18 34
-20 45 -10 57 7 9 9 26 5 45 -9 40 12 71 61 95 30 14 52 16 118 11 44 -4 98
-10 118 -15 21 -5 58 -5 85 1 26 5 62 6 79 3 17 -3 44 0 60 6 27 11 176 29
199 24 6 -1 37 -8 70 -15z m-1491 -476 c9 -8 16 -31 16 -50 0 -33 -1 -34 -17
-19 -9 10 -17 32 -18 51 -1 39 -1 39 19 18z m290 -169 c20 -8 36 -17 36 -20 0
-8 -188 0 -196 8 -28 27 100 37 160 12z m4259 -1099 c22 -15 77 -120 77 -148
0 -6 -11 -34 -24 -62 -13 -28 -29 -63 -35 -78 -27 -70 -121 -80 -361 -40 -64
10 -90 51 -84 130 3 31 13 74 21 95 9 20 13 40 10 43 -11 11 13 44 46 65 29
19 44 20 178 16 113 -4 153 -9 172 -21z m253 -573 c-26 -14 -46 -11 -46 7 0 9
50 18 64 11 5 -2 -3 -10 -18 -18z m-4696 9 c0 -11 65 -43 125 -61 28 -8 85
-15 128 -15 77 -1 78 -1 113 37 28 29 41 36 57 31 33 -10 41 -21 52 -72 11
-52 24 -59 108 -61 75 -2 125 -30 117 -66 -1 -5 -2 -33 -1 -62 1 -46 -2 -54
-31 -78 -31 -26 -36 -27 -113 -22 -115 9 -183 31 -196 65 -6 15 -8 38 -5 52 2
14 2 31 -2 36 -14 22 -124 85 -183 104 -57 20 -203 92 -223 111 -6 5 3 9 22 9
18 0 32 -4 32 -8z m625 -32 c3 -5 -1 -10 -9 -10 -8 0 -18 5 -21 10 -3 6 1 10
9 10 8 0 18 -4 21 -10z m3605 -47 c0 5 12 -1 26 -12 31 -25 69 -26 144 -6 30
8 72 15 92 15 20 0 40 5 43 10 9 15 25 12 25 -4 0 -18 -68 -54 -155 -80 -69
-22 -70 -22 -75 -61 -7 -51 -14 -62 -53 -80 -18 -8 -47 -26 -66 -40 -29 -21
-45 -25 -107 -25 -53 0 -77 4 -88 16 -19 19 -19 15 0 64 14 35 15 45 4 66 -12
21 -11 28 7 52 15 21 32 29 71 34 30 5 62 17 74 28 39 36 43 38 50 26 4 -6 8
-7 8 -3z m-1314 -247 c61 -18 200 -37 319 -43 70 -4 100 -1 135 12 121 46 267
54 400 22 69 -17 94 -38 84 -71 -4 -11 -8 -40 -10 -65 -2 -25 -3 -48 -4 -51 0
-3 -14 -14 -31 -24 -27 -16 -63 -18 -362 -21 -183 -2 -456 -6 -607 -10 -248
-5 -280 -4 -330 12 -50 16 -56 21 -64 55 -12 48 3 83 40 92 15 4 39 15 53 25
25 17 37 22 146 62 61 22 164 24 231 5z m-916 -20 c146 -57 193 -85 210 -126
15 -37 9 -55 -27 -73 -45 -23 -154 -28 -738 -30 -648 -2 -605 -9 -605 99 0
101 6 106 130 119 122 13 275 9 351 -9 108 -25 382 -18 484 12 81 24 146 27
195 8z"/>
<path d="M1211 4807 c-5 -5 -7 -16 -4 -23 3 -8 0 -14 -6 -14 -6 0 -23 -13 -38
-30 -15 -17 -36 -30 -50 -30 -27 0 -63 -33 -63 -58 0 -10 9 -45 19 -78 11 -32
22 -76 26 -96 3 -21 10 -39 15 -39 6 -1 27 -3 48 -5 20 -2 59 -6 85 -10 83
-11 127 25 127 102 0 15 11 29 34 43 36 23 51 58 40 94 -9 32 -34 57 -56 57
-23 0 -82 55 -74 69 4 5 1 13 -6 17 -18 11 -86 12 -97 1z"/>
<path d="M2925 4672 c-60 -11 -47 -68 25 -106 26 -14 64 -36 85 -50 21 -14 47
-26 59 -26 12 0 28 -5 36 -10 23 -15 -1 -26 -71 -34 -186 -21 -286 -60 -318
-124 -7 -13 -25 -25 -41 -29 -34 -6 -84 -65 -70 -79 6 -6 4 -18 -6 -32 -21
-30 -93 -31 -119 -2 -17 19 -17 22 -2 37 15 15 14 19 -13 59 -33 47 -85 84
-121 84 -50 0 -69 11 -69 40 0 15 9 39 20 53 22 28 25 43 10 52 -5 3 -52 -12
-104 -35 -52 -22 -107 -40 -121 -40 -14 0 -38 -6 -53 -14 -15 -7 -62 -16 -105
-20 -46 -4 -94 -15 -115 -26 -27 -14 -64 -21 -138 -24 -149 -6 -207 -39 -151
-87 l22 -19 -36 -33 c-32 -29 -36 -38 -42 -98 -6 -64 -30 -123 -63 -156 -7 -8
-14 -22 -14 -31 -1 -22 -24 -52 -51 -66 -45 -23 -29 -31 59 -31 85 1 89 2 152
42 44 27 82 43 115 48 62 8 80 18 72 39 -8 21 -32 20 -119 -4 -40 -11 -76 -20
-80 -20 -10 0 3 33 16 42 6 4 9 31 8 61 -2 41 4 65 23 100 13 26 22 53 20 59
-3 7 -1 19 3 26 12 18 112 51 179 58 105 11 227 35 302 60 40 13 79 24 87 24
25 0 64 -23 69 -42 4 -11 16 -18 30 -18 14 0 42 -9 64 -20 29 -16 41 -29 46
-53 12 -56 9 -94 -8 -112 -22 -21 -22 -41 1 -50 38 -15 -34 -26 -163 -24 -72
1 -136 -1 -142 -4 -6 -4 -67 -11 -135 -16 -115 -8 -126 -10 -151 -35 l-26 -26
27 0 c45 -1 173 -28 237 -50 62 -22 94 -26 182 -22 48 2 55 5 75 36 22 33 24
34 101 38 50 3 93 0 116 -8 47 -16 119 -7 133 16 12 19 30 17 85 -11 21 -11
49 -19 64 -19 27 0 79 -34 79 -51 0 -20 38 -51 57 -45 10 2 54 6 98 8 44 1 85
6 90 10 71 56 107 76 145 82 91 14 100 17 100 36 0 10 -10 21 -22 25 -47 15
-465 34 -512 24 -12 -3 -20 2 -22 15 -5 32 -31 50 -70 48 -54 -4 -74 6 -74 34
0 39 17 62 61 85 24 12 39 25 36 33 -8 20 13 40 73 68 14 6 50 23 80 37 49 23
66 26 154 24 120 -2 266 -38 266 -64 0 -21 43 -38 100 -40 71 -2 80 0 80 16 0
9 -8 18 -17 21 -35 12 -123 57 -123 64 0 4 -18 12 -40 19 -39 11 -53 29 -27
33 6 1 86 2 177 2 161 1 165 2 168 23 4 30 -44 44 -160 47 -51 1 -109 8 -128
14 -19 7 -105 35 -190 63 -85 29 -166 60 -179 70 -13 11 -29 19 -37 19 -7 0
-14 4 -16 8 -1 4 -12 6 -23 4z m-427 -649 c2 -8 -6 -13 -22 -13 -17 0 -26 5
-26 16 0 19 41 16 48 -3z m237 8 c7 -12 -26 -31 -54 -31 -25 0 -38 20 -20 31
19 12 66 11 74 0z"/>
<path d="M4026 4643 c-41 -5 -68 -28 -85 -74 -12 -34 -4 -44 42 -55 21 -5 38
-13 38 -19 0 -14 67 -47 79 -40 6 3 10 15 10 26 0 11 4 18 9 15 20 -13 29 100
11 135 -11 19 -20 20 -104 12z"/>
<path d="M1079 4172 c-25 -33 -27 -127 -2 -136 18 -7 93 1 110 12 6 4 14 22
18 40 6 30 3 37 -33 71 -46 44 -66 47 -93 13z"/>
<path d="M3569 4122 c-5 -14 -9 -36 -7 -48 2 -14 -5 -29 -17 -38 -11 -8 -18
-16 -15 -18 3 -2 25 -20 50 -39 25 -20 54 -39 65 -44 19 -8 19 -9 -2 -12 -23
-4 -41 -42 -29 -62 11 -17 69 -23 101 -11 l30 11 -36 34 -36 33 33 16 c19 8
34 20 34 25 0 16 -52 61 -77 67 -13 4 -23 14 -23 24 0 66 -52 112 -71 62z"/>
<path d="M3451 3961 c-19 -12 -4 -31 25 -31 22 0 23 3 14 20 -12 22 -18 24
-39 11z"/>
<path d="M2542 3782 c-10 -7 -8 -15 8 -35 29 -36 62 -35 77 2 9 26 8 30 -11
35 -30 8 -59 7 -74 -2z"/>
<path d="M2420 3615 c-14 -8 -32 -17 -40 -21 -8 -4 -26 -15 -40 -23 -46 -30
-115 -42 -283 -48 -142 -5 -178 -3 -233 12 -58 16 -67 16 -82 2 -9 -8 -43 -21
-76 -28 -107 -23 -129 -71 -39 -85 62 -9 105 -28 120 -52 7 -11 29 -25 50 -32
21 -6 63 -24 93 -40 30 -16 73 -32 95 -36 22 -3 66 -20 99 -36 56 -28 62 -29
150 -23 103 7 203 -5 288 -36 65 -24 113 -19 223 22 52 20 77 23 186 21 120
-1 128 0 180 27 30 15 77 33 104 40 28 7 78 28 112 47 34 19 68 34 76 34 8 0
27 16 41 35 23 30 33 35 69 35 23 -1 72 -7 110 -14 55 -11 69 -11 78 0 8 10 2
17 -26 29 -21 8 -41 15 -46 15 -5 0 -17 4 -27 9 -32 17 -96 44 -121 51 -20 5
-26 13 -24 33 2 24 -2 27 -31 27 -18 0 -41 -7 -52 -15 -10 -8 -26 -15 -35 -15
-9 0 -45 -9 -79 -20 -34 -11 -78 -20 -97 -20 -27 0 -34 -4 -31 -17 5 -25 69
-22 177 7 80 21 85 21 121 5 47 -21 43 -42 -8 -51 -63 -10 -106 -26 -139 -52
-18 -13 -66 -34 -107 -47 -41 -13 -85 -30 -98 -39 -12 -9 -35 -16 -50 -16 -15
0 -53 -7 -85 -16 -32 -9 -78 -16 -103 -15 -24 1 -82 -5 -130 -14 -75 -15 -92
-15 -140 -3 -34 9 -71 11 -95 7 -86 -15 -410 41 -515 89 -25 11 -60 23 -78 27
-27 5 -32 10 -27 26 7 21 -26 39 -70 39 -24 0 -42 27 -27 42 6 6 46 7 93 3 46
-4 147 -6 224 -5 119 1 145 4 173 20 18 11 44 20 58 20 14 0 35 6 47 12 12 7
47 17 77 23 59 11 74 30 45 59 -20 19 -23 20 -55 1z"/>
<path d="M2703 3596 c-26 -24 -29 -50 -11 -88 12 -25 16 -26 123 -30 150 -5
209 0 195 18 -7 7 -32 16 -57 20 -60 9 -157 47 -197 77 l-31 24 -22 -21z"/>
<path d="M2660 3455 c0 -27 9 -32 27 -14 14 14 6 39 -13 39 -8 0 -14 -10 -14
-25z"/>
<path d="M3697 3120 c-26 -16 -48 -34 -48 -40 -1 -5 -2 -13 -3 -17 -3 -15 -29
-58 -43 -72 -29 -28 -1 -154 37 -166 11 -4 19 -13 18 -22 -2 -8 8 -24 22 -34
21 -16 36 -18 98 -12 64 5 77 10 109 39 20 19 45 37 56 40 15 5 18 12 13 40
-4 20 0 56 9 89 25 86 7 167 -40 179 -11 3 -56 6 -101 6 -72 0 -85 -3 -127
-30z"/>
<path d="M880 3098 c0 -34 7 -50 31 -75 30 -33 49 -42 49 -24 0 5 -6 11 -12
14 -10 3 -10 9 -1 25 8 13 9 23 3 27 -13 8 -13 35 0 35 6 0 10 -7 10 -16 0 -8
5 -12 10 -9 20 12 9 32 -25 48 -56 27 -65 23 -65 -25z"/>
<path d="M2540 3103 c1 -39 22 -63 56 -63 40 0 75 11 69 21 -3 4 -12 6 -19 3
-17 -6 -38 20 -34 43 2 14 -5 19 -34 21 -36 3 -38 2 -38 -25z"/>
<path d="M1147 3103 c-4 -3 -7 -19 -7 -34 0 -15 -4 -31 -10 -34 -19 -12 -11
-44 13 -49 101 -21 137 -13 161 35 17 34 12 39 -64 68 -57 22 -82 26 -93 14z"/>
<path d="M2176 3001 c-28 -44 287 -61 341 -18 28 21 -1 30 -76 22 -99 -10
-114 -10 -192 -1 -46 6 -69 5 -73 -3z"/>
<path d="M2940 3003 c-58 -6 -68 -12 -48 -27 14 -10 31 -10 88 3 107 24 85 38
-40 24z"/>
<path d="M2727 2983 c-34 -9 -5 -23 48 -23 63 0 81 15 27 24 -40 6 -47 6 -75
-1z"/>
<path d="M2681 2806 c-14 -17 -9 -19 94 -36 81 -14 120 -11 120 9 0 31 -191
55 -214 27z"/>
<path d="M1472 2792 c-69 -29 -81 -43 -75 -95 4 -31 0 -52 -11 -69 -15 -23
-15 -28 -1 -54 8 -16 15 -42 15 -59 0 -23 8 -35 33 -50 76 -46 114 -51 177
-24 26 11 56 29 64 38 15 16 15 20 -4 44 -29 37 -25 61 20 108 58 61 53 98
-15 115 -17 4 -46 20 -66 35 -42 33 -75 36 -137 11z"/>
<path d="M2318 2783 c-22 -6 -23 -19 -2 -27 23 -9 82 -7 102 3 9 5 28 14 42
19 20 9 11 11 -50 10 -41 0 -83 -2 -92 -5z"/>
<path d="M3625 2580 c-3 -10 -21 -30 -40 -45 -38 -28 -47 -68 -19 -79 35 -13
94 -6 111 14 17 20 46 101 38 108 -2 3 -22 8 -44 12 -34 6 -41 4 -46 -10z"/>
<path d="M3357 1053 c-10 -9 -9 -53 1 -53 9 0 8 -62 -1 -77 -4 -7 -2 -15 4
-19 15 -9 5 -79 -25 -173 -18 -56 -30 -77 -49 -87 -40 -22 -49 -114 -11 -114
27 0 72 -29 79 -51 5 -14 1 -25 -12 -34 -31 -24 -60 -18 -88 19 -21 27 -36 35
-83 44 -147 28 -162 33 -184 72 -16 29 -18 29 -81 23 -49 -4 -76 -1 -110 12
-39 15 -53 16 -93 6 -32 -8 -50 -9 -59 -1 -29 24 -85 -21 -85 -69 0 -24 -4
-25 -31 -10 -11 5 -17 14 -14 18 10 18 -45 17 -82 0 -21 -10 -43 -18 -50 -19
-11 0 -27 -65 -21 -89 2 -7 -6 -18 -17 -24 -11 -7 -26 -20 -33 -29 -8 -11 -26
-18 -47 -18 -27 0 -34 4 -37 23 -2 14 -11 23 -24 25 -20 3 -22 10 -23 70 -1
37 -4 80 -6 96 -2 16 -5 96 -6 179 -2 131 -5 152 -22 174 -16 20 -26 24 -52
20 -21 -4 -43 1 -62 13 -26 15 -32 16 -49 3 -16 -12 -19 -29 -22 -111 -2 -53
2 -124 8 -157 6 -33 13 -81 16 -106 3 -25 11 -75 18 -110 15 -70 9 -89 -28
-89 -29 0 -46 18 -46 51 0 14 -12 48 -27 75 -14 27 -30 71 -34 98 -14 85 -58
125 -79 72 -8 -23 -50 -55 -50 -39 0 4 -5 2 -12 -5 -7 -7 -11 -37 -10 -71 2
-58 -12 -89 -24 -57 -7 19 -31 20 -64 1 -24 -13 -24 -14 -5 -21 25 -9 55 -39
55 -55 0 -7 -9 -9 -24 -5 -29 7 -76 -12 -76 -31 0 -16 -136 -19 -142 -3 -2 6
-31 15 -65 20 -34 4 -66 11 -71 14 -16 9 0 58 19 63 28 8 23 23 -11 36 -32 12
-37 26 -19 59 8 14 8 23 0 31 -8 8 -11 8 -11 0 0 -6 -15 -9 -40 -6 -35 4 -40
2 -40 -16 0 -12 -6 -21 -15 -21 -8 0 -14 -3 -14 -7 3 -19 -2 -34 -9 -29 -4 2
-9 -3 -10 -12 -6 -53 -15 -93 -23 -98 -8 -5 -11 14 -12 73 0 27 -49 45 -102
36 -38 -6 -55 -38 -55 -103 0 -20 -11 -58 -25 -84 -14 -26 -25 -54 -25 -62 0
-7 -7 -14 -15 -14 -19 0 -21 98 -3 133 25 48 28 58 28 79 0 47 -13 53 -107 51
-48 -1 -82 1 -75 4 10 4 10 10 -3 29 -17 26 -14 29 29 36 37 6 30 28 -8 28
-31 0 -36 3 -36 23 l-1 22 -18 -23 c-15 -17 -30 -22 -70 -22 -28 0 -51 -4 -51
-8 0 -14 23 -32 42 -32 10 0 18 -6 18 -13 0 -7 31 -27 69 -45 47 -21 69 -37
67 -47 -3 -21 -63 -57 -101 -62 -45 -5 -58 -12 -52 -27 9 -24 -65 -50 -121
-43 -28 3 -54 1 -59 -4 -6 -6 -35 -12 -64 -13 -29 -2 -54 -7 -56 -12 -2 -5
-21 -8 -44 -6 -32 3 -46 -1 -66 -19 -25 -24 -25 -26 -19 -131 l6 -106 -31 -26
c-34 -29 -46 -32 -46 -13 0 6 -4 38 -8 69 -6 49 -5 59 9 64 16 6 16 8 0 25
-20 23 -29 93 -17 139 9 35 10 35 67 35 48 0 60 4 75 24 15 19 25 23 57 19 36
-4 94 15 94 31 0 4 -5 12 -11 18 -8 8 9 10 62 8 81 -3 99 1 99 21 0 8 7 14 15
14 12 0 15 9 14 38 -4 56 -15 62 -112 58 -93 -4 -107 -8 -107 -35 0 -45 -80
-60 -108 -20 -11 16 -20 18 -50 13 -35 -6 -80 -34 -55 -34 6 0 14 -7 17 -16 3
-8 2 -12 -3 -9 -5 3 -12 1 -16 -5 -8 -13 -45 -13 -45 1 0 6 -9 8 -20 4 -12 -4
-31 0 -45 9 -33 21 -35 21 -35 -13 0 -20 6 -32 19 -36 30 -9 33 -32 5 -39
l-24 -6 0 -215 0 -215 565 0 c429 0 570 3 585 12 15 10 26 10 52 0 24 -9 300
-12 1150 -12 1157 0 1145 -1 1107 37 -17 17 5 25 45 17 21 -3 41 -16 51 -30
18 -27 40 -31 49 -9 8 21 106 21 106 0 0 -13 71 -15 580 -15 466 0 582 3 586
13 5 14 70 11 80 -4 3 -5 14 -9 25 -9 18 0 19 8 19 163 l0 162 -53 18 c-28 10
-58 18 -65 19 -7 1 -15 12 -18 25 -4 13 -15 28 -25 34 -11 5 -19 20 -19 34 0
18 -11 32 -38 50 -36 24 -74 95 -51 95 14 0 11 27 -3 32 -19 7 -38 -2 -38 -18
0 -8 -6 -14 -13 -14 -7 0 -18 -9 -25 -20 -8 -13 -8 -20 -2 -20 6 0 5 -6 -2
-14 -13 -14 -42 -10 -33 4 3 4 -2 11 -11 14 -18 7 -57 -11 -49 -24 3 -4 2 -15
-1 -24 -5 -12 -13 -8 -41 20 -32 32 -34 38 -28 75 7 39 6 40 -16 37 -21 -3
-24 -8 -23 -48 2 -84 16 -165 35 -206 22 -47 24 -92 5 -117 -17 -22 -77 -33
-101 -19 -17 9 -65 112 -65 138 0 22 -42 28 -187 25 -147 -3 -213 8 -213 34 0
22 -41 40 -89 40 -26 0 -46 5 -48 13 -3 8 6 12 26 12 34 0 56 28 46 60 -5 16
-15 20 -51 20 -32 0 -44 -4 -44 -15 0 -11 -13 -15 -52 -17 -29 0 -57 -2 -63
-3 -5 -2 -16 -3 -22 -4 -7 0 -13 -10 -13 -21 0 -11 -4 -20 -10 -20 -11 0 -21
54 -17 98 2 17 0 32 -5 32 -4 0 -8 -8 -8 -17 0 -14 -2 -15 -9 -4 -13 20 -19 2
-17 -49 1 -25 -4 -67 -12 -95 -9 -27 -17 -57 -19 -65 -3 -8 -6 -62 -8 -118 -3
-78 -9 -117 -26 -158 -13 -30 -27 -54 -31 -54 -19 0 -68 31 -76 48 -5 9 -8 46
-6 82 1 36 2 93 3 128 1 57 3 63 26 72 14 5 25 16 25 24 0 8 8 21 18 28 15 12
17 36 19 213 1 140 6 206 15 223 11 22 10 26 -15 46 -15 12 -27 31 -27 42 0
42 -50 81 -73 57z m-2105 -495 c-11 -11 -52 -2 -52 11 0 4 14 6 31 3 20 -3 27
-8 21 -14z m1547 -10 c20 -13 49 -27 66 -33 19 -6 36 -23 47 -44 17 -33 17
-35 -2 -48 -12 -9 -20 -26 -20 -43 0 -41 -10 -60 -31 -60 -12 0 -18 6 -17 18
2 9 -1 36 -5 59 -9 43 -23 53 -78 53 -41 0 -96 -72 -84 -111 4 -11 17 -27 31
-35 32 -21 30 -46 -5 -82 l-30 -29 -34 36 c-30 31 -34 40 -25 61 5 13 16 32
25 42 14 15 12 19 -21 48 -31 28 -36 38 -36 76 0 37 4 46 23 53 13 5 34 7 48
4 25 -5 32 0 67 42 18 21 38 19 81 -7z m1781 -33 c-7 -9 -15 -13 -19 -10 -3 3
1 10 9 15 21 14 24 12 10 -5z m60 -5 c0 -5 -2 -10 -4 -10 -3 0 -8 5 -11 10 -3
6 -1 10 4 10 6 0 11 -4 11 -10z m40 -60 c0 -5 -7 -10 -16 -10 -8 0 -12 5 -9
10 3 6 10 10 16 10 5 0 9 -4 9 -10z m-2513 -225 c18 0 40 -7 49 -16 14 -15 14
-17 -10 -23 -31 -8 -35 -36 -6 -36 21 0 28 -16 9 -22 -16 -5 -2 -44 23 -68
l21 -19 -25 -10 c-35 -13 -78 -16 -115 -6 -38 9 -42 20 -13 35 27 14 25 22 -8
56 -36 36 -45 59 -27 74 7 6 10 20 8 31 -5 20 -3 21 28 13 19 -5 49 -8 66 -9z
m2410 -26 c3 -10 15 -19 27 -21 11 -2 20 -7 18 -13 -4 -12 -53 -10 -61 3 -3 5
-18 12 -33 16 -31 7 -38 32 -10 38 28 6 54 -4 59 -23z m-3077 -28 c0 -13 -55
-24 -80 -16 -37 12 -21 25 30 25 28 0 50 -4 50 -9z m126 -2 c3 -6 1 -15 -6
-19 -15 -9 -81 10 -74 22 8 12 72 10 80 -3z m-303 -6 c-7 -2 -21 -2 -30 0 -10
3 -4 5 12 5 17 0 24 -2 18 -5z m2987 -52 c0 -33 -11 -51 -31 -51 -10 0 -19 5
-19 10 0 6 4 10 10 10 5 0 12 11 16 25 7 29 24 33 24 6z m-1024 -32 c12 -20
-21 -41 -62 -37 l-39 3 23 23 c23 23 66 30 78 11z"/>
<path d="M205 843 c-4 -10 -9 -39 -10 -65 -3 -42 0 -51 27 -73 32 -27 93 -34
130 -14 40 22 57 122 24 147 -6 5 -45 12 -87 16 -68 6 -77 5 -84 -11z"/>
<path d="M2736 824 c-17 -16 -20 -26 -16 -59 4 -45 74 -61 110 -25 26 26 25
32 -6 69 -29 34 -63 40 -88 15z"/>
<path d="M2504 789 c-10 -16 17 -60 35 -57 23 5 26 40 5 55 -22 16 -31 16 -40
2z"/>
<path d="M4286 743 c-60 -21 -70 -32 -50 -54 22 -24 12 -45 -28 -62 -49 -21
-85 -64 -72 -85 15 -23 171 -64 195 -51 40 21 58 64 60 137 2 69 -9 102 -34
102 -5 0 -15 6 -21 13 -9 11 -18 11 -50 0z"/>
<path d="M4897 704 c-45 -23 -47 -26 -31 -39 15 -11 17 -17 7 -36 -23 -47 -32
-95 -25 -128 7 -31 12 -35 77 -57 39 -13 71 -23 73 -24 1 0 2 70 2 155 l0 155
-27 0 c-16 -1 -50 -12 -76 -26z"/>
<path d="M2950 699 c-14 -26 0 -39 42 -39 32 0 42 12 25 33 -22 27 -54 30 -67
6z"/>
<path d="M4710 706 c0 -31 13 -46 39 -46 37 0 43 8 24 36 -17 26 -63 33 -63
10z"/>
<path d="M0 685 c0 -19 5 -26 17 -23 25 5 27 25 4 38 -19 10 -21 8 -21 -15z"/>
<path d="M530 691 c0 -11 29 -35 35 -29 10 9 -7 38 -21 38 -8 0 -14 -4 -14 -9z"/>
<path d="M1649 691 c11 -7 11 -9 0 -14 -9 -3 -7 -6 6 -6 11 0 26 3 33 8 11 7
10 10 -3 15 -9 3 -24 6 -33 6 -14 0 -14 -2 -3 -9z"/>
<path d="M3140 685 c0 -11 7 -15 23 -13 12 2 22 8 22 13 0 6 -10 11 -22 13
-16 2 -23 -2 -23 -13z"/>
<path d="M305 650 c3 -5 10 -10 16 -10 5 0 9 5 9 10 0 6 -7 10 -16 10 -8 0
-12 -4 -9 -10z"/>
<path d="M1587 643 c-4 -3 -7 -18 -7 -33 0 -30 -16 -50 -42 -50 -10 0 -18 -4
-18 -10 0 -5 4 -10 9 -10 5 0 16 -3 25 -6 11 -4 16 -1 16 10 0 9 7 16 15 16 8
0 15 5 15 10 0 6 11 10 24 10 61 0 73 25 25 53 -32 18 -51 21 -62 10z"/>
<path d="M2308 626 c-6 -31 18 -43 32 -16 15 28 12 40 -9 40 -12 0 -20 -9 -23
-24z"/>
<path d="M3636 641 c-3 -5 5 -11 19 -13 17 -4 25 -1 25 8 0 15 -36 19 -44 5z"/>
<path d="M4575 642 c3 -3 19 -7 36 -8 17 -2 28 0 25 3 -3 3 -19 7 -36 8 -17 1
-28 0 -25 -3z"/>
<path d="M2300 566 c0 -8 5 -18 10 -21 6 -3 10 1 10 9 0 8 -4 18 -10 21 -5 3
-10 -1 -10 -9z"/>
<path d="M2260 474 c-21 -21 -22 -27 -10 -34 28 -18 40 -11 40 25 0 19 -1 35
-3 35 -2 0 -14 -11 -27 -26z"/>
</g>
</svg>
