<?xml version="1.0" standalone="no"?>
<!DOCTYPE svg PUBLIC "-//W3C//DTD SVG 20010904//EN"
 "http://www.w3.org/TR/2001/REC-SVG-20010904/DTD/svg10.dtd">
<svg version="1.0" xmlns="http://www.w3.org/2000/svg"
 width="739.000000pt" height="415.000000pt" viewBox="0 0 739.000000 415.000000"
 preserveAspectRatio="xMidYMid meet">

<g transform="translate(0.000000,415.000000) scale(0.100000,-0.100000)"
fill="#000000" stroke="none">
<path d="M0 3630 l0 -520 40 0 c29 0 40 4 40 15 0 11 11 15 39 15 23 0 41 5
43 12 6 16 76 -40 77 -61 1 -11 4 -11 18 0 15 13 15 14 0 17 -10 2 -17 10 -17
18 0 10 12 14 40 14 36 0 40 3 40 25 0 19 5 25 23 25 13 0 29 6 36 13 11 10
14 10 18 0 7 -18 43 -16 65 4 17 15 18 15 18 -1 0 -15 10 -16 75 -14 80 3 100
14 38 21 l-38 4 43 1 c31 2 42 -2 42 -13 0 -23 117 -21 143 3 18 16 19 16 17
-3 -1 -11 -2 -37 -1 -57 1 -35 3 -38 31 -38 27 0 30 3 30 34 0 19 6 37 12 39
7 3 -3 6 -22 7 l-35 1 33 29 c35 33 41 50 15 50 -15 0 -15 1 0 18 10 10 17 23
17 29 0 6 6 13 13 16 14 5 11 97 -4 97 -5 0 -9 -7 -9 -16 0 -14 -3 -14 -15 -4
-9 7 -13 15 -10 18 3 3 -5 16 -17 29 -17 18 -32 23 -70 23 -26 0 -48 4 -48 9
0 4 -20 29 -45 53 -25 26 -45 55 -45 67 0 30 -15 26 -56 -14 -38 -38 -76 -45
-110 -20 -10 8 -34 15 -51 15 -22 0 -37 7 -45 20 -7 11 -18 20 -25 20 -7 0
-13 -9 -13 -20 0 -17 -7 -20 -44 -20 -26 0 -46 -5 -49 -12 -4 -10 -7 -10 -18
0 -11 10 -10 12 4 12 25 0 24 77 0 82 -13 3 -6 10 24 26 56 29 73 28 73 -3 0
-24 2 -25 63 -25 37 0 68 5 75 12 10 10 15 10 22 -1 7 -12 15 -9 43 15 20 16
36 35 36 42 1 7 14 12 30 12 28 0 30 3 33 43 3 34 5 38 13 22 12 -27 25 -35
58 -35 28 0 39 -24 15 -33 -9 -3 -6 -11 10 -24 12 -11 22 -25 22 -32 0 -6 14
-11 30 -11 17 0 30 5 30 10 0 6 18 10 40 10 36 0 40 3 40 25 l0 25 125 0 125
0 -5 55 -6 55 31 0 c16 0 30 5 30 10 0 6 23 10 50 10 38 0 50 4 50 15 0 9 9
15 23 15 32 1 57 23 57 54 0 26 0 26 80 26 l80 0 0 -40 c0 -36 3 -40 25 -40
23 0 25 4 25 40 0 28 4 40 14 40 8 0 16 -6 19 -12 4 -10 7 -10 18 0 11 10 10
12 -4 12 -9 0 -17 7 -17 15 0 11 11 15 40 15 29 0 40 -4 40 -15 0 -8 5 -15 10
-15 6 0 10 19 10 43 0 43 1 43 30 39 27 -4 30 -8 30 -43 0 -39 0 -39 40 -39
29 0 40 4 40 15 0 11 11 15 40 15 29 0 40 -4 40 -15 0 -8 5 -15 10 -15 6 0 10
6 10 14 0 7 14 27 30 44 17 18 30 34 30 37 0 3 15 19 33 35 l32 29 -1032 1
-1033 0 0 -520z m1040 215 c0 -8 -7 -15 -16 -15 -14 0 -14 3 -4 15 7 8 14 15
16 15 2 0 4 -7 4 -15z m-210 -55 c0 -38 -1 -40 -32 -40 -29 0 -30 1 -15 18 10
10 17 28 17 40 0 13 6 22 15 22 11 0 15 -11 15 -40z"/>
<path d="M5568 4120 c17 -16 32 -39 32 -50 0 -11 -15 -34 -32 -50 -28 -25 -41
-29 -89 -30 l-56 0 -7 -46 c-10 -79 -8 -114 9 -114 8 0 15 -7 15 -15 0 -11 11
-15 40 -15 29 0 40 4 40 15 0 21 8 19 47 -15 31 -28 39 -30 113 -30 47 0 80
-4 80 -10 0 -5 11 -10 25 -10 29 0 75 -40 75 -65 0 -9 9 -15 25 -15 21 0 25
-5 25 -30 l0 -30 -75 0 c-63 0 -75 3 -75 16 0 22 -29 43 -57 44 -20 0 -23 5
-23 40 0 29 -4 40 -15 40 -11 0 -15 -11 -15 -40 0 -29 4 -40 15 -40 8 0 15 -6
15 -12 -1 -18 -48 -51 -65 -45 -7 3 -21 -1 -32 -8 -10 -8 -28 -15 -40 -15 -21
0 -23 -5 -23 -58 0 -46 4 -60 20 -72 11 -8 20 -18 20 -22 0 -4 -9 -8 -20 -8
-11 0 -20 -7 -20 -15 0 -11 11 -15 39 -15 33 0 40 -4 43 -22 2 -19 10 -24 41
-26 28 -2 37 0 37 12 0 12 10 16 35 16 19 0 35 5 35 10 0 6 20 10 45 10 44 0
45 1 45 31 0 29 2 30 38 27 30 -2 38 -7 40 -25 4 -26 10 -28 35 -9 11 8 17 27
17 50 0 25 4 36 15 36 9 0 15 9 15 25 0 23 4 25 40 25 37 0 40 2 41 28 1 34
66 94 79 72 4 -7 13 -9 19 -6 16 10 4 26 -20 26 -17 0 -19 7 -19 75 0 84 -9
76 86 79 30 1 94 45 94 65 0 6 18 11 40 11 29 0 40 4 40 15 0 11 11 15 40 15
22 0 40 5 40 10 0 6 18 10 40 10 25 0 40 5 41 13 0 6 16 25 35 41 34 28 35 28
52 8 17 -20 18 -20 45 4 15 12 27 28 27 34 0 5 18 10 40 10 29 0 40 4 40 15 0
11 11 15 40 15 38 0 40 -1 40 -31 0 -27 2 -30 15 -19 8 7 13 16 10 20 -3 5 8
20 25 33 16 14 30 30 30 36 0 8 -180 11 -591 11 l-591 0 6 -47 c14 -105 13
-108 -15 -111 -15 -2 -37 -14 -50 -28 -29 -31 -47 -31 -59 1 -6 15 -17 25 -30
25 -18 0 -20 6 -20 80 l0 80 -37 0 -38 -1 33 -29z m466 -259 c15 -17 15 -19 1
-25 -9 -3 -29 -6 -43 -6 -25 1 -25 2 -9 14 9 7 17 18 17 25 0 17 15 13 34 -8z
m66 -16 c10 -12 10 -15 -4 -15 -9 0 -16 7 -16 15 0 8 2 15 4 15 2 0 9 -7 16
-15z m-480 -400 c10 -12 10 -15 -4 -15 -9 0 -16 7 -16 15 0 8 2 15 4 15 2 0 9
-7 16 -15z m165 -5 c3 -5 -1 -10 -9 -10 -9 0 -16 5 -16 10 0 6 4 10 9 10 6 0
13 -4 16 -10z"/>
<path d="M7200 4135 c0 -11 11 -15 40 -15 29 0 40 4 40 15 0 11 -11 15 -40 15
-29 0 -40 -4 -40 -15z"/>
<path d="M7362 3970 c2 -99 6 -180 11 -180 4 0 7 81 7 180 0 120 -4 180 -11
180 -7 0 -9 -58 -7 -180z"/>
<path d="M3990 4021 c0 -23 1 -23 18 -8 24 22 33 13 25 -24 -3 -18 -1 -29 6
-29 6 0 11 10 11 23 0 12 3 31 6 43 5 17 1 20 -30 20 -32 0 -36 -3 -36 -25z"/>
<path d="M3856 4032 c-3 -5 -8 -28 -12 -52 -5 -31 -4 -41 4 -36 7 4 12 14 12
22 0 8 5 14 10 14 6 0 10 -7 10 -15 0 -8 -4 -15 -10 -15 -5 0 -10 -7 -10 -16
0 -14 3 -14 15 -4 21 17 21 110 1 110 -8 0 -17 -4 -20 -8z"/>
<path d="M3915 4031 c-3 -5 -1 -12 5 -16 5 -3 10 1 10 9 0 18 -6 21 -15 7z"/>
<path d="M3793 4018 c-4 -7 -17 -13 -28 -13 -11 0 -21 -8 -23 -19 -3 -16 0
-18 22 -12 22 5 27 2 33 -21 4 -16 6 -36 4 -45 -1 -10 2 -26 8 -35 7 -12 10
-13 11 -4 0 7 6 11 14 8 10 -4 7 11 -11 49 -23 51 -24 57 -9 73 9 10 16 21 16
24 0 12 -29 8 -37 -5z"/>
<path d="M4236 4011 c-3 -5 1 -11 9 -15 8 -3 15 -12 15 -21 0 -12 4 -11 20 5
12 12 18 25 15 30 -8 13 -52 13 -59 1z"/>
<path d="M4339 4008 c0 -2 -2 -14 -5 -27 -4 -20 -2 -22 10 -11 20 16 38 3 30
-22 -5 -18 -3 -20 17 -15 19 5 61 -11 108 -40 2 -1 -2 -9 -9 -18 -7 -9 -10
-18 -6 -22 3 -3 6 -1 6 5 0 13 38 16 57 4 6 -4 14 -19 18 -34 6 -22 0 -33 -39
-72 -25 -24 -41 -48 -36 -51 20 -13 49 7 75 50 24 41 27 44 50 33 30 -14 33
-28 5 -28 -11 0 -20 -4 -20 -10 0 -5 -7 -10 -15 -10 -8 0 -15 -7 -15 -16 0
-13 6 -12 35 6 20 12 43 19 52 16 14 -6 14 -8 -1 -24 -21 -24 -20 -30 7 -34
38 -5 25 -30 -25 -45 -55 -16 -60 -31 -23 -71 14 -15 23 -33 20 -40 -6 -16 25
-72 40 -72 5 0 3 -4 -5 -10 -11 -7 -12 -14 -3 -32 21 -43 27 -63 29 -98 7
-117 12 -158 18 -168 3 -6 -1 -18 -10 -26 -13 -13 -13 -16 -1 -16 15 0 30 -37
21 -52 -3 -5 -14 2 -26 14 -18 21 -19 21 -13 3 13 -35 10 -50 -7 -49 -18 2
-15 -14 9 -52 16 -25 6 -39 -15 -21 -13 10 -14 9 -4 -10 17 -30 15 -43 -4 -36
-14 5 -15 3 -5 -15 6 -11 11 -38 11 -60 0 -34 4 -41 25 -46 27 -7 35 -26 11
-26 -8 0 -18 -5 -22 -11 -4 -8 0 -9 15 -4 11 3 22 3 22 -2 1 -4 3 -18 4 -31 3
-27 15 -42 15 -19 0 10 4 17 8 17 10 0 37 -79 33 -97 -1 -8 4 -10 14 -7 12 5
13 10 6 17 -14 14 -14 54 0 62 6 4 9 0 7 -10 -2 -10 6 -22 17 -29 11 -6 22
-13 25 -16 29 -29 79 -37 113 -18 12 7 34 11 48 9 22 -2 27 3 32 26 3 15 1 32
-4 38 -17 17 -10 37 10 30 18 -5 19 -3 9 30 -12 36 -3 60 12 35 12 -20 20 -9
13 18 -3 12 -9 19 -14 16 -5 -3 -9 8 -9 25 0 16 -5 31 -11 33 -6 2 -11 25 -12
51 -1 26 -5 47 -8 47 -3 0 -15 21 -27 48 -18 41 -39 176 -46 302 -1 20 -5 40
-8 45 -3 6 -9 25 -13 43 -17 82 -148 314 -199 354 -16 13 -43 36 -60 51 -17
15 -51 40 -76 54 -25 14 -48 32 -53 39 -4 7 -21 16 -39 19 -17 4 -40 15 -51
25 -10 10 -25 16 -33 13 -8 -3 -14 0 -14 7 0 18 -27 40 -49 40 -12 0 -21 -1
-22 -2z m406 -368 c3 -5 3 -10 -2 -11 -4 0 -20 -2 -35 -4 -23 -3 -25 -1 -15
10 14 17 43 19 52 5z m1 -75 c18 -13 16 -14 -23 -15 -40 0 -52 8 -36 23 11 12
38 8 59 -8z m284 -905 c0 -5 -7 -10 -16 -10 -8 0 -12 5 -9 10 3 6 10 10 16 10
5 0 9 -4 9 -10z"/>
<path d="M3619 3975 c-9 -9 -27 -17 -40 -17 -30 -2 -79 -35 -79 -54 0 -20 10
-17 36 12 13 14 28 22 34 19 5 -3 18 0 29 7 16 10 23 10 33 0 18 -18 36 -15
34 6 -2 25 51 30 57 5 3 -12 5 -8 6 10 1 26 -1 27 -47 27 -30 0 -54 -6 -63
-15z"/>
<path d="M3956 3956 c-16 -34 -22 -65 -9 -53 3 4 14 25 24 47 22 48 8 54 -15
6z"/>
<path d="M4104 3966 c-3 -14 -1 -33 6 -43 10 -16 11 -15 6 6 -3 13 -1 33 5 43
6 12 6 18 0 18 -6 0 -13 -11 -17 -24z"/>
<path d="M6588 3983 c-31 -8 -19 -23 17 -23 24 0 35 5 35 15 0 15 -17 17 -52
8z"/>
<path d="M3611 3904 c0 -11 3 -14 6 -6 3 7 2 16 -1 19 -3 4 -6 -2 -5 -13z"/>
<path d="M3756 3897 c-5 -15 -6 -31 -2 -34 11 -11 18 5 14 34 l-4 28 -8 -28z"/>
<path d="M4187 3913 c-4 -3 -7 -11 -7 -17 0 -6 5 -5 12 2 6 6 9 14 7 17 -3 3
-9 2 -12 -2z"/>
<path d="M4267 3903 c-14 -14 -17 -15 -17 -3 0 8 -11 -7 -25 -34 -18 -36 -22
-53 -14 -65 8 -13 9 -12 4 5 -3 13 1 26 10 34 8 7 15 9 15 5 0 -11 35 36 43
58 8 21 6 21 -16 0z"/>
<path d="M1360 3870 c0 -29 4 -40 15 -40 11 0 15 11 15 40 0 29 -4 40 -15 40
-11 0 -15 -11 -15 -40z"/>
<path d="M4026 3861 c4 -47 10 -59 21 -48 3 4 1 17 -5 30 -6 12 -13 31 -15 42
-3 11 -3 0 -1 -24z"/>
<path d="M4102 3875 c0 -16 2 -22 5 -12 2 9 2 23 0 30 -3 6 -5 -1 -5 -18z"/>
<path d="M3700 3883 c0 -4 5 -15 10 -23 8 -13 10 -13 10 2 0 9 -4 20 -10 23
-5 3 -10 3 -10 -2z"/>
<path d="M3596 3871 c-4 -6 0 -23 8 -38 l15 -28 0 25 c1 31 -14 57 -23 41z"/>
<path d="M4426 3873 c-3 -4 -16 -8 -27 -10 -34 -5 -53 -31 -42 -56 10 -21 11
-20 27 17 14 35 18 37 29 23 11 -15 13 -14 24 8 10 24 5 33 -11 18z"/>
<path d="M4062 3835 c0 -16 2 -22 5 -12 2 9 2 23 0 30 -3 6 -5 -1 -5 -18z"/>
<path d="M4302 3828 c-14 -14 -16 -28 -3 -28 9 0 24 30 18 36 -2 2 -9 -2 -15
-8z"/>
<path d="M4429 3827 c-26 -20 -40 -52 -27 -65 15 -15 37 8 44 47 7 34 6 36
-17 18z"/>
<path d="M4537 3833 c-4 -3 -7 -11 -7 -17 0 -6 5 -5 12 2 6 6 9 14 7 17 -3 3
-9 2 -12 -2z"/>
<path d="M4485 3809 c-11 -17 1 -21 15 -4 8 9 8 15 2 15 -6 0 -14 -5 -17 -11z"/>
<path d="M4171 3777 c-7 -20 -10 -43 -8 -50 3 -6 6 -3 6 9 1 11 6 25 12 31 6
6 9 19 7 29 -3 14 -8 8 -17 -19z"/>
<path d="M4246 3794 c-9 -24 -7 -28 9 -14 17 14 20 30 6 30 -5 0 -12 -7 -15
-16z"/>
<path d="M3408 3793 c7 -3 16 -2 19 1 4 3 -2 6 -13 5 -11 0 -14 -3 -6 -6z"/>
<path d="M4332 3788 c-7 -7 -12 -16 -12 -21 0 -5 7 -1 16 8 9 9 14 18 12 20
-2 3 -10 -1 -16 -7z"/>
<path d="M3319 3727 c-19 -23 -52 -70 -73 -104 -21 -34 -44 -64 -52 -67 -8 -3
-20 -18 -27 -33 -22 -51 -69 -123 -79 -123 -6 0 -7 -9 -3 -22 11 -37 7 -59
-13 -82 -16 -17 -21 -42 -27 -123 -4 -57 -11 -103 -16 -103 -5 0 -4 -9 3 -20
10 -16 10 -26 0 -52 -8 -18 -15 -37 -16 -43 -1 -5 -9 -26 -18 -45 -19 -44 -15
-50 17 -20 18 17 25 19 25 9 0 -8 -5 -20 -11 -26 -9 -9 -6 -10 10 -6 l22 6
-22 -37 c-23 -39 -20 -57 6 -36 13 11 15 8 15 -19 0 -29 19 -46 21 -18 1 6 2
17 3 23 1 13 36 48 37 37 0 -4 5 3 10 17 9 23 11 23 20 7 6 -9 14 -15 20 -12
15 10 10 -5 -7 -22 -8 -9 -12 -19 -7 -22 14 -11 11 -52 -4 -47 -7 3 -13 4 -13
2 0 -10 59 -66 70 -66 6 0 9 -4 6 -9 -3 -5 -16 -7 -28 -3 -14 3 -19 2 -14 -6
4 -7 16 -12 26 -12 10 0 22 -5 25 -11 4 -6 14 -8 23 -4 19 7 32 -11 32 -47 0
-18 5 -28 15 -28 7 0 18 -7 23 -16 13 -22 70 -27 118 -10 l39 15 -46 0 c-59 1
-101 16 -117 41 -14 22 -6 25 34 10 38 -15 41 -5 8 25 -18 17 -22 25 -11 21 9
-3 17 0 17 6 0 6 8 4 18 -5 23 -21 81 -22 110 -1 16 11 27 13 35 6 7 -6 30
-13 52 -15 22 -3 47 -8 56 -12 10 -4 16 -1 16 10 0 8 -3 15 -6 15 -3 0 -19 12
-36 26 -52 46 -118 84 -144 84 -22 0 -19 -4 21 -27 55 -30 58 -40 5 -18 -20 8
-55 15 -77 15 -23 0 -40 5 -40 11 0 8 -15 10 -45 7 -30 -4 -45 -2 -45 6 0 6
-4 5 -9 -3 -5 -8 -11 -9 -15 -3 -10 17 42 50 87 57 69 11 267 -49 267 -79 0
-20 14 -20 45 0 30 20 32 30 5 37 -12 3 -20 14 -20 25 0 13 -12 28 -30 39 -16
9 -30 21 -30 25 0 4 -14 15 -32 24 -34 18 -136 23 -230 12 -60 -7 -74 -3 -57
18 6 7 6 14 0 18 -5 3 -7 25 -5 49 l3 42 -8 -39 c-4 -21 -13 -41 -19 -45 -6
-3 -14 -19 -17 -34 -6 -23 -12 -28 -34 -25 -24 3 -26 7 -29 61 -2 32 1 64 6
70 6 7 13 32 17 56 11 68 45 91 45 32 1 -25 1 -25 12 -6 6 11 20 29 30 40 20
21 20 46 1 53 -8 2 -13 -5 -13 -17 0 -12 -4 -21 -10 -21 -10 0 -14 14 -11 38
1 6 -8 12 -21 13 l-23 0 22 11 c13 6 25 19 28 29 8 23 -5 70 -17 63 -5 -3 -7
-12 -4 -19 3 -8 -2 -19 -10 -25 -12 -11 -13 -5 -9 39 3 36 1 51 -8 51 -7 1 -5
6 6 14 9 7 17 18 17 25 0 6 4 19 9 29 4 9 16 35 27 57 10 22 33 64 51 93 18
29 33 59 33 67 0 8 9 23 19 32 11 9 17 22 14 29 -3 7 5 27 16 43 26 37 26 41
-1 41 -14 -1 -37 -17 -59 -43z"/>
<path d="M4087 3757 c-4 -10 -7 -26 -7 -35 1 -15 2 -15 11 1 6 10 9 25 7 35
-3 16 -4 15 -11 -1z"/>
<path d="M4137 3757 c-11 -29 -9 -43 4 -30 6 6 9 19 7 29 -3 18 -4 18 -11 1z"/>
<path d="M4464 3755 c-10 -8 -14 -15 -7 -15 19 0 43 11 43 21 0 13 -14 11 -36
-6z"/>
<path d="M4201 3734 c0 -11 3 -14 6 -6 3 7 2 16 -1 19 -3 4 -6 -2 -5 -13z"/>
<path d="M4527 3694 c-15 -15 -6 -24 24 -24 20 0 29 4 27 13 -5 14 -40 21 -51
11z"/>
<path d="M7374 3575 c0 -55 1 -76 3 -47 2 29 2 74 0 100 -2 26 -3 2 -3 -53z"/>
<path d="M4563 3645 c-9 -25 2 -27 28 -6 l24 20 -23 1 c-12 0 -25 -7 -29 -15z"/>
<path d="M1040 3498 c-1 -7 -19 -26 -40 -43 -24 -19 -39 -38 -40 -52 0 -22 4
-23 80 -23 64 0 80 -3 80 -15 0 -9 9 -15 25 -15 20 0 29 9 42 40 10 22 23 40
28 40 6 0 21 9 33 20 12 11 24 20 27 20 3 0 5 -9 5 -20 0 -14 -7 -20 -24 -20
-21 0 -24 -5 -28 -46 -3 -40 0 -49 24 -69 16 -13 28 -33 28 -43 0 -27 64 -35
103 -13 22 12 27 22 27 53 0 25 5 38 13 38 22 0 8 72 -21 103 -14 15 -31 27
-38 27 -6 0 -17 7 -24 15 -17 20 -300 22 -300 3z"/>
<path d="M1500 3445 c-10 -12 -10 -15 4 -15 9 0 16 7 16 15 0 8 -2 15 -4 15
-2 0 -9 -7 -16 -15z"/>
<path d="M7374 3310 c0 -69 1 -97 3 -62 2 34 2 90 0 125 -2 34 -3 6 -3 -63z"/>
<path d="M5440 3334 c0 -14 3 -14 15 -4 8 7 15 14 15 16 0 2 -7 4 -15 4 -8 0
-15 -7 -15 -16z"/>
<path d="M480 3094 c0 -14 3 -14 15 -4 8 7 15 14 15 16 0 2 -7 4 -15 4 -8 0
-15 -7 -15 -16z"/>
<path d="M3194 2980 c0 -38 3 -50 13 -48 8 2 14 6 14 11 -1 4 -1 25 -1 47 0
25 -5 40 -12 40 -9 0 -13 -17 -14 -50z"/>
<path d="M5025 3000 c-3 -5 -1 -10 4 -10 6 0 11 5 11 10 0 6 -2 10 -4 10 -3 0
-8 -4 -11 -10z"/>
<path d="M3197 2913 c-4 -3 -7 -13 -7 -22 1 -13 3 -13 11 2 11 19 8 33 -4 20z"/>
<path d="M3994 2825 c-9 -6 -14 -17 -10 -23 7 -12 -10 -17 -44 -14 -8 1 -30
-4 -48 -9 -40 -13 -41 -42 -1 -71 25 -19 28 -19 74 -4 76 26 230 49 278 42 24
-4 53 -15 63 -24 10 -10 26 -21 35 -24 9 -4 26 -27 39 -52 14 -30 28 -46 41
-46 12 0 16 5 13 15 -4 8 -2 15 4 15 13 0 -36 99 -63 126 -27 28 -94 50 -195
63 -148 19 -168 19 -186 6z"/>
<path d="M3063 2724 c-3 -8 -1 -20 4 -25 7 -7 12 -2 15 15 6 28 -9 36 -19 10z"/>
<path d="M5100 2726 c0 -8 4 -17 9 -20 5 -4 7 3 4 14 -6 23 -13 26 -13 6z"/>
<path d="M4060 2700 c0 -4 -12 -11 -27 -15 -51 -12 -137 -75 -104 -75 12 0 74
33 82 43 3 4 30 16 60 27 30 10 50 20 44 21 -35 6 -55 5 -55 -1z"/>
<path d="M3625 2691 c-7 -12 12 -24 25 -16 11 7 4 25 -10 25 -5 0 -11 -4 -15
-9z"/>
<path d="M3071 2654 c0 -11 3 -14 6 -6 3 7 2 16 -1 19 -3 4 -6 -2 -5 -13z"/>
<path d="M4050 2649 c-55 -25 -58 -28 -40 -39 9 -5 25 -3 44 7 24 13 31 13 35
2 2 -7 15 -23 27 -36 20 -20 30 -23 61 -17 21 4 43 11 49 15 14 11 39 -15 29
-31 -8 -14 11 -13 38 2 12 6 37 11 55 9 37 -3 39 2 12 36 -29 37 -80 73 -103
73 -17 0 -16 -3 7 -21 41 -32 31 -42 -13 -13 -55 36 -139 41 -201 13z"/>
<path d="M3128 2633 c7 -3 16 -2 19 1 4 3 -2 6 -13 5 -11 0 -14 -3 -6 -6z"/>
<path d="M3250 2595 c0 -8 5 -15 10 -15 6 0 10 7 10 15 0 8 -4 15 -10 15 -5 0
-10 -7 -10 -15z"/>
<path d="M5022 2583 c-10 -4 -10 -8 -1 -19 16 -20 29 -17 29 6 0 20 -5 23 -28
13z"/>
<path d="M4960 2569 c0 -7 -10 -9 -25 -5 -25 6 -26 5 -25 -36 2 -91 -28 -196
-84 -302 -14 -27 -26 -54 -26 -61 0 -7 -9 -20 -20 -30 -11 -10 -17 -22 -14
-26 3 -5 -2 -24 -12 -41 -29 -56 -30 -62 -28 -113 1 -27 -4 -72 -12 -99 -7
-27 -12 -52 -9 -56 3 -4 -2 -13 -10 -20 -7 -6 -11 -18 -8 -26 3 -8 1 -14 -5
-14 -9 0 -26 -52 -25 -78 1 -7 -6 -11 -15 -10 -12 2 -16 -6 -17 -35 -2 -39
-36 -84 -55 -72 -10 6 -14 -7 -11 -32 1 -7 -3 -13 -9 -13 -7 0 -9 -8 -5 -21 4
-13 1 -27 -10 -39 -9 -10 -14 -23 -11 -28 3 -6 -2 -8 -14 -5 -16 4 -20 0 -20
-18 0 -14 -3 -19 -8 -13 -10 16 -61 24 -56 9 3 -6 -4 -20 -16 -30 -11 -10 -20
-13 -20 -7 0 24 -21 11 -34 -19 -9 -22 -15 -27 -20 -18 -5 11 -7 11 -12 2 -3
-7 -16 -13 -29 -13 -14 0 -25 -7 -28 -20 -3 -11 -11 -20 -19 -20 -11 0 -10 2
1 9 7 5 11 14 7 20 -5 7 -15 6 -32 -5 -14 -10 -24 -12 -24 -5 0 5 -7 8 -16 4
-12 -4 -12 -8 -4 -13 9 -5 6 -10 -9 -15 -11 -3 -21 -10 -21 -15 0 -4 -9 -10
-21 -13 -11 -3 -23 -15 -26 -26 -3 -11 -9 -18 -14 -15 -9 5 -13 -8 -10 -36 1
-12 0 -12 -7 -2 -5 7 -17 10 -28 6 -11 -3 -14 -2 -8 3 14 10 12 49 -4 65 -9 9
-12 9 -12 0 0 -15 -32 -16 -47 -1 -8 8 -13 8 -17 0 -4 -6 -16 -11 -27 -11 -16
0 -18 -5 -14 -27 3 -16 2 -22 -1 -14 -5 11 -11 9 -26 -10 -11 -13 -18 -17 -16
-9 3 8 -5 25 -16 37 l-20 24 -17 -22 c-16 -21 -18 -22 -34 -6 -21 22 -31 21
-44 -1 -9 -14 -12 -15 -20 -3 -5 8 -7 20 -4 28 3 7 1 13 -5 13 -11 0 -34 -25
-28 -31 2 -2 -9 -4 -25 -5 -24 -1 -27 1 -18 13 7 7 9 16 5 20 -3 4 -13 -2 -21
-13 -14 -19 -15 -18 -21 4 -7 25 -22 29 -30 7 -9 -23 -24 -18 -24 8 -1 20 -2
21 -14 4 -12 -16 -15 -16 -42 5 -16 12 -32 26 -35 31 -4 5 -12 6 -18 3 -6 -4
-11 0 -11 8 0 9 -4 16 -10 16 -5 0 -10 13 -10 30 0 22 -4 29 -17 28 -10 -1
-31 0 -47 0 -23 2 -26 5 -17 16 16 19 4 66 -15 59 -10 -3 -14 2 -14 20 0 25
-23 42 -41 31 -6 -3 -8 10 -5 35 4 32 2 41 -10 41 -10 0 -14 8 -12 23 2 15 -1
21 -12 19 -8 -2 -12 0 -8 4 4 4 3 13 -3 21 -13 15 -33 18 -24 2 4 -5 -1 -19
-11 -30 -14 -16 -15 -19 -2 -19 14 0 14 -4 0 -34 -9 -19 -23 -37 -32 -39 -9
-2 -30 -31 -47 -63 l-31 -59 -78 -22 c-44 -12 -104 -29 -134 -38 -121 -37
-157 -46 -210 -51 -30 -3 -89 -14 -130 -24 -86 -21 -171 -32 -244 -32 -59 1
-81 -9 -122 -57 -18 -20 -75 -60 -130 -90 -58 -31 -122 -75 -154 -106 -41 -40
-65 -55 -95 -59 -76 -12 -125 -76 -146 -194 -8 -42 -22 -71 -57 -116 -26 -34
-50 -63 -53 -66 -3 -3 -20 -27 -39 -55 -19 -27 -36 -52 -40 -55 -15 -13 -85
-183 -101 -245 -9 -38 -24 -91 -32 -118 l-15 -47 2395 0 2396 0 -8 157 c-4 96
-12 171 -21 191 -10 25 -11 39 -3 54 6 11 13 72 15 134 5 124 -6 164 -58 210
-28 26 -101 64 -123 64 -8 0 -15 3 -15 8 0 4 -35 44 -77 88 -54 56 -95 89
-135 107 -31 15 -59 27 -63 27 -3 0 -48 21 -101 46 -78 38 -101 45 -129 40
-22 -4 -35 -3 -35 4 0 5 6 10 13 10 21 1 -72 79 -119 100 -25 11 -79 26 -120
35 -75 15 -166 59 -198 94 -9 10 -27 38 -39 62 -16 32 -35 51 -69 69 -47 25
-60 40 -35 40 6 1 23 9 36 20 18 16 24 31 26 77 2 32 7 58 12 58 4 0 6 -6 5
-14 -2 -7 1 -10 7 -6 6 3 11 15 11 25 0 12 10 21 29 25 27 6 47 28 43 48 -2 8
4 9 85 7 54 -1 62 1 68 20 4 11 2 27 -4 34 -8 9 -8 22 0 46 18 49 -17 200 -46
200 -7 0 -16 7 -19 16 -5 13 -9 14 -21 4 -13 -11 -15 -8 -15 14 0 15 -4 25 -9
22 -9 -6 -25 10 -33 34 -4 10 3 20 18 27 13 6 22 7 18 2 -3 -5 2 -6 9 -3 8 3
18 15 22 27 4 14 8 17 11 10 6 -14 64 37 64 55 0 6 13 13 29 17 16 3 35 13 42
21 15 18 -1 18 -37 -1 -55 -28 -69 -12 -38 46 15 30 12 61 -10 88 -6 7 -11 19
-12 25 0 6 -2 19 -2 28 -2 12 -7 15 -19 11 -13 -5 -15 -2 -10 12 7 17 6 17
-18 1 -15 -10 -32 -15 -38 -12 -7 3 -3 7 10 11 28 9 38 45 12 45 -10 0 -19 -5
-19 -11z m52 -144 c-5 -29 -17 -33 -26 -9 -7 18 11 47 24 39 4 -2 5 -16 2 -30z
m38 -32 c0 -10 -4 -24 -9 -32 -7 -11 -11 -10 -19 6 -8 14 -8 23 0 31 17 17 28
15 28 -5z m-273 -765 c-3 -8 -6 -5 -6 6 -1 11 2 17 5 13 3 -3 4 -12 1 -19z m3
-45 c0 -3 -7 -3 -15 1 -8 3 -15 1 -15 -4 0 -6 -5 -10 -11 -10 -8 0 -8 4 1 14
10 13 40 12 40 -1z m-1380 -257 c0 -3 -4 -8 -10 -11 -5 -3 -10 -1 -10 4 0 6 5
11 10 11 6 0 10 -2 10 -4z m701 -229 c-8 -8 -14 -7 -23 2 -11 10 -9 11 6 5 15
-6 17 -4 11 6 -6 9 -4 11 4 5 9 -5 10 -10 2 -18z m-46 -17 c3 -5 2 -10 -4 -10
-5 0 -13 5 -16 10 -3 6 -2 10 4 10 5 0 13 -4 16 -10z m1420 -60 c3 -5 -1 -10
-10 -10 -9 0 -13 5 -10 10 3 6 8 10 10 10 2 0 7 -4 10 -10z m-2135 -34 c14 -2
30 -5 37 -5 7 -1 24 -12 38 -26 14 -14 25 -23 25 -19 0 3 6 1 14 -5 10 -8 20
-8 41 3 35 18 42 15 50 -25 4 -17 13 -33 21 -36 8 -3 12 -9 9 -13 -3 -4 1 -19
8 -33 10 -19 17 -23 28 -16 12 8 11 11 -3 20 -10 5 -18 14 -18 20 0 13 70 -26
86 -49 10 -14 23 -19 49 -16 l35 2 -39 -44 c-22 -26 -74 -117 -122 -215 -55
-112 -85 -164 -87 -150 -2 11 -10 21 -19 21 -13 0 -14 2 -2 17 12 14 12 16 -2
11 -10 -4 -19 4 -28 26 -7 17 -17 40 -23 51 -17 30 -18 120 -2 151 17 32 17
37 2 28 -8 -5 -9 2 -5 23 4 23 0 36 -19 56 -14 15 -23 36 -21 49 2 20 -2 23
-26 20 -23 -3 -30 2 -42 32 -16 39 -32 158 -18 139 5 -7 20 -15 33 -17z m-855
-136 c3 -5 1 -10 -4 -10 -6 0 -11 5 -11 10 0 6 2 10 4 10 3 0 8 -4 11 -10z
m3342 -26 c-3 -3 -12 -4 -19 -1 -8 3 -5 6 6 6 11 1 17 -2 13 -5z m-2012 -14
c-3 -5 -14 -10 -23 -9 -14 0 -13 2 3 9 27 11 27 11 20 0z m1995 -374 c0 -2 -7
-7 -16 -10 -8 -3 -12 -2 -9 4 6 10 25 14 25 6z"/>
<path d="M4840 2530 c0 -5 6 -10 14 -10 8 0 18 5 21 10 3 6 -3 10 -14 10 -12
0 -21 -4 -21 -10z"/>
<path d="M4864 2499 c-3 -6 -14 -9 -24 -6 -11 3 -21 -2 -24 -10 -4 -11 -2 -13
9 -10 20 8 30 -12 12 -26 -8 -7 -17 -25 -20 -40 -3 -20 -1 -25 6 -18 18 18 37
13 30 -6 -5 -14 -3 -16 7 -6 7 6 14 28 16 48 2 21 8 43 14 51 12 13 6 34 -10
34 -5 0 -12 -5 -16 -11z"/>
<path d="M4081 2485 c19 -17 106 -45 143 -45 56 0 7 28 -78 43 -61 12 -75 12
-65 2z"/>
<path d="M3076 2455 c-23 -53 -11 -137 19 -149 9 -3 12 0 9 9 -3 7 -1 23 6 34
7 14 7 21 0 21 -5 0 -10 5 -10 10 0 6 7 10 15 10 17 0 20 16 5 25 -5 3 -10 16
-10 28 0 12 -4 28 -9 36 -7 11 -13 5 -25 -24z"/>
<path d="M3530 2325 c0 -8 -4 -15 -10 -15 -5 0 -10 -7 -10 -16 0 -9 -8 -23
-17 -30 -10 -7 -15 -16 -11 -20 9 -9 38 14 38 31 0 7 7 18 15 25 17 14 20 40
5 40 -5 0 -10 -7 -10 -15z"/>
<path d="M3580 2326 c0 -17 14 -29 23 -20 8 8 -3 34 -14 34 -5 0 -9 -6 -9 -14z"/>
<path d="M3162 2231 c-8 -5 -12 -16 -10 -25 2 -12 6 -10 15 9 6 14 10 25 10
25 -1 0 -8 -4 -15 -9z"/>
<path d="M3516 2200 c3 -21 0 -41 -6 -45 -16 -10 -12 -28 5 -21 8 3 15 1 15
-4 0 -6 9 -5 20 2 18 11 23 10 40 -12 11 -14 20 -22 21 -17 1 4 2 11 3 16 2
19 13 21 26 6 7 -8 10 -15 6 -15 -3 0 3 -9 14 -20 33 -33 67 -36 103 -9 25 18
43 23 85 21 44 -2 56 2 77 22 27 27 33 51 11 43 -8 -3 -22 1 -33 8 -24 19 -53
19 -79 0 -12 -8 -24 -12 -26 -9 -3 2 -29 -1 -57 -7 -51 -11 -54 -10 -82 17
-16 15 -29 36 -29 46 0 12 -5 15 -16 11 -8 -3 -13 -12 -9 -20 4 -11 1 -13 -11
-9 -8 3 -27 6 -40 6 -14 0 -23 4 -20 9 3 5 0 11 -8 14 -11 4 -13 -3 -10 -33z"/>
<path d="M3121 2194 c0 -11 3 -14 6 -6 3 7 2 16 -1 19 -3 4 -6 -2 -5 -13z"/>
<path d="M3115 2070 c3 -5 12 -7 20 -3 21 7 19 13 -6 13 -11 0 -18 -4 -14 -10z"/>
<path d="M3660 1898 c-19 -15 -25 -17 -30 -6 -7 18 -141 18 -148 0 -3 -10 -8
-8 -17 5 -13 17 -14 17 -23 -6 -7 -20 -10 -21 -15 -8 -9 25 -24 21 -31 -9 -5
-17 -12 -24 -21 -20 -10 3 -15 -1 -15 -12 0 -11 -15 -25 -36 -36 -42 -19 -39
-33 4 -18 24 8 31 7 40 -9 7 -11 18 -16 28 -12 9 3 20 0 24 -7 6 -9 11 -7 19
8 7 13 17 19 26 16 9 -4 15 0 15 10 0 12 10 16 40 17 47 2 52 2 65 10 14 9
305 -2 305 -11 0 -5 19 -11 43 -15 23 -4 49 -13 57 -20 8 -8 33 -16 55 -18 22
-3 48 -8 58 -12 9 -4 17 -5 17 -2 0 12 -73 76 -81 71 -5 -3 -18 4 -30 15 -12
11 -26 18 -31 15 -4 -3 -22 4 -38 16 -25 18 -34 19 -45 10 -11 -9 -19 -10 -28
-1 -8 6 -17 8 -21 4 -4 -4 -2 5 3 20 l11 28 -27 -19 c-41 -28 -63 -34 -69 -18
-3 7 -15 11 -28 9 -13 -3 -29 2 -37 10 -13 13 -18 12 -39 -5z"/>
<path d="M3133 1743 c-15 -5 -17 -23 -4 -23 5 0 11 7 15 15 3 8 4 15 3 14 -1
0 -8 -3 -14 -6z"/>
<path d="M3114 1684 c3 -9 6 -23 6 -32 0 -15 1 -15 16 0 19 19 12 48 -12 48
-11 0 -14 -5 -10 -16z"/>
<path d="M3190 1689 c0 -5 5 -7 10 -4 6 3 10 8 10 11 0 2 -4 4 -10 4 -5 0 -10
-5 -10 -11z"/>
<path d="M4080 1230 c0 -5 5 -10 10 -10 6 0 10 5 10 10 0 6 -4 10 -10 10 -5 0
-10 -4 -10 -10z"/>
<path d="M1360 465 c0 -13 4 -14 23 -4 33 17 33 19 4 19 -18 0 -27 -5 -27 -15z"/>
<path d="M1435 470 c3 -5 8 -10 11 -10 2 0 4 5 4 10 0 6 -5 10 -11 10 -5 0 -7
-4 -4 -10z"/>
<path d="M690 466 c0 -2 7 -9 15 -16 12 -10 15 -10 15 4 0 9 -7 16 -15 16 -8
0 -15 -2 -15 -4z"/>
<path d="M1400 440 c0 -11 5 -20 10 -20 6 0 10 9 10 20 0 11 -4 20 -10 20 -5
0 -10 -9 -10 -20z"/>
<path d="M1379 373 c-13 -16 -12 -17 4 -4 16 13 21 21 13 21 -2 0 -10 -8 -17
-17z"/>
</g>
</svg>
